<?xml version="1.0" standalone="no"?>
<!DOCTYPE svg PUBLIC "-//W3C//DTD SVG 20010904//EN"
 "http://www.w3.org/TR/2001/REC-SVG-20010904/DTD/svg10.dtd">
<svg version="1.0" xmlns="http://www.w3.org/2000/svg"
 width="300.000000pt" height="300.000000pt" viewBox="0 0 300.000000 300.000000"
 preserveAspectRatio="xMidYMid meet">
<metadata>
Created by potrace 1.10, written by Peter Selinger 2001-2011
</metadata>
<g transform="translate(0.000000,300.000000) scale(0.100000,-0.100000)"
fill="#000000" stroke="none">
<path d="M1608 2587 c-33 -28 -88 -107 -88 -128 0 -9 -16 -29 -35 -43 -32 -25
-43 -27 -137 -28 -57 -1 -83 -4 -58 -6 49 -4 66 -14 55 -32 -5 -8 -12 -6 -26
6 -12 10 -25 14 -36 9 -16 -7 -15 -9 7 -15 14 -5 21 -8 16 -9 -5 -1 -1 -10 8
-20 10 -11 13 -22 8 -25 -13 -8 -8 -39 6 -44 16 -5 16 65 0 72 -7 3 -1 4 15 1
25 -5 27 -3 27 25 0 20 5 30 15 30 10 0 15 -10 15 -30 0 -16 5 -30 10 -30 5 0
9 3 9 8 -6 34 3 52 24 52 12 0 39 11 59 25 20 14 41 25 45 25 16 0 45 -42 35
-52 -5 -5 -14 -3 -22 7 -13 16 -30 20 -30 7 0 -4 14 -16 31 -26 30 -18 30 -18
36 3 6 24 23 28 23 6 0 -9 -7 -18 -15 -21 -8 -4 -12 -10 -9 -15 3 -5 1 -9 -5
-9 -5 0 -13 5 -16 10 -3 6 -14 10 -23 10 -13 0 -13 -2 4 -16 13 -11 15 -17 7
-20 -7 -3 -13 -12 -13 -20 0 -8 -10 -24 -22 -36 -13 -13 -23 -27 -23 -32 0 -5
-21 -15 -47 -24 -35 -11 -50 -22 -59 -43 -6 -16 -15 -29 -19 -29 -5 0 -6 -9
-3 -20 4 -16 2 -19 -11 -14 -9 3 -16 11 -16 16 0 6 -7 8 -15 4 -8 -3 -14 0
-12 6 1 7 -7 14 -18 16 -11 2 -23 9 -27 16 -6 8 -8 7 -8 -1 0 -7 9 -22 20 -33
22 -22 19 -25 -11 -9 -19 10 -19 9 -9 -10 8 -15 8 -21 0 -21 -6 0 -8 -5 -5
-10 4 -6 11 -8 16 -5 5 4 9 -9 9 -27 -1 -33 -1 -33 -14 -9 -10 18 -15 21 -20
10 -3 -8 -4 3 -2 23 4 30 -1 44 -19 67 -14 15 -21 31 -17 35 4 4 3 7 -3 6 -23
-5 -45 1 -59 16 -9 8 -16 12 -16 7 0 -4 -4 -3 -8 2 -4 6 -16 15 -26 21 -11 6
-22 16 -24 23 -3 10 0 11 19 0 22 -11 23 -11 10 5 -8 9 -20 15 -27 12 -12 -5
-44 34 -44 54 0 5 12 10 26 10 14 0 23 -4 19 -10 -7 -11 9 -13 43 -4 12 4 22
13 22 20 0 19 -16 18 -24 -2 -6 -15 -8 -15 -32 1 -23 15 -27 15 -49 1 -35 -23
-42 -20 -47 22 -3 20 -8 45 -12 55 -6 13 -3 17 14 17 11 0 18 -4 15 -10 -3 -5
-2 -10 3 -10 5 0 8 -12 5 -27 l-3 -28 10 25 c8 18 13 21 19 11 5 -8 11 -9 15
-3 8 14 -55 63 -74 57 -10 -3 -24 5 -36 22 -21 29 -21 63 -1 63 15 0 81 -60
96 -88 6 -11 21 -22 33 -24 13 -2 22 -9 20 -16 -1 -8 2 -11 9 -6 7 4 18 -1 26
-11 8 -12 13 -14 13 -6 0 9 9 12 25 9 13 -3 26 0 29 6 2 6 5 2 5 -9 1 -12 6
-26 13 -33 9 -9 8 -12 -5 -12 -9 0 -20 7 -25 16 -17 31 -32 6 -16 -26 18 -36
37 -49 32 -24 -2 14 3 18 19 17 20 -2 22 1 20 27 -5 42 -24 60 -66 60 -21 0
-46 7 -57 15 -10 8 -26 15 -34 15 -8 0 -24 12 -35 27 -35 48 -80 87 -111 95
-16 4 -25 -2 -38 -26 -27 -51 2 -166 55 -215 20 -18 20 -20 4 -51 -29 -56 -77
-231 -71 -256 4 -13 2 -24 -2 -24 -27 0 -17 -208 10 -235 7 -7 8 -2 3 15 -7
24 -7 24 8 5 8 -11 11 -22 6 -25 -12 -8 -23 -122 -15 -156 l7 -27 18 29 c13
20 15 33 8 42 -6 8 -6 12 2 12 13 0 15 27 1 35 -5 3 -14 -9 -19 -27 l-9 -33
-1 31 c-1 33 20 69 40 69 7 0 14 6 17 14 3 9 0 11 -8 6 -10 -6 -12 -3 -6 10 4
11 2 22 -6 26 -9 6 -9 11 0 22 7 8 10 22 6 31 -4 9 -1 16 6 16 7 0 10 8 7 20
-3 10 0 21 7 24 8 3 8 5 0 5 -6 1 -9 12 -6 26 2 14 8 22 13 19 5 -3 6 -10 3
-16 -4 -6 -3 -8 3 -5 5 3 27 2 49 -3 24 -6 43 -5 48 0 6 6 14 10 20 10 5 0 -5
-16 -24 -35 -18 -19 -37 -32 -42 -29 -4 3 -8 0 -8 -6 0 -7 -7 -10 -15 -6 -8 3
-15 0 -15 -5 0 -7 9 -9 22 -6 20 6 20 5 5 -11 -13 -13 -19 -13 -29 -4 -16 16
-29 15 -22 -2 3 -8 1 -17 -5 -21 -6 -3 -11 -10 -11 -15 0 -9 26 -7 36 3 4 4
13 2 20 -4 8 -7 14 -6 20 2 4 8 3 9 -4 5 -7 -4 -12 -2 -12 3 0 6 7 11 15 11 8
0 15 5 15 10 0 6 8 10 18 10 27 0 64 30 58 47 -3 8 -2 12 2 9 5 -3 20 1 35 9
15 7 29 10 32 5 3 -4 -1 -11 -7 -13 -7 -3 -3 -6 10 -7 37 -4 40 -5 48 -12 4
-5 14 -8 23 -8 9 0 -1 12 -22 26 -30 20 -37 30 -31 47 6 22 6 22 -10 2 -20
-26 -20 -12 -1 25 11 21 12 30 4 30 -7 0 -5 8 5 19 23 25 56 23 56 -2 0 -14 5
-17 16 -13 13 5 14 4 6 -7 -7 -8 -9 -17 -5 -21 4 -4 0 -4 -10 0 -9 3 -17 10
-17 16 0 5 -4 6 -10 3 -14 -9 -12 -33 3 -38 6 -2 5 -3 -5 -2 -9 2 -18 -6 -21
-16 -5 -20 22 -35 60 -30 11 1 24 -3 28 -8 3 -6 0 -11 -7 -12 -7 -1 -2 -4 12
-8 25 -7 24 -8 -7 -15 -33 -8 -42 -19 -23 -31 8 -5 8 -11 0 -20 -8 -9 -2 -14
25 -18 38 -6 65 -1 65 14 0 5 -10 5 -23 0 -19 -7 -26 -5 -36 11 -12 19 -11 20
9 15 26 -7 64 8 104 41 30 24 47 23 26 -3 -15 -18 -22 -78 -9 -69 5 3 9 0 9
-6 0 -7 -9 -14 -20 -17 -11 -3 -20 -10 -20 -16 0 -6 3 -8 6 -4 4 3 20 -21 37
-54 30 -56 46 -68 55 -41 2 7 -2 10 -12 6 -9 -3 -16 -1 -16 6 0 6 5 8 10 5 6
-3 10 3 10 15 0 12 -3 19 -7 17 -5 -3 -9 8 -10 24 -1 16 2 29 7 29 6 0 10 5
10 10 0 7 -7 7 -21 -1 -17 -9 -20 -8 -17 3 3 7 15 19 29 26 23 13 23 13 -8 7
-26 -5 -33 -3 -33 9 0 9 7 16 15 16 8 0 15 4 15 9 0 5 -10 7 -22 4 l-23 -6 23
24 23 24 17 -23 c19 -25 34 -21 25 6 -12 31 -43 36 -98 16 -19 -6 -19 -6 -3
11 11 11 31 18 58 18 36 0 41 2 36 19 -4 16 -1 19 15 15 10 -3 19 -2 19 3 0 8
-34 20 -57 20 -7 0 -10 -7 -6 -16 5 -14 3 -15 -15 -5 -12 7 -22 16 -22 21 0 5
-9 7 -20 5 -11 -2 -20 0 -20 6 0 20 -16 7 -27 -21 -7 -18 -18 -30 -29 -30 -13
0 -15 3 -7 11 13 13 2 71 -16 77 -10 3 -12 -3 -8 -29 3 -19 2 -43 -2 -53 -6
-15 -11 -4 -21 42 -12 58 -9 98 7 89 5 -3 17 0 28 4 18 9 18 9 -2 5 -28 -5
-40 9 -16 19 16 5 42 -15 55 -43 2 -4 20 -20 41 -35 37 -28 37 -28 34 -5 -2
13 -9 24 -15 24 -7 1 -15 3 -19 4 -5 1 -11 2 -15 2 -3 -1 -9 5 -12 13 -3 9 1
15 10 15 8 0 17 -6 20 -13 3 -8 10 -14 17 -15 7 -1 27 -4 44 -8 42 -8 83 2 83
21 0 8 -4 15 -10 15 -5 0 -10 -4 -10 -10 0 -16 -66 -12 -105 7 -19 9 -35 21
-35 26 0 5 15 -1 34 -12 44 -28 87 -27 114 2 26 27 29 75 6 84 -13 5 -13 7 -2
14 10 7 10 9 -2 9 -9 0 -24 -6 -35 -14 -11 -7 -31 -15 -45 -18 -14 -3 -34 -9
-45 -13 -14 -5 -10 1 10 18 17 14 47 29 69 32 28 5 35 10 25 16 -12 8 -12 10
0 18 8 5 19 7 26 5 6 -3 18 2 25 11 12 15 0 22 -14 8 -9 -9 -36 -13 -36 -5 0
10 53 62 63 62 16 0 35 -26 42 -61 4 -19 12 -40 17 -46 6 -7 8 -19 5 -27 -3
-7 -2 -17 3 -22 4 -5 4 -34 0 -64 -4 -30 -5 -61 -3 -67 3 -7 -2 -16 -12 -19
-9 -4 -14 -13 -11 -20 3 -8 1 -14 -4 -14 -5 0 -7 -7 -4 -15 4 -9 0 -15 -10
-16 -9 -1 -20 -3 -26 -4 -5 -1 -16 -3 -22 -5 -7 -1 1 -6 17 -11 41 -13 76 -4
68 18 -4 10 -2 14 4 10 7 -4 16 7 23 27 21 64 13 191 -16 247 -7 15 -11 29 -8
32 3 3 -2 19 -10 35 -11 22 -13 38 -7 54 l9 23 10 -25 c10 -28 35 -156 32
-166 -1 -4 6 -12 15 -17 14 -8 15 -11 4 -18 -12 -7 -11 -9 1 -9 9 0 27 -24 42
-55 15 -30 25 -55 23 -55 -17 0 -53 25 -45 30 13 8 -4 60 -20 60 -7 0 -7 -6 0
-21 7 -11 9 -27 6 -35 -9 -24 4 -42 27 -37 l22 6 -22 -22 c-13 -12 -23 -27
-22 -34 0 -8 2 -9 5 -1 3 7 15 9 27 6 19 -5 20 -3 9 10 -8 10 -9 18 -3 22 15
10 34 -32 27 -59 -3 -13 -1 -27 5 -30 6 -4 -1 -13 -16 -21 -31 -16 -48 -19
-25 -4 12 8 12 10 -5 10 -11 0 -31 3 -45 5 -22 5 -22 4 5 -10 28 -14 29 -15 5
-13 -21 3 -25 -1 -26 -22 -1 -52 -6 -54 -24 -12 -15 33 -25 42 -43 42 -16 0
-26 -7 -30 -20 -3 -11 -12 -20 -21 -20 -20 0 -20 -18 0 -88 13 -43 29 -69 70
-110 30 -31 54 -57 54 -59 0 -2 8 -15 17 -30 20 -31 24 -44 28 -101 4 -41 69
-191 107 -242 10 -14 21 -39 24 -55 6 -35 10 -40 31 -40 9 0 19 -7 21 -15 4
-12 3 -13 -10 -2 -13 10 -16 9 -21 -9 -3 -12 -1 -31 5 -42 16 -30 15 -157 -2
-167 -9 -5 -11 -20 -7 -45 5 -31 3 -36 -10 -31 -10 4 -14 2 -10 -8 11 -28 -24
-26 -54 3 -16 16 -29 24 -29 18 -1 -7 -14 4 -31 23 -24 29 -27 36 -13 38 8 2
22 -6 30 -17 9 -12 22 -21 30 -21 16 0 19 16 4 25 -5 3 -10 15 -10 27 0 16 -3
18 -13 9 -11 -8 -20 -4 -40 19 -15 17 -25 30 -21 30 3 0 -1 7 -9 15 -9 8 -17
20 -20 27 -2 7 -8 10 -12 6 -4 -4 -2 -14 5 -23 7 -8 10 -22 6 -30 -3 -8 -1
-15 5 -15 19 0 38 -26 29 -41 -7 -11 -10 -10 -16 5 -5 12 -9 14 -14 6 -5 -8
-15 1 -29 24 -26 41 -35 46 -26 14 5 -18 3 -17 -10 5 -9 15 -20 25 -25 22 -6
-4 -10 1 -10 10 0 12 -6 15 -19 10 -17 -5 -19 -1 -18 28 2 29 13 51 31 60 8 3
35 -37 30 -45 -2 -4 1 -10 7 -14 8 -5 9 -3 4 6 -5 9 -4 11 4 6 6 -4 9 -11 6
-16 -3 -5 -1 -11 4 -15 6 -3 17 6 26 19 17 26 14 73 -7 106 -9 15 -7 -2 9 -67
5 -24 4 -26 -9 -16 -8 7 -17 11 -20 8 -2 -3 -5 2 -5 10 0 8 4 15 9 15 4 0 8 5
8 11 0 8 -4 8 -15 -1 -20 -17 -38 -4 -25 20 15 27 12 32 -10 18 -11 -7 -20
-17 -20 -23 0 -6 -9 -18 -20 -28 -11 -9 -17 -23 -14 -32 4 -8 1 -15 -5 -15 -6
0 -11 6 -11 13 0 8 -3 8 -9 -2 -5 -8 -16 -11 -24 -8 -10 4 -16 -2 -20 -19 -3
-16 0 -24 9 -24 8 0 14 -10 14 -22 l0 -22 -17 24 c-9 13 -18 33 -19 44 -1 12
-5 32 -10 46 -4 14 -8 58 -8 97 -1 40 -4 65 -8 55 -4 -11 -7 -3 -7 21 -1 48
15 40 29 -14 11 -38 12 -40 25 -23 13 18 14 16 15 -16 0 -27 -3 -32 -11 -20
-9 13 -10 13 -6 0 2 -8 10 -14 16 -13 6 2 11 -6 11 -16 0 -11 5 -23 12 -27 8
-5 9 -2 4 12 -4 10 -10 40 -13 66 -3 27 -12 53 -19 59 -8 6 -14 18 -14 25 0 8
-4 14 -10 14 -13 0 -13 37 -1 45 6 3 15 -3 21 -12 11 -17 11 -17 6 0 -3 10 -6
23 -6 29 0 6 -7 5 -16 -3 -20 -16 -31 -1 -40 54 -8 47 -34 51 -33 5 1 -31 1
-32 9 -8 7 21 8 22 9 5 1 -11 4 -30 7 -41 4 -16 0 -23 -15 -27 -14 -3 -21 -13
-20 -29 1 -23 1 -23 9 2 7 24 7 23 13 -10 3 -19 9 -54 12 -78 5 -41 4 -43 -17
-37 l-23 6 23 -17 c12 -9 22 -24 22 -33 0 -14 -2 -14 -10 -1 -5 8 -12 11 -17
7 -4 -4 -1 -17 6 -29 7 -11 8 -18 3 -14 -5 3 2 -16 14 -42 13 -26 24 -54 24
-62 0 -8 10 -33 21 -55 12 -22 18 -37 14 -33 -5 4 -14 3 -21 -3 -10 -8 -16 -5
-25 15 -7 14 -17 26 -22 26 -5 0 -2 -11 6 -24 15 -22 14 -25 -8 -44 -25 -22
-36 -13 -27 21 4 15 7 16 13 5 7 -10 9 -9 9 5 0 9 -7 17 -15 17 -8 0 -15 -8
-15 -18 0 -10 -6 -26 -12 -35 -11 -15 -13 -13 -13 18 0 19 -4 35 -10 34 -5 0
-13 17 -16 38 -7 38 -7 37 -5 -7 1 -32 5 -44 14 -42 17 3 12 -30 -5 -35 -6 -2
-13 4 -16 14 -3 10 -5 4 -6 -14 0 -17 -6 -35 -13 -39 -7 -4 -8 -3 -4 4 4 7 2
12 -3 12 -10 0 -16 -21 -12 -42 2 -12 -13 -10 -26 3 -13 13 -76 -28 -70 -46 2
-5 -7 -21 -20 -34 -21 -22 -23 -22 -23 -5 0 16 -2 17 -11 4 -8 -11 -9 -8 -4
13 4 19 2 26 -5 22 -5 -3 -10 -19 -10 -35 0 -44 27 -46 69 -6 42 40 88 66 106
60 10 -4 10 -14 -1 -50 -13 -45 -10 -79 7 -68 5 3 9 17 9 32 0 19 3 23 9 13
12 -18 48 -5 56 20 4 10 14 23 24 29 16 8 17 5 10 -43 -9 -54 -4 -87 12 -87 5
0 7 11 3 25 -5 20 -3 24 10 19 18 -7 40 12 50 44 4 12 19 30 34 41 31 22 50
16 90 -27 13 -13 29 -21 37 -18 18 6 20 -5 4 -21 -8 -8 -21 0 -46 28 -19 21
-43 39 -52 38 -13 0 -14 -2 -1 -6 8 -4 30 -24 49 -45 19 -22 48 -47 65 -55 17
-9 25 -18 19 -20 -18 -6 -16 -23 2 -23 8 0 15 -6 15 -14 0 -8 7 -17 16 -20 26
-10 28 -7 9 14 -26 28 -3 25 24 -4 22 -23 22 -23 1 -29 -13 -3 -18 -10 -14
-21 5 -12 0 -16 -22 -16 l-29 -1 23 -18 c29 -25 28 -35 -3 -27 -27 7 -32 -3
-13 -22 9 -9 9 -12 1 -12 -7 0 -15 4 -18 10 -3 5 -11 10 -17 10 -7 0 -6 -6 2
-15 15 -17 7 -19 -21 -5 -10 6 -19 16 -19 23 0 7 -9 18 -20 25 -11 7 -20 19
-20 27 0 8 -4 15 -10 15 -14 0 -12 -12 7 -40 l16 -25 -29 26 c-16 14 -37 29
-46 32 -10 4 -18 17 -18 29 -1 23 -1 23 -15 -2 l-14 -25 -1 25 c-1 14 -4 19
-7 13 -9 -23 -25 -14 -18 10 6 21 6 21 -9 3 -9 -11 -16 -15 -16 -9 0 6 -11 10
-25 8 -16 -1 -25 3 -25 11 0 17 -16 18 -24 2 -5 -11 -7 -11 -12 0 -3 6 -15 12
-25 12 -11 0 -17 -4 -14 -10 9 -14 -8 -12 -24 3 -11 10 -13 8 -8 -10 6 -27 4
-28 -17 -7 -10 10 -16 11 -16 3 0 -9 -4 -8 -15 1 -18 15 -20 -1 -3 -18 17 -17
-4 -15 -30 4 -24 16 -30 7 -9 -15 6 -8 0 -6 -15 4 -15 9 -26 21 -23 25 3 5 0
12 -6 16 -8 4 -9 -3 -4 -24 6 -28 3 -32 -19 -38 -14 -3 -33 -4 -41 0 -8 3 -15
1 -15 -3 0 -5 6 -11 13 -14 6 -2 -1 -8 -17 -12 -20 -5 -31 -4 -37 6 -6 10 2
19 31 33 48 24 50 31 9 34 -21 2 -29 -1 -26 -10 2 -7 -12 -22 -32 -33 -37 -21
-54 -55 -27 -55 8 0 18 -4 21 -10 4 -6 -1 -7 -11 -3 -13 5 -15 3 -9 -7 5 -9 4
-11 -4 -6 -14 9 -51 -2 -51 -14 0 -5 8 -7 18 -4 14 5 15 4 2 -5 -8 -6 -25 -11
-37 -11 -13 0 -23 -4 -23 -10 0 -16 26 -12 87 16 32 15 70 26 85 25 17 -1 39
9 60 28 38 33 179 81 238 81 22 0 54 -8 72 -18 18 -10 47 -21 65 -25 17 -3 65
-29 107 -58 65 -43 85 -52 131 -55 52 -4 55 -3 55 20 0 13 7 27 16 30 9 4 14
13 10 21 -4 10 1 15 14 15 21 0 27 15 10 25 -6 4 -17 21 -24 40 -8 18 -25 39
-38 46 -12 7 -39 26 -59 42 -34 29 -35 32 -22 57 16 33 1 86 -27 95 -10 3 -20
14 -23 24 -4 16 0 19 28 16 37 -3 38 3 12 54 -24 48 -14 50 17 5 14 -21 22
-41 18 -44 -19 -13 -5 -35 25 -38 21 -2 30 -8 27 -16 -9 -24 74 -165 88 -150
3 2 3 -7 0 -22 -4 -20 -2 -25 8 -19 9 5 11 4 6 -3 -13 -22 31 -100 71 -125 39
-25 105 -42 116 -31 3 3 -1 17 -10 30 -21 33 -8 30 22 -3 17 -21 27 -25 35
-17 9 9 5 13 -14 18 -14 3 -26 11 -26 16 0 13 27 13 35 0 4 -6 11 -7 17 -4 6
4 14 0 19 -7 8 -12 11 -12 20 1 14 20 4 144 -20 243 -10 42 -15 78 -12 78 30
7 48 4 48 -7 0 -10 -5 -10 -21 -2 -21 11 -21 11 -2 -10 18 -21 20 -21 32 -4
18 23 17 39 -1 46 -8 3 -15 10 -15 15 0 6 7 8 15 5 10 -4 15 0 15 11 0 9 -4
14 -9 10 -6 -3 -6 7 0 27 11 38 3 121 -16 158 -24 49 -50 246 -34 256 21 13
-6 163 -58 323 -17 49 -121 191 -142 191 -4 0 -28 16 -53 35 -41 32 -46 40
-51 88 -3 35 -23 90 -56 159 -28 59 -54 128 -58 155 -3 26 -11 59 -18 73 -23
48 -25 98 -4 145 21 47 19 81 -7 123 -18 27 -32 27 -66 -1z m41 -20 c-11 -9
-14 -20 -8 -39 4 -16 3 -28 -1 -28 -5 0 -7 -18 -5 -40 2 -22 -1 -40 -6 -40 -5
0 -9 7 -9 15 0 9 -6 12 -15 8 -14 -5 -14 -8 1 -24 16 -18 16 -19 0 -19 -9 0
-20 8 -23 18 -9 22 -29 42 -42 42 -14 0 35 79 63 102 12 10 30 18 41 17 18 0
18 -1 4 -12z m-700 -150 c13 -29 20 -55 15 -65 -5 -13 -10 -8 -18 21 -7 21
-15 35 -19 30 -5 -4 -5 0 -1 10 3 9 2 17 -3 17 -5 0 -10 19 -10 43 -1 32 1 36
6 17 4 -14 17 -47 30 -73z m50 -169 c-12 -23 -12 -23 9 -5 20 18 21 18 46 0
18 -13 25 -24 21 -40 -4 -17 -1 -20 18 -17 22 5 22 5 1 -5 -30 -13 -36 -25
-36 -77 -1 -24 -6 -44 -12 -45 -20 -1 39 -22 74 -27 19 -2 37 -6 40 -8 8 -9
-84 -1 -102 8 -11 5 -18 5 -18 0 0 -29 84 -63 94 -37 3 8 12 12 19 9 8 -3 17
2 20 10 4 9 15 16 25 16 10 0 23 5 30 12 8 8 12 8 12 1 0 -16 -28 -36 -40 -28
-6 4 -9 1 -8 -6 2 -7 -8 -16 -22 -20 l-25 -7 28 -1 c15 -1 27 -7 27 -13 0 -17
-17 -43 -27 -43 -15 0 -54 -33 -57 -46 -4 -27 -18 -39 -44 -39 -25 0 -23 4 33
56 33 31 51 52 40 49 -49 -17 -61 -18 -47 -4 18 19 15 26 -10 25 -12 0 -24 -8
-26 -16 -5 -13 -3 -13 13 0 17 14 18 13 8 -4 -13 -23 -47 -32 -39 -10 3 8 1
14 -5 14 -6 0 -7 5 -3 12 4 7 3 8 -5 4 -6 -4 -9 -11 -6 -16 3 -4 -7 -5 -22 -1
-21 5 -29 15 -31 34 -2 15 -8 27 -14 27 -6 0 -7 15 -4 38 4 20 8 55 11 77 3
22 9 55 14 73 5 17 8 32 5 32 -3 0 0 9 6 20 6 11 13 20 16 20 2 0 -1 -10 -7
-22z m191 -119 l25 -20 -30 7 c-16 4 -34 9 -40 12 -5 4 -26 5 -45 4 -34 -2
-34 -2 -12 11 29 17 70 11 102 -14z m367 -4 c8 -22 -26 -55 -56 -55 -14 1 -41
9 -60 19 -33 17 -34 19 -13 25 17 6 27 2 41 -15 16 -20 21 -21 35 -10 9 7 16
22 16 32 0 23 28 25 37 4z m-434 -33 c-7 -27 21 -46 46 -32 12 6 21 17 21 25
0 9 6 12 15 9 15 -6 15 -38 0 -51 -4 -5 -5 -2 -1 5 8 14 -10 17 -19 2 -3 -5
-24 -10 -45 -10 -41 0 -67 26 -56 56 8 22 45 18 39 -4z m-197 -49 c-3 -14 -10
-31 -16 -37 -8 -8 -10 -3 -6 16 5 29 14 48 22 48 2 0 2 -12 0 -27z m2 -50 c-1
-5 4 -21 11 -37 6 -16 8 -38 5 -50 -4 -11 -7 -23 -6 -26 0 -3 -4 -11 -10 -17
-7 -9 -7 -17 0 -26 8 -9 8 -23 2 -43 l-10 -29 5 32 c2 18 0 35 -5 38 -6 3 -10
-3 -10 -14 0 -12 -4 -21 -10 -21 -13 0 -13 16 0 40 7 13 6 27 -2 45 -9 20 -9
28 2 38 10 10 12 9 7 -6 -5 -12 -3 -16 5 -11 8 5 9 1 4 -12 -6 -15 -5 -16 5
-7 9 9 8 18 -5 38 -9 14 -13 31 -9 38 4 7 8 15 9 20 3 15 4 17 9 17 3 0 4 -3
3 -7z m484 -107 c-3 -6 -5 -18 -4 -27 3 -17 -24 -29 -63 -29 -16 0 -17 2 -6 9
8 5 20 7 27 4 6 -2 15 0 19 6 3 6 2 11 -4 11 -6 0 -7 8 -4 18 6 14 4 15 -9 4
-10 -8 -19 -9 -22 -3 -7 11 9 18 46 18 17 0 25 -4 20 -11z m408 -30 c0 -8 7
-16 15 -20 8 -3 15 -18 15 -33 1 -28 1 -28 13 -6 l12 23 14 -22 c11 -19 11
-23 -3 -33 -14 -11 -15 -14 -1 -25 15 -13 21 -50 8 -50 -17 1 -113 98 -113
114 0 23 25 20 43 -6 9 -13 16 -17 16 -11 1 7 -12 25 -29 39 -30 27 -31 44 -4
44 8 0 14 -6 14 -14z m-60 -11 c12 -15 10 -51 -5 -90 -7 -16 -6 -18 5 -8 11
10 17 9 32 -4 10 -9 18 -21 18 -27 0 -6 -5 -4 -11 4 -9 13 -10 13 -6 0 2 -8
10 -14 16 -12 6 1 11 -3 11 -9 0 -7 9 -9 21 -6 28 8 36 -20 16 -55 -9 -15 -12
-28 -7 -28 6 0 10 5 10 12 0 6 3 8 6 5 4 -4 1 -13 -6 -22 -9 -11 -9 -19 -2
-28 14 -16 24 -89 12 -82 -5 3 -7 13 -4 23 5 14 3 14 -10 -2 -8 -10 -13 -23
-10 -27 3 -5 0 -9 -5 -9 -17 0 -13 31 6 52 13 14 14 21 5 30 -9 9 -15 9 -24
-1 -11 -10 -10 -11 5 -6 10 4 17 2 17 -4 0 -20 -30 -24 -44 -6 -10 13 -15 15
-21 6 -4 -7 2 -22 15 -36 13 -14 20 -31 16 -40 -3 -9 -2 -14 2 -12 15 8 47 20
57 21 12 1 19 93 8 109 -8 11 -8 23 -4 69 1 17 2 17 22 0 11 -9 25 -26 31 -36
8 -16 7 -18 -6 -13 -9 4 -16 2 -16 -3 0 -6 5 -10 10 -10 13 0 13 -37 1 -44
-12 -8 -3 -64 15 -91 15 -23 10 -35 -13 -35 -8 0 -11 5 -8 10 3 6 1 10 -4 10
-6 0 -11 -11 -11 -24 0 -14 -5 -28 -12 -32 -7 -5 -9 -2 -5 9 3 9 0 18 -9 21
-21 8 -17 21 11 36 14 7 25 17 25 22 0 8 -27 -8 -68 -38 -2 -1 4 -16 14 -33
12 -20 25 -29 38 -28 16 2 21 -4 21 -22 0 -13 -6 -26 -14 -29 -9 -3 -11 1 -6
17 5 16 3 20 -8 15 -9 -3 -22 4 -32 18 l-17 23 6 -35 c3 -18 10 -36 14 -40 14
-10 42 -59 42 -75 0 -9 -9 -15 -25 -15 -21 0 -30 11 -57 68 -18 37 -31 76 -30
87 2 15 1 16 -6 7 -7 -11 -10 -10 -16 3 -3 9 -4 21 -1 26 14 21 -25 123 -65
170 -24 28 -38 54 -34 61 5 8 2 9 -9 5 -10 -3 -17 -2 -17 4 0 16 31 23 41 8 7
-11 9 -11 9 2 0 9 7 19 15 23 8 3 15 10 15 15 0 5 -12 3 -27 -5 -35 -17 -43
-18 -43 -1 0 7 8 13 18 14 47 3 62 8 62 20 0 6 -4 15 -10 18 -5 3 -10 1 -10
-5 0 -6 -4 -8 -10 -5 -6 4 -5 13 3 25 11 19 12 19 19 -1 6 -17 10 -18 22 -7
12 11 12 16 -3 33 -44 52 -45 55 -18 55 13 0 30 -7 37 -15z m-113 -7 c-2 -7
10 -23 27 -35 16 -13 26 -24 20 -25 -28 -4 -40 -3 -46 6 -4 6 -2 14 5 18 8 5
6 8 -5 8 -20 0 -21 2 -12 24 7 19 18 22 11 4z m303 -83 c14 -16 17 -23 7 -16
-15 12 -20 12 -30 1 -8 -8 -8 -11 -1 -7 7 4 18 0 25 -9 10 -13 10 -17 0 -24
-16 -9 -6 -30 13 -30 8 0 16 9 19 21 8 29 27 15 21 -16 -3 -16 3 -32 16 -45
11 -11 20 -29 20 -39 0 -11 5 -23 10 -26 12 -7 14 -85 2 -85 -14 0 -42 69 -42
103 l0 32 -13 -25 c-11 -21 -10 -30 5 -56 10 -17 16 -39 12 -48 -5 -12 -2 -15
11 -10 12 5 16 3 14 -5 -3 -7 -7 -11 -10 -9 -2 2 -24 -12 -47 -31 -24 -18 -46
-30 -50 -26 -4 3 1 11 11 16 22 13 21 48 -2 78 -19 25 -17 65 3 58 16 -5 14
-33 -2 -29 -8 1 -11 -2 -7 -7 3 -6 12 -8 19 -5 20 8 25 62 9 82 -8 9 -11 11
-7 3 5 -9 3 -12 -5 -7 -6 4 -9 12 -5 17 3 5 -2 21 -11 36 -9 14 -18 35 -20 47
-1 11 -6 29 -10 39 -5 12 -2 17 9 17 13 0 15 4 6 19 -12 23 -13 39 -2 26 4 -6
18 -23 32 -40z m-306 9 c12 -12 16 -12 16 -2 0 10 3 9 10 -2 16 -25 12 -30
-22 -23 -26 5 -30 4 -25 -10 3 -9 1 -19 -5 -23 -6 -4 -8 -3 -4 4 3 6 -2 15
-11 21 -17 9 -17 10 -1 16 9 4 14 13 11 21 -7 19 12 18 31 -2z m463 -370 c8
-29 13 -58 11 -65 -3 -8 -9 3 -13 23 -4 21 -11 35 -16 33 -4 -3 -6 -11 -3 -18
2 -7 -2 -21 -10 -32 -9 -11 -16 -15 -16 -8 0 6 5 15 10 18 16 10 12 23 -10 30
-15 5 -20 15 -19 43 0 37 6 32 23 -22 4 -10 9 -17 12 -14 2 3 0 18 -6 33 -6
17 -8 47 -3 74 l7 46 8 -45 c5 -25 16 -68 25 -96z m-93 20 c3 -9 3 -21 -1 -26
-3 -7 -1 -8 5 -4 7 4 12 1 12 -9 0 -9 4 -14 9 -11 17 11 19 -22 4 -45 -9 -12
-11 -19 -5 -15 6 4 16 -3 23 -16 12 -22 12 -22 28 -2 15 19 16 17 17 -41 1
-33 -3 -63 -9 -66 -6 -5 -4 -23 6 -53 l16 -45 -30 3 c-32 4 -37 -5 -14 -24 8
-7 15 -21 15 -32 0 -17 -3 -18 -15 -8 -8 7 -15 17 -15 23 0 5 -8 16 -17 23
-17 12 -15 14 15 26 17 7 32 16 32 20 0 4 -6 5 -13 2 -8 -3 -19 1 -25 8 -16
20 -19 70 -4 76 7 2 13 -2 12 -9 -1 -8 2 -25 6 -39 l8 -25 6 30 c4 19 0 38
-10 52 -15 21 -15 21 -36 2 -21 -19 -21 -19 -45 0 -20 16 -21 21 -10 35 11 13
11 19 1 31 -6 8 -9 19 -6 24 4 5 -3 9 -14 8 -25 -2 -33 -22 -14 -37 8 -7 14
-19 14 -27 0 -13 -3 -13 -17 -2 -15 11 -14 9 1 -9 11 -12 16 -25 12 -29 -11
-12 -46 40 -36 53 6 6 3 19 -7 34 -16 22 -15 24 9 45 13 11 23 26 20 33 -4 12
41 62 56 62 6 0 13 -7 16 -16z m6 -244 c0 -3 -6 -12 -12 -19 -11 -11 -10 -13
5 -8 9 4 17 5 17 3 0 -3 3 -13 7 -23 6 -16 5 -16 -10 -4 -9 7 -24 10 -33 7
-10 -4 -22 1 -30 11 -8 11 -13 13 -14 6 0 -15 -20 -18 -20 -4 0 17 42 24 52
10 7 -10 8 -8 4 6 -5 16 -1 21 14 21 11 0 20 -3 20 -6z m0 -119 c-1 -12 -5
-10 -20 8 -26 30 -26 49 0 26 11 -10 20 -25 20 -34z m-9 -32 c47 -51 15 -48
-36 4 -27 27 -42 47 -33 44 13 -4 16 -2 12 11 -3 11 1 8 13 -7 10 -13 30 -36
44 -52z m139 1 c0 -5 3 -17 7 -27 3 -10 -8 -1 -25 21 -39 47 -40 51 -7 30 14
-9 25 -20 25 -24z m-203 3 c12 -17 11 -22 -4 -34 -10 -7 -15 -10 -11 -5 4 5 0
22 -8 38 -18 35 0 36 23 1z m127 -33 c-13 -13 -49 24 -39 40 5 9 14 6 28 -9
15 -14 18 -24 11 -31z m50 14 c3 -9 6 -23 6 -31 0 -13 -3 -13 -15 -3 -16 13
-21 50 -6 50 5 0 12 -7 15 -16z m-597 -6 c6 -7 16 -30 22 -50 7 -21 18 -38 26
-38 7 0 18 -7 25 -15 7 -8 17 -12 24 -8 6 3 8 3 4 -2 -4 -4 -2 -15 5 -23 10
-13 9 -14 -12 -2 -14 7 -33 20 -43 30 -11 10 -28 15 -42 13 -17 -4 -28 2 -40
18 -20 29 -21 50 -1 23 8 -10 15 -15 15 -10 0 5 10 1 21 -10 20 -17 19 -14 -5
34 -24 47 -23 70 1 40z m481 -28 c3 -7 23 -31 45 -52 22 -21 38 -40 35 -44 -6
-5 -118 99 -118 109 0 11 34 -1 38 -13z m-391 -77 c-9 -8 -27 26 -32 58 -5 33
-5 33 15 -10 11 -24 19 -46 17 -48z m498 57 c10 -11 16 -20 14 -21 -2 0 -15
-2 -28 -5 -26 -5 -54 13 -45 28 3 5 14 2 25 -8 20 -18 27 -6 7 14 -7 7 -8 12
-2 12 6 0 19 -9 29 -20z m-467 -52 c17 -31 25 -55 19 -52 -13 5 -57 87 -57
106 0 15 2 12 38 -54z m508 37 c-2 -7 1 -19 7 -26 8 -8 5 -8 -7 1 -18 14 -19
13 -13 -4 4 -10 3 -34 -3 -52 -9 -26 -16 -32 -35 -29 -27 2 -55 22 -55 38 0 5
10 2 21 -9 16 -14 23 -16 26 -6 4 10 8 10 21 0 14 -12 14 -10 3 10 -14 26 -5
45 9 22 6 -9 10 -10 10 -3 0 6 -5 15 -11 19 -8 4 -8 9 0 17 6 6 11 19 11 30 0
10 5 15 11 12 6 -4 8 -13 5 -20z m-185 -34 c7 11 9 10 9 -4 0 -11 4 -15 12
-11 7 5 9 2 5 -9 -3 -9 -1 -17 4 -19 6 -2 12 -24 14 -48 3 -25 2 -36 -1 -25
-11 39 -19 33 -20 -15 -1 -32 3 -47 10 -44 7 3 12 -6 13 -18 2 -18 0 -20 -7
-8 -8 12 -10 11 -11 -5 0 -20 0 -20 -10 0 -8 16 -9 15 -5 -10 3 -16 8 -38 11
-47 5 -13 2 -18 -9 -18 -10 0 -13 -6 -10 -15 4 -8 2 -15 -4 -15 -6 0 -8 -18
-6 -42 3 -31 2 -37 -4 -23 -12 26 -14 182 -3 189 11 7 2 54 -12 63 -6 4 -8 -4
-4 -23 3 -16 1 -48 -5 -70 -7 -29 -7 -48 1 -62 10 -20 10 -20 -19 -5 -17 8
-30 15 -31 16 0 1 -3 32 -6 68 -3 43 -1 69 6 73 6 4 11 0 12 -11 3 -91 6 -123
12 -129 3 -4 5 32 4 80 -2 47 0 86 4 86 4 0 13 30 20 68 8 42 15 58 17 43 3
-19 6 -21 13 -10z m-193 -126 c1 -25 -1 -27 -9 -12 -6 9 -8 21 -5 26 3 5 -1
14 -9 21 -8 7 -15 9 -15 5 0 -4 -6 -2 -14 5 -8 6 -13 17 -10 25 3 7 1 16 -5
20 -6 3 -11 12 -11 18 0 7 17 -8 39 -33 25 -29 38 -55 39 -75z m-196 84 c7 -8
18 -27 23 -43 8 -22 37 -51 51 -51 1 0 4 -10 8 -21 9 -31 -22 -26 -58 8 -16
15 -32 25 -37 22 -5 -3 -9 3 -9 13 0 10 -4 14 -8 8 -4 -5 -16 -15 -27 -21 -11
-6 -30 -26 -43 -45 -26 -38 -42 -48 -42 -26 0 9 -5 17 -11 19 -14 5 12 61 44
96 11 12 16 22 9 22 -6 0 -20 -12 -31 -26 -12 -15 -21 -21 -21 -15 0 7 -11 0
-24 -16 -20 -23 -26 -25 -39 -14 -13 11 -18 8 -32 -19 -9 -18 -19 -29 -22 -27
-3 3 2 20 10 36 15 30 15 31 -6 31 -21 0 -21 1 3 20 14 11 30 20 35 20 7 0 7
-3 0 -8 -11 -8 -18 -32 -9 -32 3 0 26 14 51 31 76 52 156 69 185 38z m510 -74
c11 -45 -3 -52 -18 -9 -17 48 -17 47 -2 42 7 -3 15 -17 20 -33z m-287 4 c-4
-5 0 -9 7 -10 9 0 9 -2 2 -5 -7 -3 -10 -15 -7 -27 4 -19 3 -19 -6 -5 -12 18
-11 69 1 62 5 -3 6 -10 3 -15z m36 -56 c2 -28 2 -28 7 -3 4 22 6 20 17 -19 14
-44 10 -76 -6 -65 -5 3 -6 17 -3 31 5 18 3 24 -5 19 -10 -7 -31 30 -31 55 0
23 20 6 21 -18z m274 -43 c4 -6 8 -41 9 -78 2 -37 4 -71 6 -77 1 -5 2 -20 1
-32 -1 -27 -24 -21 -39 10 -6 12 -11 16 -11 9 -1 -7 -5 -10 -11 -7 -5 3 -9 25
-9 48 l2 42 7 -35 7 -35 2 38 c1 34 3 37 21 27 24 -13 26 4 5 65 l-14 40 5
-40 c3 -30 2 -35 -5 -20 -10 20 -10 20 -11 0 -1 -20 -1 -20 -10 0 -8 18 -9 18
-9 -5 -1 -20 -3 -22 -11 -10 -5 8 -9 31 -9 50 1 32 2 33 9 10 7 -22 8 -22 9
-4 1 11 4 24 7 27 8 7 40 -8 49 -23z m-328 -198 c-10 -2 -16 -10 -15 -17 2 -8
-1 -13 -7 -12 -5 1 -11 10 -12 20 -2 12 1 16 9 11 8 -5 9 -2 5 10 -6 14 -4 15
16 4 19 -11 20 -13 4 -16z m-783 2 c13 -34 3 -36 -44 -6 -5 3 21 22 31 22 4 0
10 -7 13 -16z"/>
<path d="M1733 1711 c3 -13 0 -18 -8 -15 -15 6 -28 -23 -15 -31 6 -4 10 -15
10 -27 0 -19 -1 -19 -21 3 l-20 24 16 -27 c19 -30 35 -28 51 6 10 21 9 23 -5
18 -13 -4 -14 -3 -5 9 14 19 16 59 2 59 -6 0 -8 -9 -5 -19z"/>
<path d="M1774 1688 c3 -7 9 -21 12 -30 7 -19 24 -25 24 -9 0 5 3 17 7 27 4
11 3 15 -5 10 -6 -3 -13 -2 -17 4 -9 14 -28 12 -21 -2z"/>
<path d="M1783 1453 c9 -11 17 -30 17 -42 0 -12 7 -29 15 -37 13 -14 15 -12
14 18 0 18 -3 27 -6 19 -4 -9 -10 -3 -17 19 -6 18 -18 36 -26 38 -12 4 -11 1
3 -15z"/>
<path d="M1964 1388 c-4 -6 -2 -14 4 -16 7 -2 10 -7 8 -11 -3 -4 4 -7 14 -8
17 -1 18 1 8 23 -12 26 -23 30 -34 12z"/>
<path d="M1928 1323 c-7 -9 -3 -10 20 -4 27 8 31 6 46 -26 14 -29 15 -38 4
-52 -7 -10 0 -3 17 13 23 25 26 32 13 34 -9 2 -19 13 -22 25 -4 18 -12 23 -37
22 -17 0 -35 -5 -41 -12z"/>
<path d="M1951 853 c-1 -27 16 -73 26 -73 5 0 6 21 4 46 -2 27 -6 41 -11 34
-6 -10 -9 -9 -13 1 -3 8 -6 5 -6 -8z"/>
<path d="M1491 775 c-17 -20 -31 -39 -31 -43 1 -4 9 3 20 16 10 13 29 32 42
42 13 11 18 19 12 20 -7 0 -26 -16 -43 -35z"/>
<path d="M1496 2372 c-3 -6 0 -13 6 -15 8 -3 6 -6 -4 -6 -10 -1 -18 -5 -18
-11 0 -5 7 -7 16 -3 13 5 15 2 10 -14 -4 -14 -1 -23 9 -27 8 -3 15 -1 15 4 0
6 -6 10 -12 10 -8 0 -9 3 -3 8 6 4 10 15 10 24 0 22 -21 43 -29 30z"/>
<path d="M1263 2313 c-4 -10 -15 -29 -25 -42 -21 -28 -16 -41 18 -41 21 0 23
3 14 19 -13 25 -13 41 1 41 5 0 7 -4 4 -10 -3 -5 1 -10 9 -10 17 0 20 17 10
44 -8 21 -23 20 -31 -1z"/>
<path d="M1367 2303 c-11 -10 -8 -43 3 -43 6 0 10 5 10 10 0 19 17 10 28 -15
9 -20 9 -23 -3 -18 -8 3 -15 0 -15 -6 0 -6 -4 -11 -10 -11 -5 0 -10 7 -10 15
0 20 -26 19 -34 -1 -9 -22 -8 -24 9 -24 8 0 15 -7 15 -16 0 -8 -4 -12 -10 -9
-5 3 -10 -1 -10 -9 0 -19 26 -11 34 10 3 9 10 12 16 9 5 -3 7 0 4 8 -3 9 3 17
17 20 18 5 21 11 16 36 -4 18 -2 31 3 31 6 0 10 3 10 8 0 9 -65 14 -73 5z"/>
<path d="M1180 2255 c-10 -12 -10 -18 0 -30 7 -8 17 -12 22 -9 6 4 5 10 -3 16
-11 7 -11 11 -1 15 14 5 17 23 3 23 -5 0 -14 -7 -21 -15z"/>
<path d="M1298 2228 c4 -17 2 -20 -11 -15 -9 3 -19 2 -22 -3 -4 -6 -1 -10 4
-10 6 0 11 -5 11 -11 0 -5 -4 -7 -10 -4 -5 3 -10 1 -10 -4 0 -6 5 -11 11 -11
6 0 24 -9 40 -21 16 -11 35 -18 42 -16 7 4 6 6 -4 6 -9 1 -19 8 -23 16 -3 8
-13 15 -23 15 -11 0 -14 3 -7 8 18 12 26 59 10 65 -10 4 -12 0 -8 -15z"/>
<path d="M1340 2046 c0 -11 50 -100 50 -90 0 18 -29 82 -40 89 -5 3 -10 4 -10
1z"/>
<path d="M1150 1861 c0 -4 -9 -19 -20 -32 l-21 -23 22 -8 c13 -5 27 -4 36 4
12 10 17 9 24 -4 11 -19 60 -11 67 12 4 10 -4 12 -31 7 -25 -4 -39 -1 -48 9
-6 7 -16 11 -23 7 -8 -4 -8 -3 0 6 9 10 21 10 54 1 23 -6 44 -9 47 -6 3 3 -8
8 -23 11 -16 4 -41 11 -56 15 -16 5 -28 5 -28 1z"/>
<path d="M1396 1805 c-3 -8 -1 -15 4 -15 5 0 4 -14 -1 -33 -8 -29 -14 -68 -18
-117 -1 -13 -2 -13 -11 0 -13 20 -13 100 0 100 6 0 10 4 10 10 0 11 -28 9 -47
-3 -7 -5 -17 -5 -23 -2 -5 3 -10 1 -10 -4 0 -6 3 -11 8 -11 10 0 55 -100 48
-107 -3 -4 -6 -2 -6 4 0 5 -9 20 -20 33 -26 30 -26 16 1 -26 20 -33 21 -33 40
-15 17 15 37 98 39 154 0 5 6 5 13 1 9 -6 9 -5 0 7 -10 12 -10 18 -1 27 9 9 8
12 -4 12 -9 0 -18 -7 -22 -15z"/>
<path d="M1051 1770 c-12 -11 -27 -17 -32 -14 -5 3 -6 -2 -2 -12 5 -13 2 -15
-15 -9 -17 5 -22 2 -22 -12 0 -15 2 -16 11 -3 8 11 9 7 4 -17 -9 -44 2 -78 20
-63 9 8 14 6 19 -6 9 -24 7 -31 -5 -14 -8 11 -9 8 -4 -13 3 -16 2 -26 -3 -23
-5 3 -7 -9 -5 -27 2 -18 0 -25 -4 -17 -3 8 -10 18 -16 21 -5 4 -9 25 -9 48 0
22 -3 41 -9 41 -5 0 -9 -9 -9 -20 0 -11 -3 -20 -8 -20 -12 0 -32 -102 -26
-130 5 -22 4 -23 -6 -7 -7 11 -10 32 -8 48 3 16 1 29 -4 29 -20 0 1 -139 31
-205 10 -22 31 -67 45 -100 15 -33 35 -69 45 -80 11 -11 28 -39 40 -63 12 -24
37 -60 56 -80 18 -21 49 -61 69 -90 l35 -52 -43 -35 c-23 -19 -60 -42 -82 -51
-53 -22 -96 -53 -88 -65 3 -6 11 -5 17 4 7 8 19 17 28 20 12 4 15 -1 13 -20
-3 -33 -23 -45 -42 -27 -19 19 -34 14 -50 -19 -14 -29 -8 -67 10 -67 5 0 7 7
4 16 -9 22 10 43 33 37 10 -3 22 0 25 6 11 17 26 13 26 -7 0 -20 26 -60 33
-52 3 3 0 31 -6 62 -12 66 -6 77 68 128 56 38 82 45 88 23 3 -10 5 7 6 38 1
39 -4 60 -14 69 -20 17 -19 30 3 31 13 0 12 2 -6 9 -20 8 -21 12 -10 30 13 20
13 20 30 -2 9 -13 21 -39 27 -58 8 -30 9 -25 5 30 -2 44 -9 67 -19 73 -9 4
-13 12 -10 18 4 5 -1 9 -10 9 -11 0 -15 5 -12 14 3 8 2 16 -2 18 -5 2 -12 14
-16 27 -4 15 -3 21 3 17 6 -4 8 10 6 39 -3 33 -1 44 8 43 7 -2 13 6 13 17 0
11 4 26 8 33 5 8 2 12 -8 12 -11 0 -15 5 -12 14 3 8 -1 17 -9 20 -24 9 -29 7
-16 -6 7 -7 12 -28 12 -47 0 -33 -1 -34 -14 -15 -8 11 -16 33 -19 49 l-4 30
-2 -32 c0 -18 -6 -33 -12 -33 -6 0 -8 8 -4 19 3 12 0 21 -10 24 -9 4 -12 13
-9 24 5 15 4 16 -5 3 -9 -13 -11 -13 -11 0 -1 11 -3 11 -11 -3 -13 -22 4 -72
27 -81 8 -3 14 -10 14 -17 0 -6 -7 -8 -17 -5 -16 6 -16 6 0 -12 22 -24 22 -33
0 -25 -16 6 -16 5 0 -17 9 -14 17 -34 16 -45 0 -20 0 -20 -10 0 -7 16 -8 14
-3 -10 3 -16 10 -33 16 -36 6 -4 7 -17 3 -30 -4 -15 -3 -19 3 -11 6 9 11 6 20
-13 6 -14 16 -25 22 -25 6 0 8 -5 5 -10 -4 -6 -11 -7 -17 -4 -6 4 -6 -1 1 -14
13 -25 14 -35 2 -28 -4 3 -6 -7 -4 -22 4 -26 4 -27 -12 -7 -12 14 -15 31 -10
58 3 21 2 36 -3 33 -5 -3 -17 11 -26 31 -12 26 -20 33 -26 24 -6 -10 -10 -9
-19 5 -14 25 -14 11 0 -20 7 -14 16 -23 20 -20 5 3 6 -2 3 -10 -9 -23 -22 -10
-35 34 -7 22 -16 37 -20 34 -7 -4 6 54 13 62 6 5 35 -21 40 -36 4 -8 5 -1 5
17 -1 17 -5 29 -9 27 -9 -6 -21 34 -13 46 3 5 1 10 -4 10 -6 0 -11 7 -11 15 0
18 16 20 23 3 4 -10 6 -10 6 -1 1 6 -9 19 -21 27 -12 9 -19 16 -14 16 5 0 2 8
-6 18 -10 11 -15 31 -13 55 4 41 15 64 15 31 1 -19 1 -19 15 0 15 19 15 19 15
-5 0 -19 2 -21 10 -9 5 8 10 26 10 39 0 17 -4 22 -16 17 -13 -5 -15 -1 -10 19
4 16 2 25 -5 25 -6 0 -9 6 -6 14 3 9 -4 21 -19 30 -24 16 -24 16 -24 -14 0
-16 5 -30 11 -30 5 0 7 5 4 10 -3 6 -1 10 5 10 7 0 9 -7 6 -16 -3 -9 -6 -20
-6 -25 0 -5 -5 -8 -11 -6 -6 1 -14 -4 -17 -12 -3 -9 0 -11 8 -6 9 6 11 0 8
-21 -3 -16 -9 -38 -13 -48 -6 -14 -5 -17 3 -12 14 9 15 -3 2 -24 -8 -13 -10
-12 -11 5 -1 11 -1 32 0 47 1 14 -3 30 -10 34 -9 5 -10 2 -6 -10 4 -9 1 -26
-6 -37 -10 -16 -9 -21 2 -28 10 -6 12 -23 9 -60 -3 -33 0 -57 8 -70 8 -10 16
-36 19 -58 4 -35 4 -36 -7 -13 -7 14 -18 31 -25 38 -7 8 -11 18 -7 23 3 6 0
17 -8 26 -10 12 -10 17 -1 20 23 8 -13 72 -41 73 -4 0 -5 -7 -2 -16 3 -8 2
-12 -4 -9 -6 3 -10 18 -10 33 0 20 3 23 12 14 7 -7 18 -12 26 -12 9 0 5 7 -9
19 -20 16 -24 28 -24 79 0 43 3 58 12 55 8 -3 10 -15 6 -34 -6 -32 3 -79 16
-79 12 0 20 74 9 78 -4 2 -8 8 -8 13 0 6 8 5 20 -1 22 -12 27 3 10 30 -8 12
-10 12 -10 1 0 -11 -3 -11 -15 -1 -8 7 -15 9 -15 4 0 -5 -5 -2 -10 6 -9 13
-11 13 -20 0 -5 -8 -7 -24 -5 -35 3 -11 1 -45 -4 -75 -7 -48 -9 -50 -10 -17 0
20 -5 37 -10 37 -10 0 -2 91 10 104 4 5 4 17 -2 28 -15 28 4 22 36 -12 34 -35
43 -32 38 12 l-4 33 17 -29 c14 -26 18 -27 26 -12 5 9 6 26 2 39 -7 21 -7 21
-15 2 -5 -14 -8 -5 -8 30 0 28 4 57 9 65 8 12 10 12 10 1 0 -8 3 -12 6 -8 3 3
3 11 -2 18 -5 9 -10 8 -19 -5 -12 -15 -13 -15 -18 4 -3 11 -1 18 4 14 5 -3 14
7 21 21 11 24 13 25 19 8 7 -15 8 -16 8 -1 1 9 -6 24 -15 32 -14 15 -14 16 0
16 9 0 16 5 16 10 0 15 -12 12 -39 -10z m36 -472 c0 -7 4 -21 8 -30 5 -13 2
-18 -9 -18 -16 0 -23 40 -9 53 9 9 10 9 10 -5z m148 -56 c2 -12 7 -27 10 -32
3 -6 3 -10 -2 -10 -11 0 -10 -101 1 -119 6 -10 5 -12 -2 -7 -7 4 -12 2 -12 -3
0 -6 7 -11 15 -11 8 0 15 -4 15 -10 0 -13 -27 -13 -35 0 -3 5 -8 18 -10 27 -2
10 -7 29 -11 43 -6 23 -6 24 8 6 13 -17 14 -15 12 22 -1 22 -4 44 -6 48 -3 5
-6 27 -7 49 -2 42 15 40 24 -3z"/>
<path d="M1231 1749 c-10 -17 -10 -23 -1 -29 9 -6 8 -11 -2 -21 -11 -10 -13
-22 -7 -49 13 -53 9 -70 -6 -30 -12 32 -14 33 -14 9 -1 -14 8 -45 20 -68 16
-34 18 -45 8 -52 -10 -6 -10 -12 -1 -31 l12 -23 -6 25 c-10 39 12 11 26 -35 7
-22 15 -34 18 -26 4 11 6 11 14 0 8 -11 9 -10 5 3 -9 25 -18 95 -11 81 3 -7
12 -9 20 -6 9 3 14 -1 14 -13 0 -9 3 -15 6 -11 9 8 -6 48 -16 42 -4 -3 -11 11
-14 30 -9 44 -23 45 -29 3 -3 -18 -3 -9 -1 20 3 57 -1 64 -17 30 -10 -24 -8
-11 11 70 5 19 4 32 -2 32 -5 0 -6 5 -3 10 3 6 12 10 19 10 8 0 12 -18 13 -52
0 -29 6 -64 12 -78 10 -21 11 -17 5 25 -4 28 -8 62 -9 78 -1 15 -3 31 -4 37 0
5 -8 7 -18 3 -13 -5 -15 -2 -11 15 8 29 -13 29 -31 1z"/>
<path d="M1110 1740 c13 -9 12 -13 -6 -28 -20 -17 -20 -21 -8 -67 7 -28 13
-53 14 -57 0 -4 7 -5 15 -2 17 7 20 31 4 36 -8 3 -6 16 5 42 18 43 21 59 6 36
-5 -8 -12 -11 -16 -7 -4 3 -1 14 6 22 12 15 15 14 25 -6 7 -12 10 -31 7 -43
-3 -12 -2 -18 2 -14 4 3 9 23 10 43 3 31 0 38 -21 46 -13 5 -32 9 -41 9 -15 0
-15 -2 -2 -10z"/>
<path d="M1436 1673 c4 -26 2 -33 -10 -33 -18 0 -16 -42 2 -48 7 -2 12 -8 12
-13 0 -6 -4 -8 -9 -5 -4 3 -1 -10 8 -29 9 -20 24 -34 34 -35 21 0 21 9 3 46
-8 15 -13 31 -10 36 8 12 26 -2 21 -16 -2 -6 4 -19 14 -28 15 -14 18 -14 23
-2 3 8 10 14 17 14 6 0 9 -7 5 -15 -3 -8 -1 -15 4 -15 10 0 42 -98 35 -110 -2
-3 2 -7 10 -7 10 0 11 5 4 18 -11 22 9 38 23 18 7 -11 8 -9 5 6 -17 64 -17 68
-1 35 9 -19 18 -30 21 -23 2 6 -4 24 -13 38 -12 18 -14 29 -7 33 8 5 6 13 -4
27 -14 18 -15 18 -9 1 7 -20 -11 -49 -25 -41 -4 3 -5 13 -2 22 4 11 3 14 -5 9
-7 -4 -15 0 -19 11 -4 10 -14 23 -22 29 -13 10 -13 14 -2 28 19 23 4 20 -21
-4 -19 -17 -19 -20 -5 -20 9 0 17 -7 17 -16 0 -8 -4 -12 -10 -9 -6 3 -7 -1 -4
-9 3 -9 3 -16 0 -16 -4 0 -12 14 -18 31 -6 17 -16 28 -23 26 -6 -3 -18 -1 -26
4 -12 8 -11 12 4 23 9 7 17 19 17 27 0 12 -2 12 -9 0 -6 -10 -11 -6 -20 15
l-11 29 6 -32z"/>
<path d="M1396 1570 c13 -88 14 -110 4 -110 -5 0 -10 9 -10 19 0 11 -5 23 -10
26 -8 5 -7 11 1 21 9 11 7 14 -10 14 -18 0 -21 -4 -16 -20 3 -11 2 -20 -3 -20
-5 0 -12 -11 -14 -25 -3 -13 -1 -22 3 -19 5 3 9 -2 9 -10 0 -9 6 -16 14 -16 8
0 17 -6 19 -12 4 -8 8 -4 13 10 4 14 12 21 20 18 8 -3 11 0 7 10 -3 7 -1 14 4
14 6 0 9 14 8 30 -2 31 -14 54 -16 29 -1 -8 -7 6 -15 31 -11 37 -13 39 -8 10z"/>
<path d="M1160 1556 c0 -8 -4 -16 -8 -18 -5 -1 -4 -19 1 -38 9 -35 9 -35 19
-10 10 24 10 24 18 5 7 -16 9 -17 9 -3 1 9 4 24 7 33 4 9 3 15 -2 14 -21 -4
-26 2 -14 16 10 13 9 15 -9 15 -11 0 -21 -6 -21 -14z"/>
<path d="M1502 1507 c-10 -12 -10 -16 0 -19 10 -4 8 -9 -5 -22 -9 -10 -17 -13
-17 -7 0 6 -4 11 -9 11 -13 0 -7 -33 7 -38 6 -2 8 -10 5 -18 -3 -9 2 -14 16
-14 12 0 21 -4 21 -10 0 -5 -4 -10 -10 -10 -5 0 -10 -5 -10 -11 0 -6 6 -9 14
-6 8 3 16 -2 19 -14 6 -21 -8 -27 -16 -6 -3 7 -6 7 -6 1 -1 -6 10 -23 23 -37
15 -16 26 -43 30 -76 4 -27 11 -53 17 -57 8 -4 9 1 4 16 -4 13 -9 38 -10 57
-2 19 -6 37 -9 40 -3 3 1 11 7 18 13 14 37 2 37 -17 0 -6 -7 -5 -15 2 -20 17
-19 6 2 -15 13 -13 14 -18 3 -25 -9 -5 -11 -19 -6 -43 7 -39 30 -65 41 -47 4
6 12 5 22 -6 13 -13 18 -13 24 -2 7 11 11 10 18 -2 7 -10 6 -17 -2 -23 -9 -7
-9 -10 1 -14 6 -2 12 -9 12 -15 0 -23 33 -76 50 -81 16 -4 16 0 -6 52 -13 31
-29 64 -34 74 -6 10 -8 22 -5 26 3 5 -2 12 -11 15 -19 7 -14 28 8 32 10 1 18
-8 21 -25 7 -36 67 -164 74 -158 3 3 -2 18 -10 34 -31 61 -47 99 -51 118 -2
11 -8 33 -12 50 -6 26 -8 27 -15 10 -7 -19 -8 -19 -8 2 -1 12 -6 25 -12 29 -8
4 -9 -3 -4 -24 5 -23 2 -33 -11 -40 -11 -6 -13 -11 -5 -16 16 -10 14 -23 -4
-23 -10 0 -15 11 -15 34 0 24 -5 33 -16 33 -13 0 -14 3 -5 14 9 11 9 15 0 18
-7 2 -9 10 -5 17 6 9 11 9 22 0 19 -15 18 -11 -6 36 -11 22 -20 47 -20 57 0
10 -4 18 -10 18 -13 0 -13 -4 5 -47 19 -44 19 -43 -5 -43 -11 0 -20 5 -20 10
0 6 5 10 12 10 6 0 3 9 -7 20 -10 11 -15 20 -11 20 4 0 1 10 -6 23 -7 12 -12
27 -13 32 0 17 -26 57 -33 51 -3 -4 -11 5 -17 20 -9 23 -12 25 -23 11z m57
-99 c-13 -24 -29 -23 -29 2 0 11 5 20 11 20 6 0 8 9 4 23 -5 20 -5 20 9 -3 10
-17 11 -30 5 -42z m26 -35 c0 -6 3 -15 8 -19 16 -17 6 -23 -13 -7 -22 19 -27
47 -7 41 6 -3 12 -10 12 -15z"/>
<path d="M1700 1497 c0 -10 28 -77 32 -77 12 0 3 40 -13 60 -10 14 -19 21 -19
17z"/>
<path d="M1680 1450 c-8 -11 -20 -20 -27 -20 -7 0 -13 -5 -13 -11 0 -7 9 -9
21 -6 17 5 18 3 7 -11 -11 -13 -10 -15 9 -10 18 5 22 2 22 -15 0 -12 2 -33 6
-47 6 -23 5 -23 -8 -8 -8 10 -18 14 -22 10 -5 -4 -5 1 -2 11 4 9 2 17 -3 17
-5 0 -12 9 -15 21 -4 11 -9 18 -11 16 -8 -8 28 -87 37 -81 5 3 12 -2 15 -10 3
-9 10 -13 15 -10 5 3 9 0 9 -5 0 -6 5 -11 12 -11 6 0 8 3 5 7 -4 3 -3 11 2 17
15 20 22 48 9 40 -7 -5 -9 0 -5 15 3 15 -1 24 -14 31 -10 6 -19 18 -19 26 0 9
-5 12 -11 8 -9 -5 -10 1 -5 20 8 31 5 32 -14 6z"/>
<path d="M1300 1458 c0 -4 4 -18 10 -32 5 -14 6 -25 2 -25 -36 6 -40 0 -24
-36 16 -35 32 -46 32 -22 0 7 -5 18 -11 24 -8 8 -8 13 0 17 6 4 11 3 11 -3 0
-6 7 -8 16 -4 11 4 15 0 13 -13 -1 -10 2 -28 6 -38 6 -13 4 -21 -3 -24 -20 -6
-13 -51 14 -90 l25 -37 -6 30 c-6 29 -6 29 10 10 17 -20 17 -19 10 5 -4 14
-12 28 -18 31 -5 4 -7 14 -4 22 3 9 1 17 -6 20 -8 2 -6 11 6 30 18 28 24 72 8
63 -5 -4 -11 -3 -14 1 -4 9 0 -7 9 -34 8 -25 -43 35 -66 77 -11 19 -19 32 -20
28z"/>
<path d="M1740 1254 c0 -3 5 -15 12 -27 7 -12 21 -51 33 -86 23 -70 39 -86 49
-47 7 29 -2 57 -24 73 -9 6 -25 30 -35 52 -15 35 -35 54 -35 35z"/>
<path d="M1531 1207 c-1 -52 23 -109 44 -101 8 4 20 15 26 26 10 18 9 18 -11
8 -29 -16 -39 -4 -49 56 -8 47 -9 48 -10 11z"/>
<path d="M1320 1142 c0 -6 4 -13 9 -17 5 -3 13 -20 16 -38 11 -48 36 -107 46
-107 16 0 9 59 -12 96 -11 20 -18 43 -15 50 3 8 1 14 -3 14 -5 0 -16 3 -25 6
-9 3 -16 1 -16 -4z"/>
<path d="M1500 1075 c0 -11 5 -27 10 -35 6 -10 10 -11 10 -2 0 6 7 12 15 12 8
0 15 7 15 16 0 13 -3 14 -14 5 -11 -10 -17 -8 -25 6 -10 17 -10 17 -11 -2z"/>
<path d="M1859 993 c-1 -5 -1 -11 0 -15 0 -5 -6 -8 -14 -8 -8 0 -15 -5 -15
-11 0 -6 6 -9 14 -6 11 4 16 -3 18 -28 2 -26 6 -32 16 -26 15 9 7 101 -9 101
-5 0 -10 -3 -10 -7z"/>
<path d="M870 638 c-36 -17 -60 -33 -54 -35 11 -4 144 53 144 62 0 11 -29 3
-90 -27z"/>
</g>
</svg>
