<?xml version="1.0" standalone="no"?>
<!DOCTYPE svg PUBLIC "-//W3C//DTD SVG 20010904//EN"
 "http://www.w3.org/TR/2001/REC-SVG-20010904/DTD/svg10.dtd">
<svg version="1.0" xmlns="http://www.w3.org/2000/svg"
 width="300.000000pt" height="400.000000pt" viewBox="0 0 300.000000 400.000000"
 preserveAspectRatio="xMidYMid meet">
<metadata>
Created by potrace 1.10, written by Peter Selinger 2001-2011
</metadata>
<g transform="translate(0.000000,400.000000) scale(0.050000,-0.050000)"
fill="#000000" stroke="none">
<path d="M2404 7969 c-171 -54 -271 -144 -321 -287 -32 -93 -30 -96 27 -42 68
63 90 33 26 -35 -28 -30 -68 -82 -88 -115 -21 -33 -49 -72 -62 -86 -30 -31
-58 -134 -76 -279 -13 -96 -23 -113 -121 -197 -130 -111 -151 -179 -97 -320
66 -173 161 -245 248 -188 22 14 12 17 -32 8 -108 -21 -170 103 -78 152 55 29
56 72 3 67 -48 -4 -40 20 14 45 109 50 151 -22 150 -259 -1 -202 74 -515 147
-614 41 -55 36 -139 -8 -139 -14 0 -14 -8 -1 -25 11 -14 24 -68 30 -121 13
-125 195 -226 294 -165 12 8 21 -4 21 -28 0 -46 79 -226 211 -484 49 -95 89
-197 89 -226 0 -40 35 -88 137 -187 76 -74 163 -172 193 -219 l55 -84 80 48
c78 46 182 199 267 391 54 123 118 240 131 240 46 0 137 476 137 714 0 74 -6
87 -50 98 -68 17 -63 40 14 66 50 18 58 28 39 47 -19 19 -33 19 -63 -1 -58
-36 -60 -33 -60 75 l0 98 80 -1 c44 0 80 -10 80 -20 0 -11 14 -15 32 -8 48 19
74 -7 44 -44 -22 -27 -21 -30 9 -18 48 18 44 -20 -5 -46 -22 -12 -40 -30 -40
-41 0 -26 54 2 114 59 43 40 206 54 206 17 0 -32 -67 -91 -93 -81 -17 6 -27
-4 -27 -30 0 -45 57 -75 86 -46 20 20 134 -11 134 -38 0 -8 -40 -22 -90 -29
-59 -9 -90 -23 -90 -42 0 -16 -9 -29 -19 -29 -35 0 -101 -87 -101 -133 0 -72
33 -72 76 0 79 134 266 228 247 124 -8 -50 -54 -93 -103 -96 -29 -3 -40 -18
-40 -55 0 -29 -11 -63 -24 -76 -13 -13 -19 -28 -13 -34 19 -18 179 135 169
162 -7 17 1 22 22 14 22 -9 28 -5 18 11 -9 14 -2 23 16 23 23 0 29 -16 24 -62
-5 -40 3 -65 22 -72 24 -10 24 -15 3 -28 -21 -13 -21 -17 -2 -18 31 0 12 -101
-23 -125 -16 -10 -16 -14 0 -15 46 0 150 188 112 203 -22 10 -184 245 -184
268 0 39 -106 268 -121 259 -8 -5 -13 6 -12 24 2 22 -19 41 -57 52 -33 10 -73
25 -90 33 -16 8 -108 11 -204 8 -209 -7 -196 -24 -176 230 15 193 21 214 89
313 97 141 131 337 85 483 -17 53 -37 138 -45 187 -49 319 -184 540 -418 690
-117 75 -337 129 -304 74 8 -12 5 -27 -7 -34 -11 -7 -20 -2 -20 11 0 17 -25
21 -80 14 -53 -8 -80 -3 -80 12 0 14 -7 13 -18 -4 -13 -21 -26 -22 -58 -5 -56
30 -64 28 -65 -13 -2 -30 -4 -29 -18 5 -16 37 -18 38 -31 4 -14 -34 -16 -34
-41 1 -31 45 -111 50 -225 14z m551 -134 c19 -15 24 -44 16 -89 -10 -52 -6
-66 18 -66 17 0 31 -13 31 -28 0 -37 120 -65 140 -32 10 16 31 8 72 -30 36
-34 60 -44 65 -29 5 14 -6 33 -24 43 -35 19 -45 56 -16 56 30 0 97 -69 111
-115 9 -28 31 -45 57 -45 23 0 36 -6 29 -13 -8 -7 -3 -26 9 -41 18 -21 16 -24
-10 -14 -18 7 -33 3 -33 -8 0 -20 46 -44 83 -44 11 0 14 20 6 45 -12 42 -10
42 39 -9 62 -64 66 -83 14 -67 -22 7 -51 -1 -70 -20 -41 -41 -44 -39 42 -39
66 0 76 -7 93 -64 32 -110 8 -134 -86 -87 -44 23 -105 40 -135 39 l-56 -2 50
-16 c31 -10 -41 -17 -194 -18 -139 -1 -249 -11 -256 -22 -7 -11 5 -20 25 -20
21 0 48 -20 60 -45 34 -70 48 -155 26 -155 -11 0 -14 -15 -7 -33 9 -23 5 -29
-11 -19 -12 8 -23 27 -23 41 0 32 -138 61 -199 41 -69 -22 -46 27 27 58 100
42 98 152 -2 152 -35 0 -33 33 2 46 15 6 103 8 195 5 92 -3 145 -1 117 5 l-50
10 50 15 c34 10 4 16 -94 17 -121 2 -145 8 -155 39 -7 21 -50 53 -96 72 -47
19 -121 52 -165 73 -44 21 -92 38 -106 38 -15 0 -20 11 -12 25 11 20 8 20 -13
0 -15 -14 -56 -25 -92 -25 -35 0 -70 -8 -76 -18 -16 -26 -104 -39 -135 -19
-20 12 -20 16 -1 17 14 0 25 16 25 36 0 53 74 124 129 124 26 0 52 14 58 30 7
17 27 30 46 30 22 0 28 7 16 19 -12 11 -51 10 -104 -4 -120 -33 -160 6 -79 77
31 27 65 43 75 37 11 -6 19 -3 19 7 0 15 95 42 250 71 71 13 277 -8 305 -32z
m186 -96 c47 -24 52 -79 8 -79 -17 0 -26 8 -20 19 6 10 3 24 -9 31 -11 7 -20
-6 -20 -30 0 -35 -6 -38 -40 -20 -49 26 -52 74 -5 86 19 5 38 10 41 12 4 1 24
-7 45 -19z m-526 -439 c47 0 105 -60 105 -109 0 -24 8 -52 18 -62 37 -40 47
-109 13 -99 -104 33 -100 29 -59 59 36 27 36 29 -17 49 -30 12 -55 35 -55 52
0 16 -9 30 -20 30 -11 0 -20 -26 -20 -59 0 -63 -18 -74 -143 -89 -79 -9 -125
99 -64 150 13 12 20 33 15 47 -11 29 177 75 189 47 3 -9 21 -16 38 -16z m-309
-15 c-17 -43 -48 -68 -181 -145 -125 -72 -146 -75 -91 -15 23 25 52 66 65 92
17 32 37 44 63 37 21 -6 38 -4 38 3 0 13 73 55 104 61 8 1 9 -14 2 -33z m18
-160 c7 -112 11 -156 13 -180 3 -26 55 -25 98 2 17 10 25 2 25 -25 0 -28 9
-37 30 -29 39 15 38 -8 -2 -48 -26 -26 -40 -27 -70 -9 -59 37 -81 11 -42 -50
18 -28 204 5 204 37 0 11 16 15 36 8 27 -8 36 1 39 39 4 45 -1 49 -45 38 -40
-10 -48 -6 -39 18 8 19 -1 33 -25 38 -31 6 -28 13 20 44 85 57 187 23 177 -59
-13 -115 -102 -195 -258 -230 -133 -30 -297 171 -271 332 l12 71 -93 -51 c-51
-29 -93 -43 -93 -31 0 21 209 134 255 138 14 1 27 -23 29 -53z m1169 -39 c15
-6 27 -27 27 -48 0 -50 12 -48 84 12 32 28 74 49 93 49 28 -2 28 -4 3 -15 -84
-38 -113 -71 -104 -117 11 -61 40 -60 56 3 18 74 45 61 89 -42 48 -112 48
-122 4 -84 -96 84 -257 33 -182 -58 12 -14 16 -39 10 -56 -7 -16 -3 -30 8 -30
10 0 19 13 19 28 0 36 46 53 82 30 37 -25 -52 -104 -100 -89 -50 16 -91 -86
-52 -129 41 -46 37 -65 -10 -50 -44 14 -56 -26 -19 -63 23 -23 28 -163 12
-332 -6 -67 -3 -115 8 -115 10 0 19 -14 19 -31 0 -17 9 -26 20 -19 12 7 20
-14 20 -51 0 -54 -5 -60 -29 -40 -36 30 -69 12 -62 -33 5 -40 42 -57 60 -27
21 33 51 24 37 -11 -6 -18 -4 -38 6 -45 92 -67 99 -392 10 -481 -34 -34 -39
-51 -22 -81 27 -51 25 -61 -10 -61 -16 0 -30 -17 -30 -38 0 -46 -150 -69 -190
-29 -34 34 -94 42 -104 14 -5 -15 7 -20 33 -13 29 7 41 1 41 -22 0 -18 16 -32
38 -32 47 0 65 -62 29 -97 -16 -14 -22 -35 -14 -47 9 -15 -6 -18 -45 -8 -41 9
-49 7 -29 -6 44 -29 -21 -161 -77 -157 -36 3 -37 7 -11 36 54 60 0 157 -68
121 -22 -12 -46 -9 -71 9 -46 34 -83 17 -51 -23 13 -15 17 -28 9 -28 -8 0 -5
-12 8 -27 34 -42 6 -101 -33 -69 -42 35 -265 372 -265 402 0 13 -41 78 -90
144 -110 146 -109 151 51 183 149 31 183 24 228 -44 51 -78 85 -60 123 66 19
63 33 126 31 140 -3 14 5 25 18 25 62 0 299 313 299 396 0 13 10 24 21 24 12
0 20 20 17 45 -2 25 3 60 11 78 21 49 -2 162 -39 189 -28 21 -28 24 0 35 25
10 29 32 20 108 -7 52 -15 187 -17 300 -6 235 1 220 -110 234 -82 10 -84 9
-79 -42 12 -110 -90 -60 -111 54 l-13 72 182 2 c101 1 196 -3 211 -9z m-1454
-135 c14 -17 29 -73 35 -125 5 -53 13 -100 18 -104 11 -12 -34 -62 -56 -62
-11 0 -17 44 -13 100 6 90 3 100 -35 100 -55 0 -64 12 -53 70 11 56 66 67 104
21z m-176 -106 c7 -72 -10 -83 -65 -43 -50 36 -48 67 7 92 55 25 50 30 58 -49z
m1459 26 c35 22 8 -126 -30 -169 -17 -18 -36 -71 -44 -118 -10 -63 -22 -84
-49 -84 -29 0 -34 -11 -25 -55 19 -85 10 -208 -17 -234 -20 -21 8 -131 34
-131 30 0 47 -39 34 -76 -8 -20 -19 -18 -48 8 -36 33 -37 32 -24 -32 10 -51 5
-72 -23 -93 -27 -19 -37 -54 -39 -125 -1 -87 -5 -96 -36 -79 -35 19 -42 39
-36 102 2 19 -6 35 -18 35 -11 0 -21 29 -21 64 0 60 2 61 29 25 28 -38 29 -37
18 6 -13 50 -31 55 -88 24 -27 -14 -39 -14 -39 0 0 12 10 21 21 21 12 0 16 9
9 20 -8 13 -26 13 -53 -1 -36 -20 -38 -18 -18 20 18 32 17 43 -3 50 -34 10
-99 7 -87 -5 27 -27 -55 -70 -91 -47 -30 18 -38 18 -39 -2 0 -14 -18 -4 -39
21 l-39 47 -135 -43 c-75 -23 -161 -55 -193 -71 -74 -38 -93 -37 -93 7 0 95
280 225 422 197 39 -8 75 -4 93 11 23 20 34 18 52 -5 29 -37 77 -38 89 -1 5
16 0 22 -12 15 -11 -7 -39 17 -62 53 -48 78 -200 144 -160 70 33 -61 0 -78
-162 -86 -80 -5 -177 -23 -214 -41 -76 -35 -106 -27 -67 20 13 16 19 38 12 49
-33 54 160 108 271 75 58 -17 107 -29 107 -27 6 34 54 85 83 90 91 15 96 23
47 76 -33 34 -61 47 -91 39 -35 -9 -45 0 -53 44 -5 30 -17 72 -26 93 -12 29
-9 35 10 23 41 -25 287 -14 305 14 23 38 19 55 -14 55 -16 0 -30 15 -30 32 0
28 -5 29 -35 6 -29 -23 -29 -20 3 17 20 24 56 43 80 42 23 0 71 8 107 20 48
15 72 14 90 -4 80 -76 137 -77 202 -5 45 51 68 64 86 49 14 -11 36 -14 49 -6z
m-1562 -89 c0 -20 -13 -48 -30 -62 -31 -26 -47 56 -17 87 25 25 47 13 47 -25z
m562 -63 c52 -37 87 -119 38 -89 -11 7 -20 3 -20 -9 0 -11 16 -21 35 -22 50
-1 105 -47 105 -88 0 -29 -10 -32 -55 -19 -80 24 -305 14 -305 -14 0 -7 -19
-18 -41 -24 -84 -22 -36 72 61 121 50 25 93 56 98 68 4 12 -2 17 -13 10 -31
-19 -49 48 -23 80 31 37 52 34 120 -14z m192 -328 c-17 -17 -47 -24 -75 -16
-44 11 -44 13 -8 27 72 28 116 22 83 -11z m-424 -78 c0 -52 -39 -49 -47 4 -4
33 2 45 20 39 15 -5 27 -24 27 -43z m1248 -68 c27 -20 27 -27 4 -42 -15 -10
-21 -29 -13 -41 7 -12 0 -22 -18 -22 -31 0 -39 -22 -32 -80 3 -25 -2 -24 -31
4 -27 27 -30 40 -11 63 20 23 18 28 -9 26 -19 -2 -38 8 -43 22 -5 15 9 25 35
25 29 0 41 11 37 35 -8 49 26 105 40 64 5 -16 24 -40 41 -54z m-535 -328 c38
-45 52 -129 17 -107 -11 7 -20 4 -20 -6 0 -10 -50 -37 -111 -59 -84 -31 -109
-35 -101 -14 11 30 -37 19 -86 -19 -21 -16 -31 -15 -37 3 -13 40 -79 29 -91
-15 -14 -53 -64 -51 -103 4 -33 47 -41 98 -16 93 8 -2 48 12 89 30 40 18 125
38 190 46 64 7 137 30 164 50 59 46 59 46 105 -6z m126 -208 c28 -29 31 -29
31 0 0 56 50 -7 52 -67 2 -28 -1 -41 -6 -27 -5 14 -25 25 -43 25 -30 0 -103
64 -103 90 0 21 38 9 69 -21z m-97 -129 c15 0 28 10 28 22 0 16 9 15 30 -2 17
-14 30 -40 30 -57 0 -20 -6 -25 -15 -12 -8 11 -46 20 -83 20 -41 -1 -72 10
-78 27 -6 17 0 22 13 14 13 -8 24 -3 25 12 1 20 3 20 11 1 6 -14 23 -25 39
-25z m827 -681 c-12 -23 -92 -139 -179 -259 -86 -119 -153 -221 -148 -226 5
-5 -18 -20 -52 -34 -35 -15 -65 -45 -72 -73 -10 -38 -48 -69 -48 -39 0 5 -5
22 -11 39 -8 18 2 33 25 39 25 6 20 10 -17 12 -42 2 -130 62 -90 62 16 0 -130
139 -207 197 -81 62 -68 71 42 31 329 -121 546 -53 721 227 44 72 71 89 36 24z"/>
<path d="M2971 7574 c6 -16 -3 -34 -20 -41 -35 -13 -43 -73 -9 -73 12 0 17 14
11 30 -7 18 0 30 18 30 33 0 40 51 9 70 -11 7 -15 -1 -9 -16z"/>
<path d="M2820 5223 c0 -10 32 -24 70 -32 63 -12 80 -30 72 -77 -4 -27 38 -94
60 -94 11 0 15 8 9 19 -6 10 -2 24 9 31 11 7 25 -1 31 -17 12 -29 80 -24 99 8
15 23 -11 81 -31 69 -9 -6 -21 5 -28 25 -12 39 -111 94 -111 62 0 -11 -18 -14
-40 -7 -78 25 -140 30 -140 13z"/>
<path d="M3110 6335 c-23 -48 -28 -52 -21 -17 6 36 3 42 -14 25 -13 -13 -40
-23 -61 -23 -31 0 -36 -10 -25 -53 9 -34 4 -60 -13 -72 -21 -14 -21 -20 -1
-28 14 -6 21 -17 17 -25 -5 -7 8 -15 29 -17 22 -1 39 6 39 16 0 11 -9 19 -20
19 -11 0 -20 8 -20 18 0 31 77 0 88 -35 6 -18 7 -7 3 26 -4 32 5 97 19 145 31
102 22 111 -20 21z"/>
<path d="M2941 6075 c-1 -40 9 -55 35 -55 19 0 48 -18 64 -40 30 -41 100 -55
100 -20 0 11 -17 20 -39 20 -21 0 -44 9 -51 20 -7 11 -3 20 8 20 11 0 30 17
41 38 22 41 7 44 -65 13 -25 -11 -45 -4 -64 21 -27 36 -29 35 -29 -17z"/>
<path d="M2095 5338 c-19 -11 -35 -34 -35 -51 0 -25 -6 -27 -28 -8 -22 18 -32
17 -44 -2 -23 -38 -31 -153 -11 -165 9 -6 13 13 7 42 l-10 53 68 -43 c37 -24
91 -54 118 -68 28 -13 131 -78 230 -143 l180 -118 -100 104 c-55 57 -138 120
-184 140 -85 38 -126 114 -126 236 0 49 -12 54 -65 23z"/>
<path d="M3984 5195 c-55 -69 -97 -128 -93 -132 21 -21 209 168 209 210 0 65
-4 63 -116 -78z"/>
<path d="M4457 5053 c9 -115 -31 -190 -185 -353 -68 -71 -141 -154 -163 -183
-41 -57 -635 -417 -688 -418 -51 -1 -94 -45 -107 -112 -11 -59 -44 -132 -227
-517 -63 -132 -66 -148 -48 -250 10 -61 29 -205 42 -322 18 -154 31 -211 52
-211 15 0 27 20 27 44 0 24 98 245 218 491 236 487 292 605 396 848 59 139
151 287 118 190 -27 -79 -75 -499 -102 -903 -17 -246 -39 -514 -49 -597 -20
-170 -76 -768 -89 -950 -4 -66 -18 -219 -30 -340 -27 -272 -78 -936 -95 -1242
l-13 -228 53 0 c42 0 53 10 53 46 0 25 10 56 23 69 17 17 15 35 -8 71 -34 52
-32 240 5 454 17 100 43 440 48 623 2 85 26 119 53 76 12 -20 18 -21 19 -4 0
14 8 25 18 25 11 0 14 -146 8 -355 -6 -195 -5 -350 2 -343 7 7 18 155 23 330
13 382 13 380 77 337 51 -33 59 -148 21 -289 -17 -61 -30 -908 -16 -985 6 -31
23 -55 40 -55 32 0 26 302 -10 520 -8 50 -7 120 2 157 10 37 12 81 6 98 -7 17
-3 100 8 183 36 273 39 311 27 427 -9 89 -20 117 -50 126 -23 8 -34 24 -28 41
13 34 -11 37 -43 5 -43 -43 -125 -2 -125 63 0 40 10 60 30 60 17 0 30 9 30 20
0 11 -9 20 -20 20 -38 0 -19 30 34 55 82 38 125 -3 69 -66 -9 -11 -5 -41 10
-69 30 -56 35 -39 29 100 -5 129 -8 140 -37 116 -26 -21 -19 19 13 74 6 11 14
43 17 70 3 28 14 73 24 102 9 29 10 64 1 78 -17 27 -64 -104 -92 -251 -7 -38
-21 -63 -32 -56 -13 7 -15 -6 -6 -35 13 -44 12 -46 -19 -16 -31 29 -31 37 0
115 19 46 29 101 23 123 -6 22 -3 35 7 29 9 -5 26 24 38 65 11 42 34 96 52
121 29 41 29 48 0 77 -29 29 -39 57 -33 93 1 8 -12 15 -29 15 -19 0 -26 9 -17
23 8 13 17 74 20 135 8 159 25 234 59 262 35 30 38 62 5 55 -33 -7 -22 137 16
215 25 50 25 63 3 80 -19 14 -23 41 -13 90 8 38 12 74 8 80 -4 6 -12 82 -18
170 l-12 160 51 -120 c44 -106 51 -149 52 -375 2 -212 7 -252 30 -233 16 14
22 41 15 70 -10 40 -5 48 35 48 27 0 37 7 25 15 -23 16 -50 145 -30 145 56 -2
67 -42 54 -191 -18 -194 -33 -271 -51 -260 -8 5 -14 -3 -14 -19 0 -16 7 -24
15 -19 33 21 -52 -419 -95 -486 -25 -40 -24 -45 4 -45 29 0 31 -24 21 -190
-17 -282 -35 -410 -57 -410 -11 0 -9 -14 5 -30 35 -42 48 -23 52 76 5 158 49
644 67 754 11 61 25 171 32 245 8 74 21 135 31 135 9 0 13 -25 8 -55 -55 -318
-118 -1113 -105 -1315 7 -112 8 -109 12 40 6 237 57 827 94 1090 66 473 75
671 32 698 -14 9 -24 29 -21 44 3 15 -8 60 -25 98 -17 39 -34 79 -37 90 -4 11
-20 32 -35 48 -15 15 -23 39 -17 55 6 15 2 27 -9 27 -10 0 -18 7 -17 15 7 39
-4 66 -21 56 -10 -7 -18 4 -18 24 1 19 -6 67 -14 105 -14 63 -12 67 16 44 28
-23 37 -19 66 25 52 79 7 151 -51 81 -19 -23 -19 -37 -1 -58 19 -24 16 -27
-18 -18 -53 14 -53 14 26 113 93 116 102 135 59 121 -27 -9 -25 -1 11 30 26
23 62 42 79 42 26 0 24 -6 -7 -29 -35 -26 -31 -27 36 -7 69 21 112 96 55 96
-11 0 -20 13 -20 30 0 16 -18 41 -40 55 -61 38 -48 59 33 52 46 -4 77 3 82 18
5 14 27 21 52 15 43 -10 137 50 131 84 -8 45 6 66 42 66 27 0 40 13 40 41 0
24 9 36 21 28 12 -7 17 -18 10 -24 -6 -7 5 -29 24 -50 33 -37 33 -40 -3 -66
-34 -25 -29 -28 52 -24 74 3 88 10 81 38 -5 20 -24 31 -45 27 -23 -5 -40 8
-47 36 -16 59 5 72 39 25 20 -27 28 -30 28 -10 -1 38 -30 83 -52 79 -9 -2 -20
7 -24 19 -4 11 3 21 16 21 14 0 18 17 10 45 -7 25 10 6 39 -42 28 -48 51 -95
51 -105 0 -10 16 -19 35 -20 19 0 24 -5 11 -11 -17 -7 -16 -34 6 -108 28 -94
28 -101 -13 -144 -33 -35 -35 -46 -12 -51 18 -4 25 -21 18 -45 -7 -29 -17 -34
-35 -19 -17 14 -32 12 -50 -10 -29 -35 -93 -40 -104 -8 -5 16 -28 16 -78 3
-53 -15 -80 -13 -108 8 -21 15 -27 27 -13 27 14 0 21 7 15 17 -6 9 -39 12 -73
7 l-63 -9 57 -48 c39 -32 74 -44 110 -38 29 5 57 4 63 -2 6 -5 88 -13 182 -16
174 -5 241 -34 112 -49 -67 -7 -68 -8 -20 -25 30 -10 -32 -13 -156 -7 -115 6
-238 24 -277 40 -176 74 -196 46 -190 -261 5 -197 1 -250 -18 -238 -18 11 -20
7 -8 -13 10 -15 21 -50 25 -78 6 -47 81 -280 84 -260 0 6 4 165 7 356 7 400 3
392 170 353 69 -16 136 -23 147 -16 12 7 17 1 11 -15 -5 -15 -19 -26 -30 -24
-19 4 -76 -179 -92 -294 -4 -27 -17 -77 -30 -110 -14 -33 -29 -73 -35 -90 -7
-16 -24 -97 -39 -180 -15 -82 -35 -186 -44 -230 l-17 -80 -14 98 c-8 54 -14
123 -14 155 0 31 -7 57 -15 57 -8 0 -16 -75 -18 -165 -2 -143 -45 -529 -77
-700 -24 -124 -30 -204 -50 -615 -18 -398 -48 -780 -69 -900 -30 -167 -19
-974 11 -822 20 106 36 125 51 66 6 -24 20 -44 29 -44 10 0 17 -7 15 -15 -10
-44 32 -85 87 -85 53 0 59 5 48 45 -34 120 -51 517 -42 979 6 298 1 594 -11
709 -12 108 -25 240 -30 294 -5 53 -13 104 -19 112 -5 9 3 56 19 104 72 217
89 314 59 338 -65 54 -19 73 230 91 139 10 162 7 162 -20 0 -18 -15 -32 -33
-32 -19 0 -27 -7 -19 -15 9 -8 26 -15 39 -15 25 -1 20 -291 -5 -310 -7 -5 -9
-184 -3 -396 7 -243 4 -393 -9 -406 -13 -13 -11 -25 6 -35 17 -11 21 -40 11
-94 -45 -261 -1 -698 103 -1019 25 -77 51 -178 59 -225 22 -128 51 -123 52 9
4 274 1 387 -11 406 -7 11 -3 20 9 20 11 0 21 10 21 22 0 13 -31 -1 -70 -31
-86 -65 -91 -43 -9 38 33 32 56 70 51 83 -5 13 4 72 21 131 59 212 130 513
198 847 39 187 82 394 97 460 44 192 38 32 -8 -222 -50 -276 -50 -288 2 -288
24 0 38 -10 33 -25 -5 -14 -27 -22 -49 -19 -28 4 -45 -8 -53 -40 -30 -111 2
-153 61 -81 26 32 28 30 16 -22 -14 -68 33 -133 98 -134 23 0 59 -13 81 -30
49 -37 71 -37 71 1 0 36 43 39 76 6 33 -33 55 -4 25 33 -48 57 -2 71 101 30
55 -21 142 -38 194 -38 115 2 73 23 -110 57 -167 31 -473 133 -482 161 -21 62
40 81 257 81 253 0 325 19 315 85 -6 45 -205 173 -230 148 -6 -6 31 -31 82
-56 50 -25 92 -52 92 -61 0 -9 -34 -1 -75 19 -51 24 -120 34 -214 33 -153 -2
-191 18 -191 98 0 87 175 88 226 1 22 -37 56 -34 41 3 -8 21 2 30 31 30 57 0
425 -60 446 -72 9 -6 16 8 16 30 0 36 -15 41 -145 46 -137 6 -145 9 -147 53
-4 64 230 155 262 102 7 -10 -3 -19 -22 -19 -19 0 -28 -6 -21 -14 8 -8 -15
-30 -51 -49 -63 -34 -64 -35 -16 -36 153 -2 186 116 90 316 -47 96 -50 122
-48 408 2 569 -117 1204 -281 1485 -19 33 -47 92 -62 130 -82 216 -337 445
-702 630 -177 91 -313 173 -344 210 -64 77 -65 77 -56 -27z m612 -508 c-4 -19
-34 -147 -67 -285 -33 -137 -65 -290 -71 -340 -82 -685 -99 -907 -69 -889 15
10 19 7 10 -8 -8 -12 -5 -39 6 -58 20 -33 21 -33 21 0 1 38 31 47 51 15 7 -11
3 -20 -9 -20 -11 0 -21 -14 -21 -31 0 -17 8 -26 19 -20 10 7 27 -4 38 -24 33
-58 53 24 27 109 -12 38 -16 82 -11 98 6 15 3 28 -8 28 -10 0 -18 14 -18 30 0
17 6 30 13 30 7 0 14 38 15 85 3 212 37 713 58 845 44 290 60 358 85 366 23 8
25 -72 15 -498 -12 -497 -3 -638 39 -652 21 -7 25 64 5 84 -6 6 -3 49 8 96 10
46 21 280 24 519 2 239 11 441 19 449 40 41 71 -119 80 -414 3 -93 18 -213 33
-265 22 -77 23 -112 3 -185 -13 -50 -23 -115 -22 -145 2 -45 5 -40 20 25 30
129 40 147 57 100 13 -34 18 -29 31 30 8 39 31 104 51 146 20 42 42 103 50
137 20 94 63 16 72 -132 6 -108 3 -122 -39 -143 -26 -12 -44 -28 -40 -34 3 -6
-13 -32 -35 -57 -66 -74 -109 -152 -109 -196 0 -23 -17 -58 -39 -80 -21 -21
-30 -41 -19 -45 14 -5 13 -26 -1 -63 -11 -30 -21 -84 -21 -119 l1 -64 55 94
c30 51 80 121 109 154 30 34 55 80 55 102 0 38 29 82 107 165 45 47 57 37 64
-58 8 -97 -46 -199 -151 -287 -46 -38 -115 -96 -152 -128 -84 -70 -78 -83 18
-42 40 16 105 30 143 30 39 0 71 7 71 16 0 24 78 104 101 104 10 0 19 -50 19
-111 0 -83 6 -108 25 -97 14 8 19 8 11 -1 -7 -8 -5 -37 5 -63 10 -27 10 -48 1
-48 -10 0 -16 -31 -15 -70 4 -82 -20 -92 -47 -20 -10 28 -28 50 -39 50 -11 0
-26 25 -33 55 -30 125 -102 156 -255 110 -113 -34 -132 -58 -133 -160 0 -32
-12 -45 -40 -45 -22 0 -40 -9 -40 -20 0 -11 18 -20 40 -20 49 0 54 -59 5 -61
-30 -2 -29 -4 5 -19 49 -21 17 -24 -67 -7 -35 6 -63 23 -63 37 0 14 -22 31
-50 38 -53 14 -69 52 -21 52 16 0 34 9 41 20 8 13 -46 20 -149 20 -150 0 -161
-3 -161 -42 0 -36 -8 -40 -65 -28 -120 24 -135 32 -135 74 0 43 -117 45 -255
4 -28 -8 -45 -4 -45 10 0 12 15 22 32 22 24 0 30 13 23 49 -5 28 -2 45 8 39 9
-6 17 -28 17 -49 0 -126 107 6 111 138 3 64 18 143 34 175 16 32 26 69 21 82
-5 13 5 44 22 70 16 25 34 71 39 101 6 30 16 63 23 75 7 11 4 20 -7 20 -11 0
-2 37 20 82 22 45 35 86 30 91 -5 6 8 49 29 96 38 87 54 148 57 221 1 46 98
98 146 79 17 -6 37 -2 44 10 7 11 5 21 -6 21 -11 0 -15 17 -9 38 5 21 -6 71
-25 111 -33 70 -33 79 2 193 35 118 69 171 69 109 0 -43 26 -39 56 10 29 46
64 36 53 -16z m-909 -203 c0 -20 -48 -42 -92 -42 -15 0 -28 10 -28 22 0 12 14
17 30 11 17 -7 30 -3 30 8 0 10 14 19 30 19 17 0 30 -8 30 -18z m1302 -176
c12 -84 8 -142 -15 -216 -37 -122 -76 -210 -52 -120 8 33 15 156 15 274 0 230
25 260 52 62z m-1784 -53 c52 -63 -39 -135 -117 -93 -59 31 -51 64 10 36 65
-30 110 5 70 53 -14 17 -17 31 -6 31 11 0 30 -12 43 -27z m-188 -93 c-7 -11
20 -35 59 -54 39 -18 71 -41 71 -51 0 -20 -80 0 -109 27 -30 28 -43 22 -69
-35 -26 -58 -14 -87 22 -51 34 34 90 30 104 -9 13 -34 -19 -87 -53 -87 -11 0
-9 14 5 30 37 45 7 63 -37 23 -68 -62 -129 -3 -85 82 9 19 29 60 43 90 14 30
34 55 44 55 9 0 12 -9 5 -20z m-69 -311 c67 -34 77 -69 20 -69 -54 0 -69 -33
-26 -60 33 -22 33 -22 -2 -11 -20 6 -58 17 -85 23 -72 18 -60 68 17 69 61 2
62 3 20 23 -47 23 -61 56 -24 56 12 0 48 -14 80 -31z m-29 -194 c-7 -14 -18
-41 -24 -60 -17 -48 -32 -44 -98 25 l-57 60 95 0 c69 0 92 -7 84 -25z m-182
-107 c-39 -30 -39 -32 20 -79 43 -35 51 -49 26 -49 -43 0 -96 53 -96 98 0 44
17 62 58 61 26 0 24 -6 -8 -31z m941 -399 c-8 -62 -19 -108 -24 -102 -6 5 -4
60 4 122 8 62 18 108 24 103 5 -6 4 -61 -4 -123z m1285 -253 c13 -13 24 -45
24 -71 0 -26 7 -43 16 -37 9 5 34 -24 55 -64 21 -41 44 -78 51 -84 28 -23 59
-102 47 -121 -16 -26 29 -83 53 -68 10 6 18 1 18 -11 0 -13 15 -38 34 -56 31
-32 31 -34 0 -40 -19 -4 -34 -15 -34 -25 0 -11 -16 -19 -35 -20 -19 0 -53 -14
-74 -30 -37 -28 -35 -29 30 -19 38 6 58 5 44 -1 -14 -7 -25 -27 -25 -46 -1
-28 -3 -29 -20 -3 -19 30 -31 7 -22 -45 1 -8 -7 -15 -18 -15 -11 0 -20 -19
-20 -41 0 -23 -8 -36 -19 -30 -10 6 -23 4 -29 -6 -6 -10 -41 -16 -77 -12 -36
4 -74 7 -85 8 -95 8 -73 80 25 81 25 0 45 10 45 21 0 12 -20 20 -45 18 -88 -7
-98 -1 -84 46 8 25 21 50 30 55 9 6 29 60 44 120 21 80 37 109 61 107 24 -2
29 6 16 28 -20 37 -5 109 20 94 10 -6 12 3 6 20 -11 28 12 41 58 33 10 -2 12
4 7 13 -31 51 -121 10 -122 -55 -1 -57 -9 -68 -56 -74 -30 -4 -55 2 -55 13 0
12 9 21 20 21 11 0 20 28 20 61 0 41 8 57 23 47 14 -9 18 -5 9 9 -17 27 6 203
26 203 8 0 25 -11 38 -24z m-564 -136 c15 0 28 9 28 20 0 11 27 20 60 20 33 0
60 -9 60 -20 0 -11 19 -20 42 -20 33 0 40 -9 32 -40 -6 -22 -2 -40 8 -40 10 0
19 11 20 25 1 19 3 19 11 1 5 -14 41 -31 78 -38 72 -13 95 -48 32 -48 -53 0
-77 -64 -112 -295 -18 -112 -39 -225 -49 -250 -9 -25 -36 -144 -60 -265 -97
-484 -197 -879 -257 -1009 l-50 -111 -19 60 c-20 67 -3 1682 20 1830 l14 90
150 11 c83 7 137 14 120 18 -16 3 -3 13 30 23 44 12 27 15 -65 9 -69 -4 -125
-4 -125 -1 0 4 -3 19 -7 33 -3 15 -3 20 2 12 5 -8 21 -15 37 -15z m-56 -18 c6
-17 -10 -23 -47 -19 -31 4 -60 19 -64 33 -6 18 8 24 47 18 31 -4 59 -18 64
-32z m-999 -1204 c-46 -29 -107 -4 -107 44 0 35 10 46 35 42 19 -3 36 6 37 20
1 14 13 -1 28 -34 15 -36 19 -65 7 -72z m123 10 c0 -90 -47 -83 -56 9 -5 46 2
63 25 63 22 0 31 -20 31 -72z"/>
<path d="M4813 3876 c-29 -101 -163 -889 -177 -1036 -5 -57 1 -71 34 -76 35
-5 40 5 37 77 -2 45 14 182 34 305 55 331 120 820 111 829 -5 4 -22 -40 -39
-99z"/>
<path d="M5283 3456 c-2 -140 -11 -297 -22 -350 -30 -157 -43 -320 -23 -286
46 76 82 489 62 720 l-14 170 -3 -254z"/>
<path d="M4830 2459 c-33 -52 -28 -327 7 -387 19 -34 25 -61 13 -65 -11 -4
-19 -61 -18 -127 2 -67 -4 -125 -13 -130 -8 -6 -10 -29 -4 -53 8 -30 4 -39
-12 -29 -14 9 -23 2 -23 -17 0 -17 11 -31 25 -31 17 -1 18 -5 3 -15 -22 -15
-39 -179 -61 -610 -16 -298 19 -318 52 -30 12 113 37 291 54 395 17 105 35
226 40 270 5 44 21 164 36 267 20 148 20 188 0 196 -31 12 -56 130 -31 146 11
7 12 49 0 110 -20 109 -45 148 -68 110z"/>
<path d="M1830 4948 c-55 -39 -219 -138 -365 -221 -298 -168 -385 -234 -385
-287 0 -20 -42 -121 -93 -224 -207 -416 -392 -1015 -527 -1706 -24 -121 -56
-280 -73 -354 -35 -161 -19 -205 90 -249 186 -74 200 -98 103 -183 -72 -63
-76 -111 -15 -154 25 -17 85 -59 134 -93 75 -53 83 -66 57 -85 -125 -91 -140
-226 -39 -337 43 -47 89 -120 103 -164 14 -43 68 -143 120 -223 l95 -145 14
-262 15 -261 76 0 c43 0 81 11 87 25 7 19 15 18 30 -4 12 -17 28 -23 37 -14 8
9 -5 31 -31 50 -38 30 -42 43 -26 84 11 27 26 74 32 104 14 63 51 74 51 15 0
-22 9 -40 20 -40 11 0 20 -22 20 -49 0 -27 9 -54 20 -61 12 -7 20 17 20 60 0
108 -130 222 -153 134 -12 -45 -81 -91 -97 -64 -11 18 52 124 102 170 11 11
51 67 87 125 36 58 73 100 82 94 10 -6 42 26 71 70 52 78 88 103 88 60 0 -11
24 -45 53 -75 28 -30 46 -43 38 -29 -16 30 -1 32 48 6 34 -18 31 -32 -38 -205
-67 -167 -101 -272 -135 -411 -9 -39 -3 -45 52 -45 46 0 62 9 62 35 -1 30 -3
31 -20 5 -37 -57 -23 31 24 154 25 64 45 121 46 126 17 102 60 220 80 220 14
0 30 19 36 42 8 30 3 38 -17 30 -35 -13 -35 -3 -6 126 13 55 31 96 41 90 9 -6
12 -18 7 -27 -6 -9 12 -39 40 -67 33 -32 42 -53 26 -58 -26 -9 -7 -56 23 -56
25 0 44 107 29 166 -7 28 -23 48 -36 43 -58 -21 -62 -10 -323 881 -111 377
-172 608 -221 829 -53 245 -61 265 -81 214 -10 -28 -23 -21 -77 37 -68 75
-118 93 -97 35 18 -51 89 -125 119 -125 15 0 27 -22 27 -50 0 -27 -10 -50 -22
-50 -12 0 -18 11 -13 25 11 27 -20 62 -61 70 -16 3 -24 -28 -24 -98 0 -57 6
-98 13 -91 15 16 112 -33 146 -75 21 -26 21 -31 -2 -33 -38 -2 -81 -12 -122
-28 -21 -9 -35 -5 -35 9 0 13 9 18 20 11 31 -19 24 22 -9 49 -33 27 -80 182
-100 326 -8 52 -21 95 -30 95 -9 0 -21 18 -27 40 -6 23 -27 40 -49 40 -30 0
-39 15 -41 60 -1 40 8 60 27 60 16 0 29 -13 29 -30 0 -16 4 -30 8 -30 5 0 24
-6 43 -13 33 -13 33 -9 -2 49 -20 34 -44 57 -53 52 -9 -6 -16 -1 -16 11 0 14
-14 13 -41 -4 -61 -38 -31 -191 76 -385 18 -33 31 -64 28 -70 -13 -24 46 -185
70 -194 15 -6 22 -18 16 -27 -18 -30 49 -164 77 -153 17 6 27 -10 30 -48 6
-70 -32 -75 -224 -26 -98 24 -159 27 -281 13 -122 -14 -157 -12 -165 8 -12 31
68 167 98 167 13 0 16 24 9 60 -14 69 6 78 47 20 35 -48 52 -50 68 -9 6 17 4
27 -4 21 -71 -43 -131 243 -62 292 19 13 21 22 6 28 -56 24 15 225 84 238 21
4 41 8 45 8 5 1 -1 13 -12 27 -28 35 -49 135 -29 135 10 0 29 -22 44 -50 20
-37 33 -44 52 -28 27 22 23 72 -11 135 -26 50 -28 203 -1 203 12 0 12 18 0 51
-11 29 -20 80 -20 114 l0 63 50 -68 c28 -37 50 -89 50 -116 0 -26 18 -71 40
-99 22 -28 40 -43 40 -34 0 9 14 -1 31 -22 30 -37 31 -36 19 21 -14 63 -46 95
-77 76 -11 -7 -13 -2 -5 10 7 12 26 17 43 11 35 -14 36 1 6 131 -14 60 -35
102 -50 102 -17 0 -28 28 -30 75 -2 41 -5 102 -8 135 -2 33 0 86 6 118 l11 58
34 -68 c19 -37 41 -104 49 -148 8 -44 22 -89 30 -100 24 -31 89 -417 109 -651
2 -28 20 -73 38 -100 65 -92 21 -113 -54 -26 -25 30 -51 45 -58 34 -6 -11 10
-45 37 -76 27 -32 49 -63 49 -71 0 -7 23 -24 52 -37 49 -23 51 -22 40 32 -6
30 -29 172 -52 315 -23 143 -47 274 -54 290 -18 43 -18 42 -33 130 -8 44 -23
107 -33 140 -36 118 -48 317 -18 299 22 -13 23 -10 6 12 -12 16 -28 56 -36 89
-8 37 -7 50 5 33 12 -19 22 -8 33 40 l15 67 15 -65 c8 -36 26 -153 39 -260 36
-302 77 -510 102 -526 14 -8 18 -34 10 -62 -11 -40 -10 -42 9 -11 26 41 -6
362 -80 804 -33 191 -26 294 17 267 29 -18 41 -58 51 -165 27 -305 58 -472 85
-472 15 0 27 -19 27 -42 0 -23 12 -70 27 -105 25 -57 66 -240 84 -373 4 -27
17 -115 28 -194 12 -79 21 -185 21 -236 0 -56 8 -88 20 -80 11 7 20 -1 20 -18
0 -23 -30 -32 -125 -37 l-125 -7 125 -4 c120 -4 173 -41 100 -71 -15 -6 -12
-10 9 -11 19 -1 33 -17 31 -37 -1 -19 5 -71 14 -115 10 -44 19 -93 22 -110 27
-176 77 -429 118 -600 28 -115 50 -217 51 -225 0 -30 37 -14 44 20 6 28 10 27
20 -10 8 -31 4 -45 -16 -45 -37 0 -36 -38 2 -53 16 -6 25 -19 19 -29 -7 -10
-22 -13 -33 -5 -15 9 -16 4 -5 -15 10 -15 19 -38 21 -51 2 -12 10 -42 18 -67
11 -34 8 -41 -11 -29 -19 12 -22 6 -10 -23 9 -21 21 -90 26 -153 11 -125 45
-159 45 -45 0 49 9 70 30 70 35 0 41 71 8 91 -14 9 -17 51 -8 123 11 92 8 113
-23 137 -33 25 -34 28 -3 28 44 1 66 39 38 67 -12 12 -22 45 -22 73 -1 40 -5
44 -19 21 -44 -68 -98 102 -103 320 -1 28 -8 59 -16 70 -8 11 -17 79 -20 150
-5 118 -76 434 -81 360 -2 -24 -6 -23 -23 5 -35 60 -1 75 165 75 l160 0 -14
-65 c-8 -36 -22 -68 -31 -72 -25 -9 -23 -83 2 -83 11 0 20 -31 20 -70 0 -38
-10 -70 -22 -70 -14 0 -16 -13 -7 -35 9 -19 18 -159 20 -311 4 -292 27 -402
32 -152 2 81 5 157 8 168 2 11 5 188 7 394 l2 373 55 9 55 8 -55 3 c-157 9
-20 39 230 51 157 7 312 15 345 18 l60 4 3 -353 c1 -194 7 -361 12 -370 6 -9
12 -89 13 -177 1 -88 8 -189 14 -225 9 -44 -1 -97 -27 -160 -49 -117 -83 -374
-37 -275 16 33 45 105 65 160 32 86 38 93 43 47 3 -29 -17 -100 -45 -159 -28
-58 -46 -121 -41 -139 6 -19 0 -60 -13 -91 -27 -67 -35 -228 -11 -228 9 0 13
-16 10 -35 -4 -20 7 -35 24 -35 20 0 31 23 34 70 7 149 36 249 73 257 28 5 34
-3 26 -30 -35 -117 -37 -148 -10 -143 75 16 -41 -156 -128 -189 -17 -7 -36
-55 -45 -118 -9 -59 -18 -111 -19 -117 -12 -46 -51 -291 -59 -375 -12 -129 14
-136 97 -25 32 44 65 80 73 80 8 0 34 32 58 70 25 41 59 70 82 70 21 0 38 9
38 20 0 27 -74 26 -91 -1 -7 -12 -27 -16 -43 -10 -23 9 -28 1 -20 -30 11 -42
-45 -119 -87 -119 -24 0 -9 106 34 238 15 48 32 122 36 164 7 81 65 199 103
212 61 20 50 -260 -12 -324 -33 -34 -60 -68 -60 -76 0 -32 47 -10 86 39 l42
54 17 -59 c10 -32 29 -134 42 -228 21 -152 29 -171 69 -176 24 -4 44 3 44 15
0 11 -18 21 -40 21 -23 0 -40 13 -40 32 0 20 11 28 30 21 42 -17 38 40 -5 65
-19 12 -24 21 -10 21 14 1 25 15 25 31 0 17 -11 28 -24 25 -13 -3 -27 10 -31
29 -5 24 5 33 33 31 33 -3 43 -22 54 -112 13 -109 55 -183 102 -183 15 0 26 7
26 15 0 74 -70 420 -104 515 -46 130 -59 226 -33 242 9 5 9 25 -1 44 -65 131
-120 394 -152 734 -7 77 -26 242 -42 366 -38 306 -36 376 14 458 56 90 62 78
34 -68 -22 -123 8 -507 45 -567 33 -53 54 2 36 96 -10 52 -21 165 -25 251 -4
86 -11 160 -16 164 -4 5 -1 88 8 184 10 111 8 246 -7 366 -13 105 -29 244 -36
310 l-12 120 -67 -145 c-37 -80 -74 -145 -83 -145 -23 0 2 845 26 874 13 17 5
47 -23 93 -23 37 -42 85 -42 107 0 22 -69 109 -156 197 -86 88 -173 182 -195
209 -21 28 -94 93 -161 144 -170 130 -235 211 -276 342 -42 133 -34 131 -162
42z m16 -365 c-35 -81 -62 -121 -79 -114 -23 8 -87 -80 -87 -119 0 -27 97 -43
180 -30 l90 15 -95 2 c-52 2 -95 6 -95 9 0 18 117 233 141 258 47 51 133 4
123 -67 -5 -31 -17 -57 -26 -57 -10 0 -18 -19 -18 -42 0 -39 9 -41 158 -35 87
4 154 1 150 -7 -5 -7 16 -16 47 -20 46 -6 35 -13 -65 -44 -106 -33 -194 -41
-519 -50 -157 -4 -40 -64 126 -64 121 -1 146 -7 164 -39 28 -53 46 -49 116 21
106 106 163 60 163 -131 0 -101 6 -129 30 -129 17 0 30 -9 30 -20 0 -11 -13
-20 -29 -20 -18 0 -25 -12 -19 -29 6 -16 24 -24 40 -18 20 8 28 -6 28 -52 0
-41 8 -59 22 -50 25 16 6 216 -26 277 -14 26 -13 41 4 52 14 9 20 25 13 35 -7
11 0 31 15 43 38 32 49 -4 62 -204 6 -90 16 -184 21 -209 6 -25 0 -64 -12 -86
-12 -23 -20 -79 -19 -125 5 -167 -1 -223 -31 -268 -18 -28 -21 -46 -8 -46 12
0 17 -16 11 -35 -28 -92 -33 -168 -9 -153 13 8 2 -24 -25 -72 -48 -85 -48 -86
-176 -92 -197 -11 -173 -30 29 -24 161 5 179 10 179 44 0 21 12 43 27 48 20 6
23 -3 14 -34 -13 -38 -6 -42 73 -40 47 0 73 6 56 13 -16 6 -37 21 -45 33 -10
15 -14 14 -15 -3 0 -14 -9 -25 -20 -25 -11 0 -20 14 -20 30 0 17 13 30 29 30
39 0 56 63 41 154 -10 56 -8 68 8 46 45 -63 18 276 -66 829 -35 232 -32 246
24 117 61 -144 96 -351 165 -986 10 -93 25 -196 32 -228 12 -56 11 -57 -55
-47 -37 5 -88 2 -113 -7 -28 -11 -45 -9 -45 3 0 13 -13 14 -35 3 -19 -9 -118
-16 -220 -16 -102 1 -185 -5 -185 -13 0 -8 -8 -15 -19 -15 -10 0 -15 34 -11
75 5 41 18 260 30 485 20 387 28 487 51 630 9 59 9 59 -13 10 -27 -63 -37
-108 -47 -217 -10 -109 -41 -147 -56 -69 -12 63 -1 199 26 337 2 10 3 37 1 58
-3 61 -40 10 -46 -64 -2 -36 -13 -65 -22 -65 -20 0 -7 -411 15 -463 7 -18 10
-173 5 -344 -5 -201 -1 -307 12 -300 10 7 15 0 10 -15 -5 -15 -40 -34 -78 -40
-71 -13 -61 -25 17 -19 25 2 45 -6 45 -18 0 -11 -21 -21 -47 -21 -26 0 -91 -6
-143 -13 -91 -13 -96 -11 -85 29 6 23 0 45 -14 51 -14 5 -23 30 -20 56 2 26
-9 79 -26 117 -28 67 -42 160 -51 330 -2 44 -13 93 -23 109 -10 16 -22 61 -26
99 -4 39 -17 82 -28 96 -16 19 -15 26 6 26 18 1 20 5 5 15 -38 25 -69 102 -72
174 -1 38 -9 65 -17 60 -9 -5 -10 10 -4 34 8 32 5 39 -15 27 -19 -12 -23 -8
-15 15 7 17 7 37 0 44 -14 13 -20 38 -38 156 -7 41 -21 75 -31 75 -10 0 -5 14
13 32 17 17 39 46 49 65 11 19 87 68 170 110 84 42 152 89 152 105 0 15 9 28
20 28 11 0 18 11 15 25 -3 14 5 23 17 21 12 -2 34 18 48 45 49 91 40 37 -14
-88z m874 -846 c0 -57 -6 -98 -12 -91 -11 10 -17 122 -10 179 7 57 22 -4 22
-88z m-140 -435 c0 -32 5 -75 10 -95 6 -21 -7 -1 -28 42 -38 78 -38 111 -1
111 11 0 19 -26 19 -58z m-565 -616 c7 -21 -83 -46 -167 -46 -80 0 -56 51 26
57 41 3 79 9 84 14 14 15 49 -1 57 -25z m-1353 -608 c-48 -21 -111 -44 -140
-51 -78 -18 -26 29 70 64 119 42 172 33 70 -13z m698 22 c-39 -25 -114 -25
-130 0 -8 12 21 20 74 20 63 -1 78 -6 56 -20z m-4 -64 c13 -13 24 -33 24 -43
0 -11 -5 -14 -12 -8 -7 7 -33 5 -58 -5 -28 -10 -53 -9 -66 4 -41 41 -284 20
-284 -24 0 -42 191 -96 204 -58 8 22 203 39 233 20 77 -48 60 -216 -20 -191
-20 6 -37 3 -37 -8 0 -29 44 -53 85 -46 19 3 41 -8 47 -26 7 -17 19 -26 28
-21 9 6 12 -25 6 -67 -6 -47 -2 -83 12 -92 27 -16 28 -90 2 -131 -16 -26 -23
-26 -53 5 -33 33 -33 36 4 64 62 48 2 74 -92 41 -76 -27 -194 14 -125 43 35
14 -13 63 -53 55 -169 -36 -319 -79 -356 -103 -51 -34 -58 -14 -14 44 56 75
38 92 -86 81 l-115 -10 112 37 c61 20 138 33 171 28 43 -6 76 5 118 40 33 27
93 61 134 76 41 15 75 34 75 43 0 9 14 16 30 16 17 0 30 9 30 21 0 28 -185 15
-210 -14 -12 -14 -96 -27 -205 -30 -153 -6 -180 -3 -152 18 19 14 87 25 151
25 200 0 155 53 -59 70 -301 23 -318 56 -38 76 74 6 148 22 165 36 17 14 96
32 175 39 79 7 157 14 174 16 17 2 42 -8 55 -21z m-288 -296 c-12 -12 -40 -25
-63 -29 -23 -5 -60 -18 -82 -30 -22 -11 -69 -21 -103 -21 -83 0 -70 42 22 74
87 30 254 34 226 6z m122 -345 c23 -43 69 -88 110 -107 38 -19 86 -42 105 -51
19 -9 44 -17 55 -17 11 0 61 -19 110 -42 91 -43 121 -98 53 -98 -20 0 -107
-18 -193 -40 -187 -48 -199 -48 -237 -11 -44 45 -63 -52 -24 -128 51 -97 142
-87 249 27 48 51 214 127 234 107 5 -6 12 -30 13 -54 2 -25 20 -53 40 -63 27
-15 31 -28 15 -57 -12 -24 -13 -40 0 -44 11 -4 11 -18 -2 -37 -16 -23 -23 -24
-31 -4 -8 19 -18 20 -38 4 -29 -25 -81 42 -54 68 8 8 0 9 -18 2 -17 -7 -61
-53 -99 -102 -65 -87 -79 -93 -158 -60 -21 9 -43 -8 -68 -53 -52 -91 -134
-199 -144 -190 -10 11 52 200 74 224 20 21 -36 91 -73 91 -13 0 -34 12 -47 28
-13 15 -50 33 -82 39 -74 15 -74 31 -6 138 l55 85 12 -88 c9 -65 30 -104 76
-145 88 -79 111 -71 52 16 -41 60 -49 97 -49 214 l0 142 -110 -109 c-60 -60
-110 -102 -110 -93 0 40 52 111 143 196 105 97 134 218 57 232 -30 6 -181
-156 -187 -201 -8 -53 -59 -154 -78 -154 -20 0 -13 71 17 180 l14 50 -56 -50
c-45 -41 -51 -43 -33 -10 46 83 96 130 203 189 134 74 159 71 210 -24z m1666
-218 c-9 -62 -46 -67 -46 -7 0 28 12 50 26 50 16 0 24 -18 20 -43z m135 -212
c-8 -31 -5 -44 8 -35 32 19 24 -75 -11 -120 -28 -38 -30 -36 -27 40 1 44 -4
99 -11 122 -9 30 -4 41 20 41 25 0 30 -12 21 -48z m20 -289 c-39 -57 -45 1 -7
70 21 38 25 39 32 9 4 -19 -7 -54 -25 -79z m53 -96 c8 -54 -13 -100 -46 -100
-23 0 -31 139 -9 148 40 17 47 12 55 -48z m36 -191 c0 -56 -8 -69 -40 -69 -46
0 -60 130 -15 146 41 14 55 -5 55 -77z"/>
<path d="M1875 4426 c-19 -5 -35 -18 -35 -30 0 -11 14 -15 32 -8 17 7 44 12
60 12 15 0 28 9 28 20 0 21 -24 22 -85 6z"/>
<path d="M2179 4020 c-1 -38 -5 -88 -10 -110 -15 -85 -34 -819 -19 -806 8 7
18 102 21 210 4 108 14 232 22 276 19 111 21 447 3 476 -9 14 -16 -6 -17 -46z"/>
<path d="M1865 3269 c-16 -17 -17 -31 -4 -39 11 -7 15 -21 8 -31 -6 -10 -1
-35 11 -54 19 -28 21 -29 13 -2 -5 17 -3 40 6 50 28 32 -5 107 -34 76z"/>
<path d="M1160 1686 c-252 -101 -264 -179 -17 -108 90 26 142 31 169 18 37
-18 37 -17 -1 13 -21 17 -48 31 -59 31 -12 0 -1 14 24 31 109 77 54 84 -116
15z"/>
<path d="M1510 1146 c-66 -16 -83 -46 -26 -46 28 0 62 14 76 30 25 31 20 33
-50 16z"/>
<path d="M4200 4936 c-198 -170 -260 -212 -300 -202 -29 8 -40 1 -40 -24 0
-22 -10 -30 -30 -23 -16 7 -30 2 -30 -9 0 -11 -46 -69 -103 -129 -107 -113
-107 -141 -1 -64 169 123 384 296 483 389 119 111 136 161 21 62z"/>
<path d="M4592 4368 c-9 -24 -4 -29 19 -20 18 6 45 12 61 12 15 0 28 9 28 20
0 33 -95 22 -108 -12z"/>
<path d="M2856 4234 c46 -48 64 -85 64 -133 0 -37 6 -61 14 -54 15 16 11 162
-7 221 -9 30 -15 32 -28 10 -14 -22 -22 -23 -42 -3 -14 14 -34 25 -45 25 -11
0 9 -30 44 -66z"/>
<path d="M3020 4139 c0 -9 11 -21 25 -27 20 -10 20 -14 0 -24 -14 -6 -25 -31
-25 -55 0 -37 6 -34 40 22 22 36 50 65 63 65 43 0 2 23 -51 29 -29 3 -52 -2
-52 -10z"/>
<path d="M3220 4090 c-14 -16 -41 -30 -61 -30 -37 0 -65 -29 -72 -77 -2 -16 8
-22 26 -15 17 7 46 12 64 12 20 0 48 30 66 70 33 72 21 93 -23 40z"/>
<path d="M3103 3800 l1 -130 19 96 c12 61 11 108 -2 130 -14 25 -19 0 -18 -96z"/>
<path d="M2916 3635 c5 -80 17 -154 28 -165 14 -14 16 28 7 130 -18 195 -45
222 -35 35z"/>
<path d="M3942 2889 c-65 -95 -40 -108 45 -23 39 39 65 75 58 82 -26 26 -57 9
-103 -59z"/>
<path d="M3961 2771 c-27 -32 -42 -331 -18 -331 20 0 38 98 34 184 -2 41 8 88
23 106 18 21 20 38 6 52 -13 13 -28 9 -45 -11z"/>
<path d="M2225 2712 c-6 -10 7 -14 29 -8 22 6 54 3 71 -7 36 -20 100 -1 84 25
-14 22 -169 14 -184 -10z"/>
<path d="M2487 2717 c32 -18 35 -37 24 -127 -11 -84 -7 -107 18 -117 31 -12
28 -40 -14 -127 -15 -33 -14 -53 4 -75 21 -25 20 -33 -7 -43 -38 -15 -43 -48
-6 -48 14 0 25 -18 25 -40 0 -22 -5 -40 -13 -40 -7 0 -9 -33 -4 -74 4 -41 1
-68 -8 -59 -19 20 -83 -525 -85 -727 -1 -82 -20 -307 -42 -500 -57 -502 -49
-747 27 -736 39 6 56 264 21 320 -5 9 4 11 19 5 23 -9 29 21 32 155 2 91 12
220 22 286 10 66 24 291 31 500 15 465 19 517 41 552 20 32 25 418 5 406 -8
-5 -7 17 2 47 9 34 26 53 46 50 23 -4 29 5 21 35 -6 22 -21 40 -34 40 -16 0
-21 25 -16 70 5 39 -2 83 -15 98 -27 34 5 63 44 39 17 -10 16 -4 -2 19 -16 19
-40 34 -55 34 -59 0 -26 58 37 66 41 5 24 9 -45 10 -87 2 -102 -2 -73 -19z"/>
<path d="M3140 2609 c0 -76 46 -321 63 -339 12 -13 15 9 9 60 -6 44 -16 132
-23 195 -10 101 -49 167 -49 84z"/>
<path d="M4340 2580 c-24 -16 -22 -19 14 -20 24 0 56 -13 72 -29 25 -25 32
-22 51 20 24 54 -69 73 -137 29z"/>
<path d="M3249 2420 c5 -49 15 -133 21 -185 13 -96 -19 -139 -36 -50 -7 39 -9
37 -11 -10 -2 -42 6 -55 37 -55 43 0 41 290 -2 360 -13 20 -16 0 -9 -60z"/>
<path d="M4385 2447 l-65 -27 30 -73 c16 -39 30 -88 30 -108 0 -24 14 -35 40
-34 43 4 56 35 15 35 -18 1 -19 5 -2 15 22 14 34 65 29 121 -1 15 -11 21 -22
14 -11 -7 -20 1 -20 17 0 16 11 34 25 39 14 5 21 13 15 18 -5 6 -39 -2 -75
-17z"/>
<path d="M2251 2275 c-7 -36 -15 -129 -19 -208 -4 -79 -13 -153 -20 -164 -17
-27 26 -53 49 -30 26 26 36 302 12 326 -13 13 -12 37 4 71 28 63 28 70 4 70
-11 0 -24 -29 -30 -65z"/>
<path d="M4428 2148 c7 -17 12 -85 12 -150 0 -65 7 -118 15 -118 9 0 14 47 11
105 -2 58 -5 125 -5 150 -1 25 -11 45 -23 45 -12 0 -17 -14 -10 -32z"/>
<path d="M2360 1976 c-1 -25 -5 -109 -10 -186 -7 -106 -5 -123 9 -70 26 105
37 280 18 292 -9 6 -17 -10 -17 -36z"/>
<path d="M4320 1960 c-25 -16 -24 -19 6 -20 20 0 31 -8 25 -18 -6 -10 3 -23
21 -30 44 -17 43 -17 33 38 -10 53 -36 62 -85 30z"/>
<path d="M2222 1765 c-3 -41 -9 -102 -13 -135 -3 -33 -17 -154 -30 -270 -27
-235 -101 -579 -158 -730 -20 -55 -71 -208 -112 -340 -42 -132 -79 -251 -84
-265 -6 -16 10 -25 44 -25 45 0 52 7 41 40 -8 25 -4 40 12 40 14 0 41 14 60
32 44 40 78 21 78 -42 0 -26 9 -53 20 -60 12 -7 20 -6 18 4 -1 9 -1 21 1 26 2
6 8 35 14 67 5 31 26 101 48 155 48 122 48 118 -1 118 -51 0 -54 70 -5 99 26
15 29 24 11 36 -19 13 -18 29 3 70 15 30 33 106 40 169 7 64 21 173 32 242 27
169 40 342 41 534 2 280 -1 310 -28 310 -16 0 -28 -30 -32 -75z"/>
<path d="M5740 1773 c0 -17 139 -85 205 -101 46 -11 55 -6 55 26 0 26 -18 42
-55 50 -141 28 -205 35 -205 25z"/>
<path d="M3333 1610 c7 -44 20 -83 30 -87 24 -9 21 -63 -4 -63 -13 0 -14 -12
-2 -35 19 -37 62 -365 65 -508 l2 -87 29 110 c31 119 22 297 -22 463 -9 31 -5
58 7 66 30 18 28 56 -2 46 -14 -4 -45 33 -70 84 l-45 91 12 -80z"/>
<path d="M4358 1635 c-1 -21 2 -223 6 -385 1 -22 13 -156 28 -299 15 -142 23
-263 18 -267 -4 -5 4 -33 18 -62 15 -28 22 -65 17 -80 -7 -20 0 -24 22 -16 42
16 43 -13 2 -47 -17 -14 -26 -37 -21 -52 14 -36 -24 -55 -56 -28 -21 17 -30
12 -38 -19 -9 -34 -4 -39 28 -29 124 39 165 -57 68 -162 -79 -87 -80 -119 -5
-118 29 0 47 -8 40 -19 -6 -11 3 -13 22 -6 21 8 33 3 33 -17 0 -21 24 -29 90
-29 96 0 104 9 64 71 -14 21 -42 93 -62 159 -20 66 -44 138 -53 160 -9 22 -20
63 -26 90 -5 28 -24 100 -42 160 -54 176 -111 625 -111 867 0 124 -35 230 -42
128z"/>
<path d="M5880 1622 c84 -49 120 -52 120 -12 0 17 -12 30 -27 30 -16 0 -58 5
-95 11 l-68 11 70 -40z"/>
<path d="M5893 1495 c-50 -50 -69 -51 -247 -14 -213 45 -174 -40 49 -110 259
-82 282 -164 40 -146 -69 5 -142 16 -162 25 -33 14 -34 12 -11 -27 15 -23 50
-50 77 -61 28 -10 94 -34 146 -53 94 -34 123 -79 65 -102 -39 -15 -18 -47 31
-47 22 0 39 -10 39 -22 0 -66 -204 34 -361 175 -123 112 -100 26 30 -110 281
-295 276 -621 -7 -498 -145 62 -151 51 -36 -67 145 -148 258 -314 244 -359
-13 -39 -50 -55 -50 -21 0 25 -220 162 -259 162 -114 1 -221 634 -133 777 18
29 52 11 52 -28 0 -16 65 -91 145 -167 148 -141 176 -217 40 -109 -41 33 -91
66 -110 73 -19 7 -35 22 -35 33 0 40 -56 20 -67 -24 -19 -70 -15 -95 13 -95
15 0 87 -37 161 -81 145 -87 199 -94 209 -25 19 132 -390 646 -514 646 -36 0
4 -83 49 -100 76 -29 79 -61 5 -48 -76 14 -136 73 -136 135 0 36 -114 131
-129 109 -30 -45 -147 -622 -138 -679 7 -42 3 -77 -10 -85 -14 -9 -13 -36 5
-88 14 -40 27 -123 28 -184 1 -60 15 -146 30 -190 l28 -80 123 -6 123 -6 -41
104 c-66 169 -183 398 -197 389 -8 -4 -15 9 -17 30 -3 52 6 49 71 -16 131
-134 317 -236 201 -110 -28 30 -56 70 -63 89 -7 19 -48 44 -92 55 -88 24 -103
39 -111 113 -6 56 70 22 125 -56 15 -20 53 -50 85 -67 33 -16 59 -40 59 -52 0
-12 27 -53 61 -91 33 -38 66 -96 72 -128 7 -32 20 -58 30 -58 9 0 17 -13 17
-29 0 -16 22 -53 50 -82 27 -30 44 -62 38 -72 -5 -9 8 -17 31 -17 36 0 38 5
16 40 -13 22 -32 40 -40 40 -19 0 -60 102 -46 115 5 5 61 -36 124 -93 108 -96
121 -102 224 -102 l108 0 -14 105 c-7 58 -28 162 -47 231 -26 100 -28 132 -8
160 88 122 145 418 94 490 -37 53 -38 92 -3 132 55 63 55 153 2 203 -62 59
-62 106 1 155 28 22 50 45 50 52 0 29 -65 8 -107 -33z m-733 -460 c0 8 9 2 19
-15 15 -24 24 -25 44 -5 14 14 37 25 52 25 15 0 2 -22 -29 -49 -42 -37 -48
-50 -23 -50 48 -1 63 -61 25 -103 -26 -29 -30 -59 -20 -135 12 -93 -40 -177
-64 -104 -4 11 -19 21 -32 21 -31 0 -35 23 -39 195 -2 90 -12 142 -31 157 -49
38 -12 91 47 68 28 -10 51 -12 51 -5z m-53 -841 c44 -114 45 -169 2 -133 -41
34 -93 160 -80 193 18 48 45 27 78 -60z"/>
<path d="M5650 1091 c37 -31 86 -50 128 -50 87 -1 70 15 -63 61 -135 47 -136
47 -65 -11z"/>
<path d="M3733 767 c-19 -19 -16 -127 3 -127 9 0 17 32 18 70 2 74 1 78 -21
57z"/>
<path d="M3723 564 c3 -30 -1 -65 -10 -79 -8 -14 -9 -35 -2 -47 7 -11 -6 -34
-29 -51 -45 -31 -56 -67 -21 -67 74 0 162 168 114 219 -20 21 -20 28 0 35 39
14 30 37 -16 41 -34 2 -41 -7 -36 -51z"/>
<path d="M1404 413 c-1 -128 34 -205 38 -83 2 44 1 88 0 97 -2 10 10 13 27 6
39 -15 40 21 2 58 -50 50 -66 32 -67 -78z"/>
<path d="M5434 349 c50 -90 81 -108 57 -33 -13 41 -78 124 -97 124 -6 0 12
-41 40 -91z"/>
<path d="M1811 324 c-8 -48 -10 -92 -4 -97 14 -15 39 124 28 157 -5 14 -16
-13 -24 -60z"/>
<path d="M3770 273 c-19 -36 -31 -79 -25 -95 7 -18 18 -7 34 32 13 33 38 76
55 95 28 30 28 35 2 35 -16 0 -46 -30 -66 -67z"/>
<path d="M5280 203 c0 -100 1 -102 40 -69 23 20 31 39 19 47 -11 7 -15 26 -9
42 7 17 -2 42 -19 56 -27 23 -31 14 -31 -76z"/>
<path d="M2900 170 c0 -17 18 -30 40 -30 22 0 40 13 40 30 0 17 -18 30 -40 30
-22 0 -40 -13 -40 -30z"/>
<path d="M5380 75 c0 -41 9 -75 20 -75 25 0 25 81 0 120 -14 22 -19 11 -20
-45z"/>
<path d="M2933 47 c-27 -27 -12 -47 36 -47 36 0 47 8 38 30 -12 31 -50 40 -74
17z"/>
</g>
</svg>
