<?xml version="1.0" standalone="no"?>
<!DOCTYPE svg PUBLIC "-//W3C//DTD SVG 20010904//EN"
 "http://www.w3.org/TR/2001/REC-SVG-20010904/DTD/svg10.dtd">
<svg version="1.0" xmlns="http://www.w3.org/2000/svg"
 width="900.000000pt" height="1200.000000pt" viewBox="0 0 900.000000 1200.000000"
 preserveAspectRatio="xMidYMid meet">
<metadata>
Created by potrace 1.10, written by Peter Selinger 2001-2011
</metadata>
<g transform="translate(0.000000,1200.000000) scale(0.100000,-0.100000)"
fill="#000000" stroke="none">
<path d="M3555 11931 c-155 -56 -263 -130 -346 -241 -52 -68 -71 -105 -97
-182 -29 -88 -34 -136 -11 -123 5 3 25 31 45 62 27 40 49 60 79 73 31 13 51
32 73 69 26 42 38 52 74 61 71 18 70 17 63 50 -7 34 0 38 27 14 14 -14 20 -14
33 -4 8 7 15 23 15 36 0 14 8 25 20 29 11 3 42 24 70 46 27 21 52 39 55 39 16
0 75 57 75 73 0 14 -9 17 -62 16 -35 0 -85 -8 -113 -18z"/>
<path d="M4638 11943 c-22 -6 -24 -23 -3 -23 9 0 19 -8 22 -17 9 -25 23 -33
59 -33 17 0 46 -10 65 -23 19 -13 41 -26 49 -31 98 -49 115 -62 120 -91 4 -24
11 -31 34 -33 16 -2 52 -21 80 -42 28 -21 66 -45 83 -54 26 -13 34 -24 39 -56
7 -42 26 -66 59 -72 12 -2 21 -13 23 -27 2 -13 11 -25 20 -28 10 -2 32 -33 51
-68 29 -53 32 -66 22 -79 -11 -13 -10 -17 3 -22 27 -10 86 -150 86 -204 0 -26
8 -67 19 -91 10 -24 21 -61 24 -83 5 -32 3 -39 -13 -43 -29 -8 -24 -29 10 -50
21 -12 28 -22 24 -33 -17 -39 0 -70 39 -70 24 0 88 -50 81 -62 -4 -6 -22 -8
-42 -5 -47 8 -90 -12 -151 -69 -52 -49 -57 -63 -45 -123 5 -22 12 -31 26 -31
15 0 18 5 13 20 -4 14 -1 22 10 27 14 5 16 14 12 48 -9 65 25 83 97 49 27 -13
37 -26 46 -60 7 -24 10 -50 7 -59 -4 -8 5 -31 18 -51 14 -20 29 -53 35 -73 12
-42 13 -151 2 -151 -20 0 -62 53 -62 79 0 34 -27 61 -61 61 -14 0 -30 5 -35
10 -17 17 -135 44 -143 32 -8 -14 -6 -140 3 -179 7 -27 4 -36 -19 -58 -33 -30
-28 -40 14 -30 29 6 31 10 31 50 0 24 4 46 9 49 4 3 11 19 14 36 8 37 26 38
57 5 13 -14 31 -25 40 -25 27 0 39 -21 33 -54 -7 -40 -28 -63 -78 -88 -22 -12
-43 -25 -46 -31 -7 -10 -50 -6 -81 7 -11 5 -18 2 -22 -12 -10 -29 10 -72 33
-72 20 0 118 63 136 87 6 8 30 17 53 20 31 4 50 14 72 39 16 19 33 33 37 32
18 -7 -2 -47 -47 -94 -46 -49 -48 -53 -43 -94 l6 -43 -41 5 c-51 7 -66 -6 -47
-43 14 -27 11 -59 -5 -59 -4 0 -31 -16 -59 -35 -56 -39 -83 -43 -130 -19 -39
20 -61 12 -61 -20 0 -19 10 -29 43 -45 48 -23 82 -26 123 -11 39 15 50 -1 28
-42 -10 -18 -25 -40 -32 -49 -7 -9 -15 -54 -17 -103 -3 -47 -9 -95 -15 -105
-7 -14 -6 -27 4 -47 13 -23 13 -32 -1 -65 -11 -30 -13 -48 -5 -84 5 -25 8 -54
5 -64 -3 -10 2 -32 11 -49 9 -17 16 -43 16 -57 0 -15 4 -34 9 -43 5 -9 14 -69
20 -132 7 -63 15 -122 18 -130 4 -8 7 -26 7 -40 1 -15 8 -26 19 -28 21 -4 22
26 6 164 -16 138 -15 141 73 148 40 4 112 6 159 5 52 0 90 4 94 10 3 6 31 11
61 11 30 0 54 4 54 8 0 5 -35 9 -78 9 -51 0 -90 6 -113 17 -35 16 -54 15 -216
-10 -39 -6 -42 -5 -58 26 -9 17 -14 38 -11 47 3 8 8 65 11 126 12 261 18 336
35 412 21 99 25 106 117 228 61 81 79 114 103 190 17 50 30 109 30 132 1 22 7
79 14 127 17 116 9 168 -53 338 -11 30 -20 74 -21 98 0 24 -6 71 -14 105 -8
34 -22 103 -32 152 -9 50 -22 104 -29 120 -32 78 -44 112 -50 135 -6 23 -33
87 -72 166 -63 131 -230 326 -348 405 -44 30 -86 60 -94 67 -7 7 -32 22 -55
34 -22 11 -53 29 -68 40 -55 39 -189 60 -260 41z"/>
<path d="M3811 11831 c-11 -7 -9 -10 8 -16 22 -7 41 0 41 16 0 11 -30 12 -49
0z"/>
<path d="M4682 11818 c6 -18 28 -21 28 -4 0 9 -7 16 -16 16 -9 0 -14 -5 -12
-12z"/>
<path d="M3660 11785 c0 -19 9 -19 34 0 19 14 19 15 -7 15 -17 0 -27 -5 -27
-15z"/>
<path d="M3220 11417 c-65 -62 -103 -114 -176 -239 -21 -37 -44 -68 -51 -68
-13 0 -51 -59 -70 -110 -30 -76 -52 -180 -62 -290 -15 -167 -21 -182 -107
-267 -41 -40 -82 -73 -91 -73 -23 0 -119 -97 -136 -138 -33 -83 -47 -140 -47
-192 0 -45 5 -59 24 -77 13 -13 28 -23 34 -23 5 0 15 -7 22 -15 7 -9 29 -15
50 -15 21 0 52 -8 68 -17 38 -22 125 -9 130 20 7 36 -17 48 -78 41 -46 -5 -66
-2 -104 14 -26 12 -46 28 -46 36 0 9 -6 16 -13 16 -28 0 -54 37 -49 69 2 17 8
34 13 37 5 3 9 14 9 24 0 27 54 104 114 161 36 35 111 73 125 65 6 -4 11 -31
11 -60 0 -71 26 -146 51 -146 24 0 24 -15 -1 -47 -11 -14 -20 -32 -20 -39 0
-16 31 -34 57 -34 11 0 36 -15 56 -34 31 -28 37 -40 37 -75 0 -23 7 -56 16
-73 15 -28 15 -40 4 -102 -7 -39 -18 -77 -23 -84 -7 -8 -6 -25 1 -50 6 -20 14
-77 17 -126 4 -49 13 -108 21 -130 7 -23 14 -49 14 -59 0 -10 9 -43 20 -75 14
-40 18 -70 14 -102 -4 -30 0 -60 11 -90 9 -25 19 -54 21 -65 13 -52 28 -101
35 -110 4 -5 10 -24 13 -40 4 -17 19 -44 35 -61 15 -16 40 -48 54 -71 14 -23
31 -44 37 -48 19 -12 10 -55 -15 -77 -15 -13 -23 -28 -20 -38 9 -30 -4 -51
-25 -40 -13 7 -21 7 -25 0 -8 -13 3 -30 19 -30 8 0 25 -15 40 -34 24 -32 25
-36 11 -63 -8 -15 -15 -52 -15 -81 0 -44 4 -56 26 -75 22 -19 25 -28 20 -59
-6 -38 -6 -38 27 -38 26 0 36 -6 45 -25 6 -14 19 -25 27 -25 9 0 20 11 25 25
12 30 37 33 42 4 4 -28 98 -61 150 -53 20 3 45 1 55 -4 14 -8 20 -3 35 30 10
22 18 42 18 43 0 9 -69 25 -105 25 -26 0 -48 6 -56 16 -7 9 -21 13 -34 10 -15
-4 -28 2 -43 19 -28 33 -46 32 -38 0 8 -33 -12 -33 -24 0 -5 14 -22 31 -37 37
-34 14 -62 47 -63 71 0 25 15 21 43 -13 22 -25 27 -27 37 -15 17 20 27 19 33
-5 8 -29 20 -25 42 16 18 34 18 37 2 49 -16 11 -23 34 -46 150 -16 76 -73 177
-165 291 -18 23 -40 65 -50 93 -15 48 -15 54 1 103 19 60 74 125 120 144 17 8
34 18 38 24 3 5 16 10 28 10 12 0 51 11 87 24 36 13 88 30 115 36 28 7 57 19
65 26 9 8 53 13 117 15 88 2 105 0 123 -16 27 -25 70 -7 70 29 0 19 8 27 34
36 46 15 50 33 20 78 -37 53 -54 61 -54 22 0 -34 -22 -49 -45 -30 -19 16 -34
5 -51 -36 -13 -30 -17 -33 -47 -28 -17 3 -45 10 -61 15 -46 14 -96 11 -96 -6
0 -8 5 -15 10 -15 6 0 10 -7 10 -15 0 -18 -48 -20 -85 -3 -22 10 -28 8 -46
-10 -25 -27 -33 -27 -68 -1 -34 25 -114 24 -119 -2 -2 -10 6 -19 19 -22 32 -9
18 -31 -28 -42 -23 -6 -50 -18 -60 -28 -21 -19 -44 -22 -58 -8 -6 5 -26 11
-46 15 -31 5 -38 3 -58 -25 -18 -24 -25 -28 -37 -18 -8 6 -14 21 -14 34 0 23
42 86 79 119 25 22 27 42 6 50 -20 7 -19 39 3 58 9 9 33 21 53 27 20 6 48 25
62 41 l26 29 -27 3 c-33 4 -42 34 -13 43 47 15 3 65 -57 65 -18 0 -51 10 -74
21 -39 20 -42 20 -54 4 -8 -10 -15 -22 -17 -28 -4 -13 -24 -1 -36 22 -7 12 -5
27 5 47 8 15 14 43 12 62 -2 26 4 40 31 68 19 19 44 34 57 34 13 0 28 8 33 19
6 10 27 22 47 26 35 6 36 7 31 42 -4 19 -9 38 -13 42 -3 3 -22 -13 -43 -36
-44 -50 -109 -89 -124 -74 -15 15 9 56 63 108 42 41 45 47 47 101 1 31 2 59 2
61 1 2 10 -7 21 -20 17 -21 21 -22 30 -9 6 8 9 26 8 40 -2 19 -10 26 -30 28
-16 2 -28 8 -28 13 0 20 21 49 35 49 27 0 26 21 -3 49 -20 18 -37 49 -48 87
-9 32 -25 70 -35 83 -11 13 -19 34 -19 46 0 21 -5 23 -46 23 -27 -1 -51 5 -59
13 -13 13 -12 18 10 41 13 14 30 28 37 31 7 2 10 8 6 12 -4 4 -19 0 -32 -9
-29 -18 -86 -22 -86 -5 0 7 16 26 35 45 19 18 35 37 35 43 0 6 9 15 20 21 12
6 20 21 20 35 0 14 15 42 35 64 22 24 35 49 35 65 0 22 4 26 19 21 23 -7 36
10 21 27 -6 7 -17 22 -24 32 -12 18 -14 18 -32 -8 -10 -15 -40 -57 -66 -92
-27 -36 -48 -69 -48 -75 0 -5 -7 -12 -15 -15 -8 -4 -15 -17 -15 -30 0 -32 -21
-74 -37 -74 -17 0 -17 9 2 30 9 10 17 46 20 93 6 100 30 144 103 195 28 20 32
29 32 66 0 26 6 48 15 56 8 6 17 22 21 33 7 23 19 39 78 99 20 21 34 43 31 51
-3 7 1 20 10 27 8 7 15 20 15 30 0 10 7 23 15 30 8 7 15 19 15 28 0 8 6 23 14
31 12 13 12 20 2 38 -11 22 -13 22 -76 -40z m-212 -953 c14 -3 37 -26 60 -62
33 -51 38 -66 44 -147 4 -49 9 -117 12 -150 4 -49 2 -67 -15 -94 -16 -27 -24
-32 -52 -29 -30 3 -32 5 -32 45 0 48 -9 61 -30 43 -19 -16 -25 -10 -28 26 -2
22 3 29 22 34 31 7 43 39 25 65 -20 29 -18 55 5 55 11 0 23 5 26 10 4 6 -13
10 -44 10 -39 0 -55 -5 -71 -22 -19 -21 -21 -21 -56 -4 l-36 17 6 57 c4 31 6
69 6 85 0 16 10 37 25 52 25 26 45 27 133 9z m-63 -284 c3 -5 -1 -10 -9 -10
-8 0 -18 5 -21 10 -3 6 1 10 9 10 8 0 18 -4 21 -10z m206 -680 c32 -14 39 -44
13 -58 -9 -5 -30 -35 -48 -67 -38 -71 -56 -81 -56 -31 0 20 -5 67 -12 105 -9
54 -9 75 0 96 l12 27 31 -30 c17 -17 44 -36 60 -42z m262 -1116 c3 -4 -4 -20
-16 -38 -12 -17 -23 -33 -25 -36 -4 -7 -22 23 -22 38 0 6 6 12 14 12 8 0 16 7
20 15 6 16 18 19 29 9z"/>
<path d="M3691 11033 c-13 -3 -46 -19 -73 -35 -38 -23 -46 -33 -36 -39 8 -5
30 -4 49 1 19 5 55 15 82 22 39 10 47 16 47 35 0 24 -12 26 -69 16z"/>
<path d="M5319 10990 c-12 -8 -11 -12 4 -27 16 -16 18 -16 33 -1 15 15 15 17
-3 26 -11 7 -25 7 -34 2z"/>
<path d="M3901 10976 c-52 -19 -54 -40 -3 -31 33 5 47 2 79 -18 52 -33 93 -88
93 -126 0 -16 7 -36 15 -45 8 -8 15 -23 15 -34 0 -11 7 -25 15 -32 8 -7 20
-31 26 -53 16 -61 35 -85 64 -80 13 3 38 -2 56 -11 42 -21 49 -20 49 7 -1 23
-29 49 -68 61 -12 4 -32 26 -43 49 -12 23 -33 57 -47 76 -21 28 -23 37 -14 52
17 26 15 29 -13 29 -26 0 -29 4 -39 52 -5 20 -1 32 13 44 24 21 17 44 -13 44
-13 0 -26 3 -30 7 -3 4 -14 8 -24 9 -9 1 -35 4 -57 7 -23 4 -55 1 -74 -7z"/>
<path d="M3205 10950 c-4 -6 -3 -16 3 -22 6 -6 12 -6 17 2 4 6 3 16 -3 22 -6
6 -12 6 -17 -2z"/>
<path d="M3430 10832 c-52 -26 -113 -59 -135 -72 -58 -37 -75 -47 -124 -72
-49 -25 -97 -65 -89 -73 3 -3 18 1 34 9 16 8 56 27 89 42 33 14 73 32 89 40
16 8 36 14 44 14 9 0 26 9 38 21 12 11 40 23 62 26 30 4 53 17 87 49 45 42 51
64 17 64 -9 -1 -60 -22 -112 -48z"/>
<path d="M3867 10850 c-3 -13 -3 -58 0 -100 5 -71 4 -78 -19 -105 -26 -29 -95
-54 -155 -55 -34 0 -80 -17 -101 -37 -18 -17 -27 -16 -46 3 -17 16 -19 27 -16
87 2 46 -17 97 -36 97 -17 0 -18 -63 -5 -225 11 -131 16 -147 45 -143 18 3 21
9 19 43 -1 22 3 54 8 71 8 25 16 33 45 37 23 4 45 0 65 -11 24 -13 33 -14 36
-5 11 30 40 54 68 56 24 2 31 -2 33 -21 2 -13 -3 -24 -12 -28 -9 -3 -16 -10
-16 -14 0 -13 42 1 70 22 22 18 35 19 125 13 134 -10 149 -16 141 -58 -3 -17
-7 -62 -9 -98 -5 -106 -62 -175 -214 -255 -76 -40 -83 -61 -19 -48 79 14 266
168 266 217 0 14 5 29 10 32 6 3 10 30 10 59 0 42 5 57 24 75 25 23 25 51 1
71 -9 7 -16 6 -25 -5 -17 -20 -29 -19 -49 6 -12 15 -34 23 -78 28 -62 7 -93
23 -93 46 0 20 27 37 62 38 26 2 33 6 33 22 0 14 -7 20 -22 20 -13 0 -28 6
-35 13 -7 7 -20 12 -29 12 -25 0 -32 16 -31 67 0 32 -6 51 -22 70 l-23 26 -6
-23z"/>
<path d="M4287 10826 c-4 -9 -23 -16 -49 -18 -35 -2 -43 -7 -43 -23 0 -28 50
-34 64 -7 14 26 59 34 127 21 46 -9 63 -7 97 6 22 9 59 15 80 13 26 -2 42 2
44 10 7 19 -313 17 -320 -2z"/>
<path d="M5145 10750 c-3 -5 5 -15 19 -22 27 -12 35 -37 14 -39 -7 -1 -38 -3
-68 -4 -30 -1 -68 -7 -85 -14 -26 -11 -28 -14 -13 -22 9 -5 29 -8 45 -7 84 6
211 -3 228 -16 18 -13 18 -17 6 -51 -7 -20 -10 -39 -7 -42 7 -7 118 68 123 83
2 7 -17 25 -42 40 -25 16 -62 39 -81 52 -19 12 -48 22 -63 22 -16 0 -31 7 -35
15 -6 17 -32 20 -41 5z"/>
<path d="M4483 10678 c-29 -14 -30 -28 -2 -28 28 0 61 19 54 31 -8 11 -24 11
-52 -3z"/>
<path d="M4801 10679 c-13 -5 -21 -12 -18 -15 9 -9 57 5 57 16 0 12 -7 12 -39
-1z"/>
<path d="M4574 10665 c-18 -14 -18 -14 9 -15 15 0 27 4 27 9 0 18 -17 20 -36
6z"/>
<path d="M4923 10673 c-24 -9 -13 -23 18 -23 20 0 29 4 27 13 -5 13 -26 18
-45 10z"/>
<path d="M3294 10645 c-4 -9 -40 -31 -82 -50 -78 -36 -86 -52 -26 -46 39 3 55
-19 36 -50 -7 -10 -12 -26 -12 -34 0 -17 105 -125 121 -125 13 0 12 2 -17 55
-25 44 -26 51 -15 97 6 27 11 65 11 83 0 19 4 45 10 59 8 21 6 26 -6 26 -8 0
-17 -7 -20 -15z"/>
<path d="M4936 10481 c-9 -14 4 -41 19 -41 17 0 38 27 30 40 -8 12 -42 13 -49
1z"/>
<path d="M5034 10479 c-10 -17 13 -36 27 -22 12 12 4 33 -11 33 -5 0 -12 -5
-16 -11z"/>
<path d="M3747 10463 c-10 -9 -37 -71 -37 -84 0 -5 11 -9 24 -9 38 0 57 -11
67 -38 5 -14 13 -22 16 -18 20 19 44 136 29 136 -3 0 -17 -11 -32 -25 -31 -28
-51 -21 -56 22 -2 14 -7 21 -11 16z"/>
<path d="M5043 10400 c-13 -15 -23 -30 -23 -33 0 -14 52 -57 70 -57 18 0 20 5
16 45 -3 41 -19 76 -35 74 -3 0 -16 -13 -28 -29z"/>
<path d="M3897 10342 c-23 -25 -21 -34 8 -66 25 -27 45 -34 45 -16 0 6 9 30
20 52 11 23 20 43 20 45 0 2 -17 3 -38 3 -25 0 -45 -7 -55 -18z"/>
<path d="M3300 10292 c0 -20 57 -112 70 -112 4 0 33 -25 65 -55 32 -31 78 -73
104 -93 25 -20 56 -48 68 -62 l22 -25 1 33 c0 22 5 32 15 32 8 0 15 5 15 10 0
6 -11 10 -25 10 -13 0 -28 6 -32 13 -4 7 -28 25 -53 40 -43 25 -61 42 -131
129 -16 20 -40 38 -52 40 -13 2 -23 12 -27 28 -7 30 -40 41 -40 12z"/>
<path d="M5020 10302 c0 -6 5 -14 10 -17 7 -4 8 -23 5 -49 -5 -32 -3 -45 9
-55 20 -17 22 -89 2 -97 -21 -8 -27 -56 -15 -120 9 -46 8 -59 -4 -72 -10 -11
-13 -28 -10 -46 5 -23 1 -33 -18 -47 -19 -14 -21 -19 -9 -22 49 -16 51 -17 45
-36 -4 -13 1 -24 16 -35 l22 -15 -22 -36 c-11 -20 -21 -40 -21 -45 0 -14 55
-40 85 -40 24 0 25 3 25 54 0 44 -3 56 -19 61 -15 4 -17 13 -13 54 4 42 1 51
-17 60 -24 13 -28 31 -7 31 7 0 21 12 31 26 18 27 14 67 -11 116 -9 17 -10 29
-4 33 14 8 13 48 -1 62 -9 9 -9 23 1 58 10 34 10 52 2 68 -6 12 -13 35 -14 50
-2 19 -13 35 -35 48 -18 12 -33 16 -33 11z"/>
<path d="M3540 10256 c0 -35 38 -96 60 -96 33 0 35 39 3 73 -49 55 -63 60 -63
23z"/>
<path d="M2656 10188 c-1 -7 -11 -37 -20 -66 -9 -29 -14 -57 -11 -62 10 -16
45 -12 52 5 3 9 18 22 34 31 36 18 38 51 5 63 -13 5 -26 17 -29 25 -8 19 -26
21 -31 4z"/>
<path d="M3735 10063 c-52 -7 -63 -14 -37 -24 31 -12 99 -1 106 17 6 14 -5 15
-69 7z"/>
<path d="M4125 10050 c-7 -12 2 -30 16 -30 5 0 9 9 9 20 0 21 -15 27 -25 10z"/>
<path d="M4047 10044 c-8 -8 1 -24 14 -24 5 0 9 7 9 15 0 15 -12 20 -23 9z"/>
<path d="M4913 10015 c-7 -20 2 -29 21 -22 9 4 13 13 10 22 -8 19 -23 19 -31
0z"/>
<path d="M4970 10020 c0 -5 7 -10 15 -10 8 0 15 5 15 10 0 6 -7 10 -15 10 -8
0 -15 -4 -15 -10z"/>
<path d="M3835 9983 c-16 -2 -37 -6 -45 -9 -13 -4 -13 -6 0 -15 14 -9 84 -3
104 8 8 5 -14 24 -24 21 -3 0 -18 -3 -35 -5z"/>
<path d="M3607 9922 c-16 -17 -13 -20 39 -57 31 -22 62 -53 70 -70 l13 -30 1
33 c0 45 -34 109 -70 127 -36 19 -34 19 -53 -3z"/>
<path d="M2547 9893 c-14 -13 -6 -41 24 -99 48 -91 117 -173 145 -174 6 0 17
-7 24 -15 17 -20 113 -21 130 -1 6 8 21 16 32 18 12 2 23 9 26 17 4 10 -4 12
-34 7 -127 -21 -137 -20 -165 12 -29 32 -109 161 -109 175 0 8 -54 67 -63 67
-2 0 -7 -3 -10 -7z"/>
<path d="M5260 9876 c0 -8 4 -26 10 -40 13 -34 72 -46 100 -21 28 25 25 35 -9
35 -15 0 -40 9 -54 20 -30 24 -47 26 -47 6z"/>
<path d="M3388 9743 c-64 -4 -67 -9 -44 -74 11 -32 10 -39 -6 -59 -20 -25 -24
-50 -7 -50 24 0 85 45 100 74 13 26 22 31 56 34 31 2 47 -3 71 -22 40 -35 119
-36 162 -4 17 12 30 27 30 33 0 20 -22 34 -39 25 -9 -5 -31 -13 -50 -19 -31
-10 -35 -8 -62 20 -30 33 -76 50 -124 47 -16 -1 -56 -3 -87 -5z"/>
<path d="M3850 9709 c0 -6 9 -13 19 -16 11 -3 21 -13 24 -24 6 -21 27 -26 27
-6 0 16 -42 57 -58 57 -7 0 -12 -5 -12 -11z"/>
<path d="M4952 9673 c3 -32 35 -44 45 -17 4 11 -1 22 -12 30 -28 21 -37 17
-33 -13z"/>
<path d="M3446 9521 c-5 -7 2 -11 19 -11 14 0 36 -6 48 -14 12 -8 38 -17 57
-21 19 -4 68 -18 108 -32 40 -14 75 -23 78 -21 2 3 1 19 -2 36 -5 25 -12 32
-31 32 -13 0 -34 6 -46 14 -29 19 -221 33 -231 17z"/>
<path d="M5093 9463 c-4 -9 -1 -19 5 -21 18 -6 14 -22 -10 -41 -20 -17 -20
-21 -9 -50 8 -17 17 -31 22 -31 19 0 7 -27 -16 -38 l-26 -12 28 -35 c33 -41
46 -43 67 -13 21 29 20 40 -5 96 -17 36 -19 50 -10 64 17 27 13 69 -6 84 -24
18 -32 17 -40 -3z"/>
<path d="M4563 9448 c-17 -19 -19 -28 -11 -48 l10 -25 12 32 c6 17 14 35 19
39 4 4 7 11 7 16 0 15 -16 8 -37 -14z"/>
<path d="M4827 9324 c-13 -13 -7 -24 14 -24 11 0 19 5 17 12 -5 14 -22 21 -31
12z"/>
<path d="M4066 9252 c-9 -14 23 -52 39 -46 12 5 12 9 -2 30 -16 25 -28 30 -37
16z"/>
<path d="M4166 9234 c-4 -9 -4 -19 -1 -22 3 -3 11 0 17 6 9 9 9 15 1 23 -7 7
-12 5 -17 -7z"/>
<path d="M5077 9134 c-4 -4 -7 -15 -7 -25 0 -10 -7 -22 -16 -27 -12 -7 -15
-19 -12 -40 3 -20 0 -33 -9 -36 -7 -3 -18 -17 -25 -31 -6 -14 -19 -25 -29 -25
-26 0 -33 -18 -16 -43 23 -35 9 -98 -26 -115 -28 -13 -34 -36 -18 -61 8 -12
15 -13 34 -4 18 8 28 27 41 71 11 41 24 65 41 76 17 11 25 26 25 44 0 45 20
101 41 116 16 11 20 23 17 57 -3 42 -22 62 -41 43z"/>
<path d="M4414 9076 c-3 -8 -4 -22 -2 -30 2 -13 7 -12 28 4 21 17 23 21 10 30
-21 13 -30 12 -36 -4z"/>
<path d="M3775 9052 c-6 -5 -35 -17 -65 -27 -30 -10 -59 -21 -65 -25 -30 -22
-150 -60 -209 -66 -47 -5 -76 -14 -94 -28 -15 -12 -39 -27 -54 -34 -16 -6 -28
-18 -28 -25 0 -19 39 -53 83 -71 22 -9 36 -20 32 -26 -9 -14 17 -70 31 -70 7
0 27 14 45 31 18 17 49 38 68 47 42 20 52 47 20 57 -15 5 -26 2 -34 -8 -11
-15 -56 -37 -76 -37 -17 0 -9 19 20 52 28 31 31 32 61 21 27 -10 38 -10 64 4
17 9 37 24 44 34 7 10 28 21 47 25 19 3 39 12 46 20 6 8 20 14 31 14 26 0 100
76 96 98 -4 19 -47 28 -63 14z"/>
<path d="M4166 9003 c-31 -16 -32 -24 -8 -39 21 -13 82 9 82 30 0 20 -43 25
-74 9z"/>
<path d="M5910 8964 c0 -11 5 -14 16 -10 9 3 20 6 25 6 5 0 9 5 9 10 0 6 -11
10 -25 10 -16 0 -25 -6 -25 -16z"/>
<path d="M4215 8920 c-7 -12 2 -30 16 -30 12 0 12 27 0 35 -5 3 -12 1 -16 -5z"/>
<path d="M3889 8883 c-1 -5 -2 -14 -3 -21 0 -7 -7 -16 -15 -21 -17 -11 1 -23
22 -15 16 6 29 42 21 56 -6 10 -24 11 -25 1z"/>
<path d="M3663 8828 c-2 -5 3 -8 12 -8 8 0 24 -6 35 -12 21 -13 50 -3 57 18 4
12 -96 13 -104 2z"/>
<path d="M5885 8787 c-21 -16 -13 -37 14 -37 18 0 61 31 61 44 0 11 -56 6 -75
-7z"/>
<path d="M6150 8765 c0 -10 7 -15 18 -13 21 4 19 22 -2 26 -10 2 -16 -3 -16
-13z"/>
<path d="M5908 8693 c-9 -9 -39 -28 -65 -42 -49 -27 -62 -53 -30 -59 12 -3 39
18 78 57 32 34 53 61 46 61 -7 0 -20 -7 -29 -17z"/>
<path d="M4866 8665 c-26 -11 -73 -81 -62 -93 9 -8 84 60 90 81 7 27 7 27 -28
12z"/>
<path d="M6326 8631 c-23 -36 -13 -77 30 -127 23 -27 46 -46 49 -42 8 8 -43
118 -55 118 -5 0 -10 15 -12 33 -2 23 -6 28 -12 18z"/>
<path d="M5570 8601 c-5 -11 -26 -25 -45 -31 -42 -14 -65 -47 -39 -57 9 -3 33
0 53 7 20 8 54 16 75 19 53 8 69 35 37 62 -30 24 -67 24 -81 0z"/>
<path d="M3563 8585 c-7 -19 13 -36 37 -32 8 1 15 11 15 22 0 26 -42 34 -52
10z"/>
<path d="M4000 8580 c0 -5 7 -10 15 -10 8 0 15 5 15 10 0 6 -7 10 -15 10 -8 0
-15 -4 -15 -10z"/>
<path d="M4767 8553 c-10 -9 -8 -33 2 -33 5 0 11 9 14 20 5 20 -3 26 -16 13z"/>
<path d="M4643 8443 c-7 -2 -13 -9 -13 -14 0 -14 26 -10 40 6 10 12 10 15 -1
14 -8 0 -20 -3 -26 -6z"/>
<path d="M5538 8413 c-24 -6 -31 -37 -18 -77 17 -52 18 -543 1 -631 -14 -76
-16 -83 -30 -105 -5 -8 -23 -49 -41 -90 -55 -128 -59 -136 -83 -161 -22 -22
-34 -39 -79 -121 -9 -16 -30 -45 -47 -64 -17 -18 -31 -38 -31 -43 0 -15 -41
-35 -76 -36 -17 -1 -50 -15 -75 -31 -24 -16 -64 -39 -89 -51 -25 -13 -56 -38
-69 -57 l-23 -36 -92 6 c-50 3 -114 12 -143 20 -28 8 -68 14 -88 14 -32 0 -45
8 -86 50 -27 28 -53 50 -58 50 -5 0 -12 9 -16 19 -3 11 -15 23 -26 26 -11 4
-24 18 -29 31 -12 31 -30 31 -30 -1 0 -22 -4 -25 -39 -25 -44 0 -66 20 -57 52
9 35 -23 108 -66 153 -21 23 -38 46 -38 52 0 5 -13 27 -30 47 -35 46 -130 238
-130 266 0 7 -8 24 -19 38 -26 38 -52 102 -45 114 3 5 -5 26 -18 46 -14 20
-28 49 -31 63 -7 27 -81 144 -98 155 -16 10 -17 3 -8 -76 9 -79 44 -205 64
-230 24 -29 46 -82 76 -177 16 -53 43 -121 60 -152 17 -31 50 -92 74 -136 24
-44 59 -107 79 -139 20 -33 39 -74 42 -93 7 -36 28 -53 66 -53 13 0 38 -9 56
-20 18 -11 40 -20 49 -20 9 0 34 -9 57 -19 98 -46 164 -69 209 -75 26 -3 58
-13 71 -22 38 -24 262 -26 299 -1 14 9 37 17 49 17 16 0 58 34 135 110 62 61
117 110 122 110 13 0 151 136 151 149 0 6 20 40 45 77 25 36 45 69 45 73 0 4
12 18 26 32 18 16 28 20 31 12 10 -28 25 -12 19 20 -4 23 1 51 19 95 26 64 25
60 55 452 6 80 14 188 19 240 10 104 -3 150 -15 51 -4 -34 -9 -60 -11 -57 -2
2 -11 37 -20 78 -13 64 -26 90 -43 87 -3 -1 -13 -3 -22 -6z"/>
<path d="M6272 8348 c-12 -12 -17 -38 -7 -38 15 0 54 33 49 41 -7 13 -28 11
-42 -3z"/>
<path d="M4513 8275 c-3 -9 -3 -18 0 -22 10 -10 37 6 37 22 0 20 -29 20 -37 0z"/>
<path d="M6062 8204 c-50 -51 -50 -74 1 -74 36 0 54 15 80 66 12 23 13 34 4
43 -20 20 -41 11 -85 -35z"/>
<path d="M4132 8168 c5 -15 28 -18 29 -3 0 6 -7 12 -17 13 -10 3 -15 -1 -12
-10z"/>
<path d="M3930 8130 c0 -13 20 -13 40 0 12 8 9 10 -12 10 -16 0 -28 -4 -28
-10z"/>
<path d="M3195 8000 c4 -26 3 -40 -4 -40 -6 0 -11 11 -11 25 0 20 -5 25 -24
25 -29 0 -56 -24 -56 -50 0 -11 15 -31 34 -45 25 -19 35 -36 41 -68 10 -58 11
-98 2 -124 -6 -17 0 -28 30 -57 21 -20 53 -41 72 -47 19 -7 60 -27 90 -46 31
-19 69 -42 85 -51 16 -10 48 -33 70 -53 23 -19 68 -53 101 -75 33 -22 86 -60
119 -84 32 -25 66 -49 75 -55 9 -5 19 -14 23 -20 4 -5 10 -6 14 -3 15 16 -276
278 -326 293 -14 4 -36 15 -50 24 -14 9 -50 29 -80 44 -30 15 -65 35 -77 45
-23 18 -63 88 -63 110 0 7 -11 57 -24 112 -17 67 -22 108 -17 127 10 34 4 53
-16 53 -12 0 -13 -8 -8 -40z"/>
<path d="M6710 7950 c0 -16 5 -30 10 -30 6 0 10 14 10 30 0 17 -4 30 -10 30
-5 0 -10 -13 -10 -30z"/>
<path d="M6023 7827 c-39 -39 -92 -99 -118 -132 -26 -32 -54 -65 -61 -73 -34
-34 -6 -43 28 -9 13 12 48 42 77 67 113 94 172 173 153 205 -6 11 -24 -2 -79
-58z"/>
<path d="M6643 7854 c-13 -14 -23 -38 -23 -52 1 -26 1 -26 15 -8 8 11 15 28
15 37 0 10 5 19 12 21 6 2 9 9 7 16 -2 6 -13 1 -26 -14z"/>
<path d="M3004 7840 c7 -39 39 -69 74 -70 17 0 22 6 22 25 0 25 -25 45 -56 45
-9 0 -23 8 -31 18 -13 15 -14 13 -9 -18z"/>
<path d="M2937 7737 c-5 -35 0 -57 14 -57 12 0 12 77 0 84 -5 3 -11 -9 -14
-27z"/>
<path d="M4529 7738 c-10 -18 -8 -24 12 -39 30 -23 32 -23 54 1 17 19 17 21 0
40 -24 26 -51 25 -66 -2z"/>
<path d="M6655 7700 c-4 -6 -2 -16 3 -23 5 -7 15 -38 22 -69 15 -75 1 -179
-34 -244 -14 -27 -26 -53 -26 -59 0 -28 -89 -135 -230 -277 -85 -87 -164 -174
-175 -194 -10 -19 -28 -45 -40 -57 -11 -12 -28 -34 -38 -49 -21 -34 -107 -92
-212 -142 -44 -22 -94 -50 -112 -62 -17 -13 -36 -24 -41 -24 -5 0 -15 -7 -23
-16 -7 -8 -29 -24 -48 -35 -94 -52 -152 -87 -199 -121 -29 -21 -59 -38 -68
-38 -8 0 -29 -13 -46 -30 -16 -16 -33 -30 -38 -30 -5 0 -52 -20 -106 -45 -53
-25 -101 -45 -107 -45 -21 0 -147 -63 -148 -74 -1 -6 0 -28 1 -48 1 -28 -16
-73 -69 -181 -39 -80 -71 -150 -71 -157 0 -7 -24 -60 -54 -119 -29 -58 -57
-120 -60 -137 -4 -18 -24 -62 -44 -99 -70 -127 -82 -150 -82 -165 0 -9 -21
-51 -46 -94 -43 -74 -45 -80 -36 -120 6 -22 20 -120 32 -216 11 -96 27 -213
35 -260 15 -91 33 -262 38 -372 3 -79 19 -106 38 -64 24 53 34 22 40 -130 3
-82 9 -169 13 -194 18 -119 39 -237 46 -255 4 -11 11 -33 16 -50 5 -16 14 -29
19 -28 17 4 17 53 1 78 -11 17 -16 48 -16 101 0 104 -28 350 -45 399 -41 119
-36 201 19 282 14 21 26 43 26 49 0 6 14 36 30 67 17 31 30 62 30 69 1 7 14
29 30 48 17 19 30 38 30 43 0 9 53 123 146 313 35 73 64 139 64 147 0 9 4 19
10 22 5 3 19 28 31 55 12 27 27 55 35 61 8 6 14 19 14 29 0 9 11 33 24 53 13
19 27 46 31 58 6 22 63 142 171 364 24 50 44 97 44 106 0 9 7 22 15 29 8 7 15
16 15 21 0 4 20 51 45 103 25 53 45 100 45 105 0 5 12 33 28 63 32 65 50 105
94 218 58 145 93 200 118 185 14 -9 13 -40 -5 -81 -8 -20 -19 -62 -25 -93 -5
-31 -19 -101 -30 -156 -12 -55 -25 -149 -30 -210 -5 -60 -14 -144 -19 -185
-14 -100 -29 -307 -42 -570 -5 -118 -14 -242 -19 -275 -4 -33 -9 -134 -9 -224
-1 -125 -6 -182 -20 -245 -27 -110 -52 -328 -66 -576 -4 -58 -11 -136 -16
-175 -5 -38 -14 -126 -19 -195 -11 -137 -24 -243 -46 -365 -9 -52 -15 -157
-15 -300 -1 -121 -5 -228 -11 -238 -10 -19 -28 -159 -32 -247 -4 -79 -15 -195
-26 -265 -5 -33 -12 -118 -15 -190 -3 -71 -12 -220 -20 -330 -19 -262 -43
-578 -56 -740 -21 -272 -31 -446 -36 -612 l-5 -173 52 0 53 0 -7 76 c-6 66 -5
76 8 71 9 -3 18 -2 21 2 2 5 -4 11 -15 14 -25 6 -25 34 -1 71 l20 30 -26 30
c-28 33 -28 24 -4 261 5 61 15 182 21 270 6 88 15 187 20 220 13 83 45 539 58
821 6 124 10 156 25 171 19 22 22 44 7 59 -8 8 -8 38 0 100 6 49 13 90 15 92
2 2 25 -3 52 -12 26 -8 71 -14 98 -13 l50 2 3 -35 c4 -37 15 -50 46 -50 14 0
17 5 12 25 -5 21 -2 25 27 30 44 9 82 -24 93 -80 7 -36 8 -37 14 -15 3 14 3
41 0 60 -4 27 -11 36 -30 40 -14 3 -39 13 -57 22 -17 10 -42 18 -55 17 -13 0
-41 4 -63 10 -22 6 -59 11 -82 11 -23 0 -44 4 -48 9 -3 5 -19 13 -36 16 -29 6
-30 9 -25 39 4 17 9 59 13 94 4 52 10 66 30 79 l24 16 -21 19 c-14 13 -20 31
-20 62 0 55 17 151 35 199 20 49 19 96 -1 119 -24 25 -28 97 -8 119 13 15 14
24 5 50 -7 22 -8 43 -1 68 5 20 14 97 20 171 6 75 15 151 20 170 6 19 19 121
30 225 27 264 47 372 77 418 26 41 24 52 -10 52 -19 0 -22 5 -20 35 4 78 11
122 22 133 6 6 11 31 11 55 0 29 9 61 27 94 22 39 25 53 16 67 -12 19 10 51
90 135 32 34 34 52 7 59 -13 3 -31 -6 -55 -29 -40 -38 -56 -42 -76 -18 -9 12
-10 23 -2 47 6 18 14 50 18 72 3 22 13 50 21 62 7 12 11 29 8 38 -4 9 3 26 16
40 l22 24 -22 39 c-17 31 -21 48 -16 78 16 91 18 126 7 137 -14 14 -14 64 0
73 6 3 8 17 4 33 -4 14 -7 31 -7 36 0 6 1 79 2 163 1 84 6 152 11 152 5 0 9
-18 9 -39 0 -22 4 -42 8 -45 8 -5 20 -41 87 -256 15 -47 32 -94 39 -105 20
-31 27 -86 31 -260 2 -111 8 -176 19 -212 16 -50 16 -55 -4 -97 -24 -53 -29
-186 -7 -186 26 0 32 18 35 105 2 73 6 93 22 110 24 26 26 65 4 106 -22 44
-10 269 17 300 10 11 20 26 22 32 8 26 25 -8 36 -75 20 -116 21 -118 41 -136
23 -19 26 -61 8 -81 -11 -11 -9 -15 6 -25 61 -37 59 -28 59 -214 0 -142 -3
-175 -16 -196 -14 -20 -17 -51 -17 -151 0 -69 -4 -133 -9 -143 -5 -9 -14 -69
-20 -132 -5 -63 -14 -135 -20 -160 -6 -25 -10 -78 -11 -118 0 -40 -5 -82 -11
-93 -5 -11 -11 -60 -13 -110 -1 -62 -6 -93 -15 -99 -14 -8 -15 -20 -40 -555
-4 -99 -9 -184 -11 -190 -4 -18 0 -35 9 -35 11 0 18 72 27 255 3 72 7 146 9
165 2 19 6 100 10 180 4 80 11 150 15 155 5 6 11 53 15 105 4 55 13 101 21
110 7 8 13 34 12 56 -1 62 13 187 23 206 5 9 11 54 15 100 7 96 12 149 19 198
3 19 7 58 9 85 1 28 6 58 11 68 4 10 3 23 -2 28 -6 6 -4 32 5 72 32 141 37
298 13 401 -13 60 -17 65 -35 41 -13 -18 -14 -18 -26 4 -6 13 -10 40 -8 61 2
29 -1 41 -15 50 -14 8 -16 14 -8 24 6 7 8 28 5 47 -7 35 -71 162 -86 167 -4 2
-8 15 -8 28 0 13 -5 24 -10 24 -10 0 -60 99 -60 118 0 5 -11 19 -25 32 -15 14
-25 35 -25 52 0 16 -7 31 -15 34 -7 3 -21 27 -30 52 -9 26 -23 59 -31 74 -8
15 -14 34 -12 42 2 8 -6 21 -16 29 -22 16 -14 37 15 37 28 0 25 38 -5 50 -40
15 -41 30 -2 30 39 0 49 14 16 23 -28 7 -28 62 0 77 11 6 18 15 15 19 -2 5 4
20 15 34 11 14 20 29 20 34 0 4 18 28 40 53 21 24 37 46 34 49 -3 3 -9 -1 -13
-8 -5 -7 -14 -10 -20 -7 -16 10 -14 41 4 56 9 8 13 21 9 36 -4 14 -2 24 4 24
7 0 9 18 5 50 -4 33 -2 55 7 65 7 8 9 22 6 31 -7 19 13 142 24 149 5 3 22 -8
38 -25 34 -34 69 -41 57 -12 -15 34 -17 62 -6 62 6 0 30 -9 54 -19 23 -10 50
-21 59 -24 13 -5 16 -14 11 -42 -4 -26 -2 -40 8 -46 24 -15 29 -10 29 29 0 31
-6 41 -33 60 -18 12 -37 22 -41 22 -4 0 -14 7 -22 15 -9 8 -24 15 -35 15 -13
0 -19 7 -19 23 0 25 26 67 42 67 22 0 70 44 86 78 15 32 23 38 57 42 34 4 40
9 43 31 4 36 92 143 122 149 36 7 70 32 70 52 0 9 6 23 13 30 6 7 25 32 41 56
16 24 38 48 48 53 10 5 18 16 18 23 0 31 34 77 66 91 35 14 38 22 34 93 -2 37
18 44 37 13 7 -11 23 -21 35 -23 19 -2 23 -9 23 -38 0 -23 8 -43 23 -57 25
-26 29 -14 8 20 -15 23 -28 117 -17 117 4 0 22 -13 41 -30 19 -16 42 -29 50
-30 9 0 30 -13 48 -30 18 -16 41 -30 50 -30 9 0 32 -9 50 -20 18 -11 39 -20
47 -20 8 0 26 -11 41 -25 15 -14 34 -25 43 -25 9 0 35 -15 58 -34 24 -18 62
-38 85 -44 48 -12 138 -88 138 -115 0 -10 5 -17 10 -17 6 0 10 4 10 10 0 5 13
7 30 4 26 -6 30 -4 30 15 0 11 4 21 9 21 12 0 58 -38 142 -114 36 -34 82 -74
102 -89 37 -28 77 -95 77 -128 0 -10 7 -31 15 -48 8 -17 22 -45 30 -62 8 -17
15 -37 15 -44 0 -7 7 -15 15 -19 9 -3 12 -12 9 -21 -4 -9 -13 -14 -21 -11 -21
8 -29 -25 -10 -39 17 -12 14 -50 -8 -121 -6 -18 19 -55 29 -43 1 2 15 26 29
53 30 55 36 86 13 67 -12 -10 -16 -8 -21 10 -5 15 -2 26 8 34 14 10 14 16 2
51 -8 21 -14 51 -15 65 0 14 -7 34 -15 45 -17 22 -20 64 -5 64 6 0 13 -8 17
-17 3 -10 16 -31 28 -48 12 -16 44 -75 71 -130 47 -97 49 -103 55 -215 8 -130
6 -120 17 -120 11 0 38 61 52 117 16 65 26 59 26 -17 -1 -49 4 -73 15 -86 18
-21 24 -99 9 -109 -5 -3 -7 -25 -3 -50 3 -25 1 -50 -5 -57 -5 -7 -13 -32 -17
-55 -14 -87 32 -33 49 57 4 19 13 49 21 65 8 17 17 39 20 50 6 20 7 20 21 1 7
-11 16 -36 20 -55 3 -20 10 -50 15 -68 6 -17 12 -84 15 -149 2 -64 7 -120 10
-125 7 -12 48 -11 60 1 18 18 37 -17 37 -63 0 -42 -27 -100 -65 -143 -11 -12
-23 -34 -27 -50 -6 -20 -14 -28 -27 -27 -25 3 -52 -52 -37 -76 11 -18 74 -22
78 -6 2 6 6 23 10 38 7 32 47 77 68 77 33 0 54 -57 74 -195 3 -22 11 -47 19
-55 7 -9 11 -26 7 -38 -3 -14 1 -30 11 -41 14 -15 15 -26 6 -71 -9 -49 -8 -56
11 -76 14 -15 20 -31 16 -44 -3 -12 1 -23 10 -29 10 -5 14 -16 10 -30 -3 -12
4 -43 15 -69 20 -44 21 -54 10 -146 -7 -63 -7 -108 -1 -123 28 -73 35 -279 30
-810 -1 -139 -4 -173 -15 -173 -7 0 -19 7 -26 15 -7 8 -16 12 -21 9 -20 -12
28 -145 77 -214 32 -44 35 -54 26 -75 -10 -22 -7 -28 31 -59 23 -20 36 -36 30
-36 -7 0 -13 -5 -13 -10 0 -6 8 -5 19 2 16 10 23 9 39 -5 17 -16 62 -24 62
-12 0 4 -7 20 -16 37 -9 18 -18 51 -19 74 -4 54 -22 111 -39 117 -7 3 -25 26
-41 52 -25 43 -27 53 -21 119 22 254 15 768 -14 991 -5 44 -17 152 -26 240 -8
88 -23 196 -31 240 -29 147 -33 170 -39 225 -4 30 -19 101 -35 156 -16 56 -29
108 -29 115 0 8 -12 48 -26 89 -14 41 -29 89 -34 105 -13 43 -39 115 -55 150
-7 17 -21 55 -31 85 -10 30 -51 120 -91 200 -40 80 -80 166 -89 192 -8 26 -20
50 -25 53 -5 4 -9 21 -9 38 0 26 -8 40 -41 67 -23 18 -53 52 -67 74 -36 56
-112 150 -202 249 -86 95 -289 262 -395 324 -40 23 -266 133 -305 147 -8 4
-33 17 -55 31 -22 13 -46 24 -53 25 -7 0 -20 7 -28 15 -9 8 -24 15 -34 15 -10
0 -22 5 -25 11 -4 5 -17 14 -28 20 -12 5 -76 37 -142 72 -117 60 -121 64 -171
137 -55 79 -87 109 -99 90z m-711 -1242 c24 -37 30 -92 13 -124 -8 -16 -17
-55 -21 -87 -3 -32 -10 -65 -15 -75 -35 -65 -51 -106 -51 -128 0 -13 -7 -27
-15 -30 -8 -4 -15 -17 -15 -29 0 -13 -4 -27 -10 -30 -14 -9 -12 29 5 110 35
155 47 224 55 300 12 117 24 139 54 93z m-361 -195 c14 -3 17 -13 15 -36 -4
-40 -38 -49 -65 -18 -9 12 -23 21 -30 21 -16 0 -26 18 -19 36 6 14 40 13 99
-3z m-107 -64 c44 -27 64 -56 64 -94 0 -58 -66 -125 -123 -125 -47 0 -135 46
-157 82 -43 72 -11 100 50 44 48 -44 85 -54 119 -35 38 21 38 51 1 85 -17 16
-36 37 -41 47 -8 15 -5 17 22 17 17 0 47 -9 65 -21z m-248 -145 c17 -11 20
-19 13 -32 -13 -24 3 -48 36 -56 16 -4 58 -21 96 -39 69 -32 84 -56 55 -85
-16 -16 -63 -15 -77 2 -7 8 -23 17 -37 20 -14 4 -38 15 -53 26 -49 34 -68 34
-80 -1 -6 -18 -11 -41 -11 -51 0 -10 -12 -29 -27 -42 -15 -13 -23 -28 -19 -34
11 -19 24 -14 52 17 51 57 120 57 169 0 21 -25 25 -38 19 -63 -19 -92 -118
-168 -161 -125 -16 16 6 57 46 87 35 25 42 62 13 62 -10 0 -24 -10 -31 -22
-12 -22 -74 -68 -91 -68 -5 0 -24 10 -44 23 -64 41 -71 120 -15 176 21 21 29
39 29 65 0 19 7 41 15 50 8 8 15 18 15 23 0 12 49 83 58 83 4 0 18 -7 30 -16z
m-195 -371 c27 -36 27 -37 7 -45 -31 -11 -24 -24 28 -48 26 -12 61 -29 77 -38
17 -10 50 -16 78 -15 44 1 60 -8 37 -22 -5 -3 -10 -18 -10 -32 0 -15 -9 -37
-21 -49 -18 -19 -28 -21 -79 -17 -67 6 -104 -2 -80 -17 8 -6 25 -10 37 -10 12
0 34 -5 48 -12 29 -13 30 -29 3 -100 -19 -51 -47 -80 -70 -72 -25 8 -33 -19
-20 -63 13 -43 -1 -81 -31 -85 -17 -2 -21 -11 -23 -47 -1 -25 -11 -55 -22 -70
-20 -27 -62 -113 -62 -127 0 -4 -10 -21 -23 -38 -13 -17 -24 -44 -25 -59 -2
-25 -17 -55 -74 -145 -9 -15 -17 -36 -17 -46 -1 -26 -40 -66 -63 -66 -27 0
-68 45 -68 75 0 23 3 25 50 25 28 0 50 4 50 9 0 4 -21 17 -47 28 -29 12 -54
30 -62 46 -18 34 -11 41 32 29 51 -14 70 2 34 30 -26 19 -28 25 -22 61 6 35 5
39 -10 33 -9 -3 -28 -9 -41 -12 -22 -6 -24 -3 -24 25 0 21 9 41 25 56 21 22
23 31 18 74 -5 41 -2 54 16 77 11 15 21 36 21 47 0 40 24 88 47 93 22 6 33 34
13 34 -19 0 -10 31 21 76 16 24 37 61 46 82 14 33 16 35 23 16 7 -17 25 -23
115 -37 59 -10 110 -16 112 -13 8 8 -118 66 -143 66 -32 0 -54 26 -54 66 0 41
22 49 114 41 34 -3 68 -2 75 2 12 8 -16 21 -116 56 -7 2 -13 20 -13 40 0 31 4
38 30 46 22 8 30 17 30 34 0 13 -4 27 -10 30 -14 9 -12 25 3 25 6 -1 25 -17
40 -37z"/>
<path d="M4955 5241 c-8 -15 3 -31 21 -31 9 0 14 7 12 17 -4 20 -24 28 -33 14z"/>
<path d="M4860 5176 c0 -16 5 -26 15 -26 8 0 15 6 15 14 0 7 -7 19 -15 26 -13
11 -15 8 -15 -14z"/>
<path d="M4910 5120 c0 -13 28 -25 38 -16 3 4 0 11 -8 16 -20 13 -30 12 -30 0z"/>
<path d="M4767 4714 c-4 -4 -7 -14 -7 -23 0 -11 3 -12 11 -4 6 6 10 16 7 23
-2 6 -7 8 -11 4z"/>
<path d="M2850 7484 c-30 -25 -65 -50 -77 -57 -13 -7 -76 -45 -140 -85 -65
-40 -127 -78 -138 -85 -11 -6 -38 -23 -60 -37 -73 -46 -114 -69 -220 -124 -38
-21 -74 -41 -79 -47 -6 -5 -16 -9 -24 -9 -8 0 -34 -13 -59 -30 -24 -16 -48
-30 -52 -30 -4 0 -26 -12 -48 -27 -54 -38 -76 -52 -93 -60 -8 -3 -31 -19 -51
-35 -20 -15 -40 -28 -44 -28 -4 0 -25 -15 -46 -32 -21 -18 -50 -42 -65 -54
-24 -18 -29 -30 -35 -97 -5 -57 -13 -84 -32 -109 -13 -18 -36 -57 -51 -87 -16
-30 -32 -62 -37 -70 -42 -79 -159 -326 -159 -336 0 -7 -6 -26 -14 -42 -8 -15
-21 -46 -29 -68 -9 -22 -36 -92 -61 -156 -25 -64 -46 -123 -46 -132 0 -9 -4
-18 -9 -21 -4 -3 -17 -32 -29 -63 -45 -130 -82 -250 -82 -266 0 -10 -4 -25 -9
-35 -9 -16 -27 -76 -71 -232 -12 -41 -35 -122 -52 -180 -44 -155 -57 -206 -78
-295 -10 -44 -27 -116 -38 -160 -24 -92 -79 -334 -87 -385 -4 -19 -17 -82 -30
-140 -13 -58 -29 -132 -35 -165 -7 -33 -18 -89 -26 -125 -7 -36 -18 -98 -24
-137 -5 -40 -15 -106 -20 -145 -6 -40 -22 -108 -35 -150 -28 -88 -30 -117 -11
-172 17 -48 52 -85 107 -113 49 -24 145 -53 176 -53 10 0 32 -13 47 -29 24
-25 31 -28 47 -18 14 9 21 9 30 0 9 -9 6 -22 -10 -55 -11 -25 -21 -51 -21 -60
0 -18 -68 -83 -96 -92 -11 -3 -29 -24 -41 -45 -44 -78 -26 -125 72 -189 38
-26 77 -50 85 -55 8 -4 29 -16 45 -27 17 -11 39 -24 51 -29 11 -5 39 -30 61
-55 l41 -46 45 62 c71 100 101 171 82 190 -7 7 -68 -14 -87 -29 -29 -24 -94
-31 -172 -17 -139 24 -151 56 -23 67 39 4 116 18 171 32 112 28 127 30 173 13
31 -11 35 -10 66 20 18 18 39 32 47 32 21 1 66 37 57 46 -4 4 -24 2 -44 -4
-139 -40 -174 -45 -318 -47 -82 -2 -163 -8 -178 -14 -34 -13 -87 -15 -87 -2 0
5 11 16 24 24 13 9 44 34 69 56 26 22 57 47 69 56 20 13 21 17 8 25 -8 5 -30
10 -48 10 -49 0 -36 19 40 57 78 39 213 59 344 50 114 -7 149 19 76 57 -19 10
-83 16 -207 20 -194 7 -269 16 -385 47 -142 38 -153 53 -42 64 98 9 112 17
110 62 0 21 3 49 7 62 9 28 8 27 -85 -9 -157 -61 -266 -66 -215 -10 20 22 149
90 171 90 8 0 25 7 37 15 29 18 212 75 243 75 13 0 24 4 24 9 0 11 -95 25
-109 17 -9 -6 -237 -20 -300 -18 -50 1 -54 12 -30 68 47 108 89 250 89 302 0
37 6 62 19 80 13 19 19 43 18 78 0 32 5 61 15 76 14 22 22 71 30 194 2 22 8
47 14 55 13 16 31 121 33 196 1 12 7 28 15 36 8 7 17 45 21 83 4 38 13 80 20
94 7 14 16 47 20 74 3 27 11 56 15 65 12 22 56 185 65 240 4 24 18 59 31 78
13 19 26 51 29 72 3 20 10 50 15 67 6 17 10 38 10 47 0 9 9 21 20 27 15 8 19
17 15 31 -4 12 2 31 15 50 20 28 21 31 6 42 -15 11 -14 16 12 57 29 44 30 47
20 115 -5 39 -8 90 -5 115 4 44 26 113 41 127 11 12 26 -19 26 -55 0 -19 9
-45 20 -59 18 -23 25 -23 21 1 -3 16 22 36 40 31 12 -4 19 1 24 14 8 25 -1 41
-21 41 -19 0 -18 6 7 39 18 24 21 46 24 142 4 117 16 225 30 268 4 14 21 46
36 72 16 25 29 53 29 61 0 8 9 23 20 33 20 18 20 17 19 -46 -3 -137 14 -271
37 -290 8 -6 14 -24 14 -40 0 -15 5 -31 10 -34 6 -4 8 -15 5 -25 -6 -17 29
-126 46 -144 13 -15 11 101 -2 126 -6 11 -13 82 -16 157 -2 75 -8 152 -13 171
-6 19 -10 68 -10 108 0 57 3 72 15 72 8 0 15 -6 15 -14 0 -8 4 -17 8 -20 5 -3
9 43 10 102 2 109 21 193 49 222 14 13 15 12 9 -11 -3 -14 1 -64 10 -110 8
-46 21 -151 29 -234 7 -82 25 -213 40 -290 15 -79 29 -197 32 -270 3 -71 10
-136 15 -142 6 -7 14 -45 18 -84 8 -69 18 -88 48 -89 7 0 15 7 18 15 9 23 -5
65 -21 65 -21 0 -19 16 5 40 24 24 25 43 4 76 -16 23 -16 26 1 38 16 12 16 15
1 44 -9 17 -15 52 -14 79 1 64 -12 165 -25 181 -5 7 -7 32 -4 55 5 35 1 54
-23 102 -26 51 -29 69 -28 142 0 46 -5 96 -10 111 -10 25 -21 92 -42 260 -8
66 -7 78 12 118 24 49 61 61 73 24 11 -33 25 -22 25 19 0 42 11 56 53 66 16 4
34 16 40 26 7 11 22 19 34 19 13 0 23 6 23 14 0 22 71 73 168 123 48 24 96 53
107 63 11 10 47 28 79 41 33 12 69 32 80 43 53 56 162 112 195 101 28 -9 114
37 129 69 6 14 16 26 22 26 5 0 10 6 10 14 0 8 14 19 30 25 17 5 30 8 30 6 0
-11 -55 -132 -67 -146 -18 -21 -16 -39 3 -39 9 0 18 9 21 20 7 26 33 26 40 0
l6 -21 19 21 c21 23 48 27 48 7 0 -8 -9 -42 -21 -76 -21 -66 -20 -82 5 -62 25
21 85 -22 86 -60 0 -9 19 -33 43 -53 80 -67 157 -149 157 -166 0 -6 15 -17 34
-25 18 -8 40 -25 49 -39 24 -36 60 -72 80 -79 9 -3 17 -11 17 -17 0 -5 15 -10
34 -10 19 0 44 -9 57 -19 21 -17 22 -22 11 -40 -11 -20 -10 -21 26 -21 41 0
82 -23 82 -46 0 -8 8 -14 18 -14 10 0 27 -6 38 -14 19 -14 19 -15 -4 -36 -28
-27 -52 -19 -52 16 l0 27 -77 -6 c-43 -3 -98 -14 -123 -25 -26 -11 -95 -24
-160 -31 -63 -7 -130 -17 -148 -23 -19 -6 -154 -11 -300 -12 -154 -2 -267 -7
-266 -12 1 -5 23 -20 50 -34 47 -23 57 -24 258 -25 207 0 209 0 217 -22 5 -13
13 -23 18 -23 15 0 26 23 13 28 -25 8 -10 22 24 22 19 0 44 4 54 10 14 7 19 5
23 -10 9 -33 41 -24 56 15 l12 35 70 0 c38 0 77 4 87 9 9 5 36 15 59 21 37 11
45 10 75 -7 18 -10 34 -29 36 -41 3 -23 26 -30 37 -12 11 18 35 10 47 -15 6
-14 19 -25 29 -25 23 0 33 16 14 24 -8 3 -15 15 -15 26 0 11 -7 23 -15 26 -14
6 -22 34 -10 34 16 0 70 -45 147 -122 48 -49 92 -88 97 -88 6 0 19 -17 30 -38
23 -45 68 -92 90 -93 10 0 12 -2 4 -6 -19 -7 -15 -41 7 -63 21 -21 27 -55 11
-65 -10 -5 -51 45 -51 63 0 5 -7 15 -15 22 -8 7 -15 19 -15 28 0 15 -62 94
-134 170 -35 37 -76 56 -76 35 0 -5 23 -53 50 -108 28 -55 50 -109 50 -120 0
-12 4 -25 9 -30 10 -11 23 -66 47 -205 33 -190 44 -259 55 -345 13 -99 20
-115 44 -95 19 16 19 44 1 73 -10 14 -16 60 -19 130 -2 62 -9 113 -16 120 -6
6 -11 28 -11 48 0 24 -5 39 -15 43 -17 6 -20 62 -6 85 14 21 33 2 27 -26 -9
-31 1 -48 20 -32 10 8 11 16 3 30 -12 24 10 36 39 20 16 -8 21 -28 31 -108 13
-122 13 -113 5 -145 -4 -16 0 -39 9 -57 13 -26 13 -32 1 -42 -22 -18 -18 -76
6 -89 27 -14 25 -27 -5 -34 -35 -9 -31 -45 5 -58 21 -8 40 -70 28 -92 -6 -11
-6 -22 2 -31 6 -7 8 -25 4 -40 -4 -15 -2 -36 4 -48 28 -61 34 -85 22 -106 -6
-12 -19 -21 -30 -21 -20 0 -27 42 -33 185 -2 65 -19 81 -50 50 -19 -18 -16
-79 13 -320 11 -88 24 -227 29 -310 11 -170 44 -317 73 -323 25 -5 32 31 29
168 -1 69 5 224 14 345 15 215 15 568 -1 853 -6 112 -6 114 14 103 18 -10 52
-6 52 5 0 18 -32 73 -54 93 -14 14 -26 31 -26 38 0 8 -9 35 -21 60 -15 34 -20
59 -16 91 5 47 3 51 -64 108 -13 11 -34 32 -45 45 -12 13 -48 46 -79 73 -31
27 -71 71 -87 98 -16 26 -33 48 -37 48 -12 0 -121 114 -171 177 -48 63 -179
193 -194 193 -4 0 -25 14 -45 30 -42 36 -47 39 -84 63 -16 10 -88 78 -160 151
-105 105 -136 142 -150 182 -10 27 -29 72 -41 99 -29 62 -55 148 -58 195 -4
48 -23 47 -88 -6z m580 -764 c0 -5 -9 -10 -21 -10 -11 0 -17 5 -14 10 3 6 13
10 21 10 8 0 14 -4 14 -10z m728 -1803 c5 -23 -16 -47 -34 -40 -14 5 -19 44
-7 57 12 12 38 1 41 -17z"/>
<path d="M6340 7415 c-30 -30 -68 -61 -85 -69 -17 -9 -74 -56 -126 -106 -52
-49 -98 -92 -104 -94 -5 -2 -7 -6 -4 -10 14 -15 99 43 181 124 48 47 107 100
132 119 43 33 75 76 65 86 -3 2 -29 -20 -59 -50z"/>
<path d="M5485 7333 c-22 -49 -58 -108 -80 -133 -55 -61 -115 -137 -115 -145
0 -4 -15 -30 -34 -58 -19 -29 -46 -77 -62 -107 -15 -30 -38 -69 -51 -87 -12
-17 -23 -36 -23 -41 0 -4 -11 -19 -25 -32 -27 -25 -32 -46 -13 -52 15 -5 -29
-66 -53 -73 -10 -3 -21 -15 -24 -26 -4 -10 -15 -24 -26 -29 -27 -15 -24 -33 6
-28 25 5 34 -5 15 -17 -5 -3 -10 -13 -10 -21 0 -17 -56 -96 -77 -107 -8 -5
-26 -10 -41 -12 -14 -1 -36 -15 -48 -30 -20 -25 -23 -26 -62 -16 -44 12 -42
10 -115 174 -10 23 -30 45 -49 55 -37 19 -138 120 -138 137 0 15 -48 50 -80
58 -35 10 -72 45 -93 89 -21 45 -106 158 -118 158 -5 0 -9 -23 -9 -51 0 -38 8
-66 31 -110 18 -32 36 -59 42 -59 11 0 56 -35 131 -102 29 -27 57 -48 63 -48
18 0 86 -83 183 -225 12 -16 39 -55 62 -85 22 -30 45 -67 50 -82 6 -16 14 -28
18 -28 5 0 28 16 52 34 24 19 70 49 103 66 84 43 90 49 114 110 37 91 54 123
83 158 15 18 28 39 28 47 0 7 26 53 58 102 58 89 92 154 92 175 0 13 118 255
135 276 5 8 31 37 56 64 33 36 52 68 64 110 30 97 5 91 -40 -9z"/>
<path d="M6960 7296 c0 -7 6 -18 13 -24 6 -6 21 -31 32 -56 11 -25 23 -46 28
-46 17 0 5 45 -25 91 -33 49 -48 61 -48 35z"/>
<path d="M2588 7162 c-25 -26 -68 -58 -95 -70 -26 -13 -55 -28 -63 -33 -8 -5
-23 -12 -33 -16 -10 -3 -22 -16 -27 -28 -5 -14 -20 -25 -41 -29 -17 -3 -53
-19 -78 -34 -25 -16 -59 -32 -74 -36 -64 -16 -143 -85 -117 -101 12 -8 78 12
100 30 19 15 124 65 137 65 15 0 105 72 149 119 l40 43 34 -17 34 -18 34 39
c77 90 85 103 72 119 -17 21 -19 20 -72 -33z"/>
<path d="M5674 6898 c-17 -13 -52 -45 -79 -71 -26 -26 -60 -54 -76 -63 -32
-16 -40 -54 -11 -54 38 0 59 13 77 47 11 19 48 61 82 93 35 31 63 60 63 64 0
13 -27 5 -56 -16z"/>
<path d="M7631 6873 c1 -16 -3 -41 -10 -58 -7 -16 -14 -46 -16 -66 -2 -21 -9
-48 -16 -61 -7 -13 -13 -56 -14 -95 -1 -49 -6 -78 -17 -90 -8 -10 -18 -29 -21
-43 -3 -14 -11 -47 -17 -75 -6 -27 -18 -71 -26 -96 -8 -25 -12 -53 -9 -61 4
-9 -1 -30 -9 -47 -21 -40 -20 -90 2 -108 15 -13 15 -14 -10 -9 -21 5 -28 2
-33 -14 -4 -12 -1 -27 5 -35 9 -10 8 -21 -4 -44 -18 -34 -20 -62 -7 -76 8 -8
4 -67 -10 -155 -1 -8 -1 -30 -1 -48 2 -26 6 -33 19 -30 18 3 28 31 43 122 8
50 7 63 -6 77 -15 16 -15 21 0 50 9 18 16 42 16 55 0 13 4 25 9 29 5 3 15 21
21 41 10 30 9 38 -6 55 -16 18 -16 24 -5 52 7 18 17 52 23 77 5 25 19 52 29
60 16 13 21 32 25 95 2 44 11 108 20 142 9 35 14 69 11 75 -2 7 0 26 4 42 5
17 4 36 -2 48 -8 15 -7 24 4 36 9 9 17 33 19 52 2 28 9 38 35 50 18 8 33 21
33 28 0 19 -38 52 -61 52 -16 0 -20 -6 -18 -27z"/>
<path d="M7730 6807 c0 -22 27 -57 43 -57 13 0 7 35 -9 58 -20 29 -34 28 -34
-1z"/>
<path d="M7302 6780 c4 -25 1 -31 -18 -36 -12 -3 -32 -4 -45 -2 -23 3 -24 0
-20 -42 2 -25 9 -57 17 -72 8 -15 14 -43 14 -63 0 -24 5 -35 15 -35 21 0 31
25 50 125 9 50 21 98 26 107 16 32 11 48 -17 48 -24 0 -26 -3 -22 -30z"/>
<path d="M6294 6729 c-10 -17 13 -36 27 -22 12 12 4 33 -11 33 -5 0 -12 -5
-16 -11z"/>
<path d="M7765 6710 c-4 -6 -8 -75 -9 -154 -2 -79 -6 -148 -10 -155 -4 -6 -2
-35 4 -64 9 -38 9 -76 2 -137 -10 -89 -6 -197 9 -206 12 -7 11 -78 0 -89 -13
-13 -1 -95 13 -95 6 0 20 7 31 16 18 13 20 29 24 167 10 405 0 650 -28 706
-10 20 -28 25 -36 11z"/>
<path d="M2586 6654 c-10 -25 -1 -27 19 -4 15 17 16 20 3 20 -9 0 -19 -7 -22
-16z"/>
<path d="M2668 6664 c-5 -4 -8 -19 -8 -33 0 -18 3 -22 11 -14 6 6 9 21 7 33
-1 12 -6 18 -10 14z"/>
<path d="M2756 6585 c-4 -10 1 -15 14 -15 11 0 20 7 20 15 0 8 -6 15 -14 15
-8 0 -16 -7 -20 -15z"/>
<path d="M2544 6572 c-35 -30 -39 -58 -10 -77 29 -19 39 -15 59 25 13 25 13
31 0 49 -17 25 -22 25 -49 3z"/>
<path d="M5274 6554 c-20 -19 -34 -38 -31 -40 9 -9 87 46 87 61 0 24 -18 17
-56 -21z"/>
<path d="M4365 6520 c-3 -5 3 -10 15 -10 12 0 18 5 15 10 -3 6 -10 10 -15 10
-5 0 -12 -4 -15 -10z"/>
<path d="M2631 6475 c14 -14 21 -14 70 -1 l54 15 -70 0 c-62 1 -68 -1 -54 -14z"/>
<path d="M4420 6483 c1 -16 60 -76 67 -69 5 4 1 13 -8 19 -9 7 -19 22 -23 35
-7 20 -37 33 -36 15z"/>
<path d="M7247 6483 c-2 -5 -7 -20 -11 -36 -5 -23 -3 -29 19 -37 28 -11 29
-13 14 -39 -16 -24 -5 -63 26 -92 53 -51 11 -96 -79 -85 -62 7 -104 -2 -70
-15 10 -4 38 -8 61 -8 56 -1 61 -14 13 -36 -34 -15 -56 -17 -167 -11 -188 11
-239 15 -333 26 -103 13 -144 26 -281 89 -25 12 -66 21 -91 21 -37 0 -49 -5
-75 -32 -18 -18 -35 -45 -38 -60 -4 -15 -13 -29 -22 -32 -12 -5 -11 -10 6 -33
21 -26 21 -33 19 -449 -3 -390 -2 -423 15 -441 9 -11 17 -27 17 -36 0 -9 5
-19 10 -22 6 -3 10 -17 10 -31 0 -13 9 -41 20 -61 11 -21 20 -50 20 -65 0 -15
5 -30 10 -33 19 -12 23 28 10 94 -7 36 -14 90 -15 118 -3 56 -26 103 -50 103
-8 0 -15 5 -15 10 0 6 9 10 19 10 22 0 36 16 23 24 -5 3 -7 31 -5 63 2 32 7
91 9 131 4 50 2 78 -7 88 -10 12 -8 20 9 43 20 28 20 28 2 47 -18 17 -19 28
-11 134 10 140 7 228 -8 243 -8 8 -11 7 -11 -6 0 -9 -4 -17 -10 -17 -5 0 -10
4 -10 9 0 6 5 13 10 16 6 3 10 17 10 30 0 31 56 78 84 71 12 -3 28 -6 37 -6 9
0 27 -10 41 -23 37 -35 163 -55 383 -62 28 -1 63 -7 79 -14 40 -16 248 -16
275 1 12 7 21 18 21 25 0 18 48 27 76 14 33 -15 69 -14 83 2 8 11 5 17 -16 26
l-26 12 26 27 c26 27 26 29 12 72 -23 73 -39 113 -57 140 -9 14 -22 42 -29 63
-13 36 -23 45 -32 30z"/>
<path d="M4347 6446 c-4 -10 -3 -25 2 -33 12 -23 23 0 13 28 -8 20 -9 20 -15
5z"/>
<path d="M4190 6431 c0 -11 65 -61 79 -61 6 0 8 7 5 15 -4 8 -12 15 -20 15 -7
0 -18 9 -24 20 -11 20 -40 28 -40 11z"/>
<path d="M6200 6430 c-12 -7 -12 -12 -3 -21 10 -10 14 -9 19 5 8 22 2 27 -16
16z"/>
<path d="M1975 6420 c-8 -13 4 -32 16 -25 12 8 12 35 0 35 -6 0 -13 -4 -16
-10z"/>
<path d="M6284 6415 c-8 -20 4 -35 27 -35 21 0 25 20 7 38 -16 16 -27 15 -34
-3z"/>
<path d="M4350 6365 c-14 -8 -33 -12 -42 -9 -28 8 -21 -7 19 -48 38 -39 38
-39 44 -144 4 -58 12 -111 17 -116 18 -18 25 35 17 118 -4 41 -8 101 -8 134
-2 70 -12 84 -47 65z"/>
<path d="M6300 6350 c-25 -6 -25 -6 5 -12 17 -4 34 -3 38 1 12 12 -14 19 -43
11z"/>
<path d="M7162 6325 c-18 -8 -31 -19 -27 -25 11 -19 115 -10 115 9 0 6 -45 32
-53 31 -1 -1 -17 -7 -35 -15z"/>
<path d="M6175 6309 c-4 -6 -5 -13 -2 -16 7 -7 27 6 27 18 0 12 -17 12 -25 -2z"/>
<path d="M6085 6249 c-10 -15 3 -25 16 -12 7 7 7 13 1 17 -6 3 -14 1 -17 -5z"/>
<path d="M3493 6204 c-13 -21 -14 -32 -6 -54 6 -16 7 -34 2 -43 -10 -17 -2
-47 12 -47 15 0 31 52 24 78 -3 14 0 34 10 48 9 14 13 29 10 34 -11 18 -34 10
-52 -16z"/>
<path d="M3715 6218 c-8 -20 -4 -64 19 -228 24 -163 45 -332 55 -425 12 -115
40 -285 50 -304 5 -9 14 -83 21 -166 7 -82 16 -154 20 -160 5 -5 12 -53 16
-105 l9 -95 6 70 c3 43 1 86 -6 110 -7 22 -13 49 -13 60 -3 137 -11 244 -19
260 -6 11 -13 81 -16 155 -3 74 -10 158 -16 185 -14 70 -30 172 -46 295 -8 58
-19 121 -24 140 -6 19 -11 48 -11 65 -1 49 -37 163 -45 143z"/>
<path d="M4527 6223 c-7 -10 29 -50 37 -42 3 2 -3 15 -13 28 -10 13 -21 19
-24 14z"/>
<path d="M8043 6214 c-3 -8 -1 -25 4 -37 6 -13 9 -90 7 -179 -3 -107 0 -159 7
-164 19 -12 25 13 36 154 10 136 10 213 -2 232 -10 16 -45 12 -52 -6z"/>
<path d="M6142 6198 c-18 -18 -15 -40 6 -36 9 2 18 13 20 26 4 24 -7 29 -26
10z"/>
<path d="M4643 6185 c-3 -9 -3 -18 0 -21 7 -8 47 15 47 26 0 16 -40 11 -47 -5z"/>
<path d="M5005 6190 c-11 -17 5 -32 21 -19 8 6 14 15 14 20 0 12 -27 11 -35
-1z"/>
<path d="M4885 6176 c-38 -18 -81 -59 -90 -86 -6 -20 -17 -24 -89 -34 -23 -3
-50 -16 -64 -30 l-24 -24 24 -16 c13 -8 53 -18 89 -21 77 -7 97 7 106 73 4 31
17 51 54 88 65 64 63 81 -6 50z"/>
<path d="M2007 6164 c-13 -13 -7 -110 7 -129 13 -19 15 -18 21 16 13 70 -4
137 -28 113z"/>
<path d="M4580 6161 c0 -20 13 -41 25 -41 15 0 28 27 19 41 -7 12 -44 12 -44
0z"/>
<path d="M8237 6109 c-18 -33 -22 -59 -8 -59 14 0 44 71 34 81 -4 4 -16 -5
-26 -22z"/>
<path d="M4536 6102 c-3 -5 -8 -28 -12 -50 -5 -34 -4 -42 9 -42 9 0 18 12 22
30 4 16 11 32 16 35 5 4 9 13 9 21 0 15 -35 20 -44 6z"/>
<path d="M6023 6043 c-20 -7 -15 -23 7 -23 29 0 25 -13 -15 -46 -36 -30 -43
-52 -24 -71 17 -17 0 -35 -29 -31 -14 2 -27 -3 -29 -9 -5 -15 41 -35 61 -27
40 15 109 184 76 184 -7 0 -18 6 -24 14 -6 7 -17 12 -23 9z"/>
<path d="M4379 5963 c-5 -150 -4 -175 3 -186 9 -14 9 -11 13 131 2 57 -1 102
-6 102 -5 0 -10 -21 -10 -47z"/>
<path d="M7242 5932 c-35 -108 -69 -259 -87 -380 -9 -62 -20 -124 -25 -138 -6
-14 -15 -69 -20 -122 -11 -104 -24 -186 -46 -297 -8 -38 -18 -106 -24 -150
-10 -86 -24 -168 -46 -280 -16 -84 -22 -128 -35 -259 -5 -55 -14 -105 -21
-113 -12 -15 -11 -16 36 -51 22 -17 32 -19 47 -11 19 10 19 10 -1 36 -24 31
-25 49 -4 99 11 25 16 63 15 108 -1 41 3 74 11 83 6 8 15 36 18 61 31 215 45
311 71 467 16 99 31 207 33 240 3 33 12 101 21 150 9 50 20 124 25 165 6 41
15 91 20 110 10 32 22 119 34 238 3 24 7 56 11 72 13 57 -12 37 -33 -28z"/>
<path d="M7070 5975 c0 -8 5 -15 10 -15 6 0 10 7 10 15 0 8 -4 15 -10 15 -5 0
-10 -7 -10 -15z"/>
<path d="M2010 5955 c0 -14 5 -25 10 -25 6 0 10 11 10 25 0 14 -4 25 -10 25
-5 0 -10 -11 -10 -25z"/>
<path d="M4650 5836 c0 -31 6 -34 13 -6 3 11 1 23 -4 26 -5 3 -9 -6 -9 -20z"/>
<path d="M2974 5794 c-15 -54 -13 -104 6 -104 5 0 12 20 16 45 3 25 10 48 15
51 5 3 9 18 9 35 0 51 -28 35 -46 -27z"/>
<path d="M8232 5777 c-6 -7 -14 -36 -18 -65 -3 -28 -10 -52 -15 -52 -4 0 -11
-16 -15 -35 -3 -19 -12 -39 -20 -46 -8 -6 -14 -27 -14 -46 0 -19 -7 -56 -15
-82 -11 -33 -13 -54 -7 -71 l10 -25 7 30 c4 17 10 41 15 55 5 14 11 42 15 62
3 20 12 50 20 65 8 15 15 35 15 44 0 9 6 32 14 50 13 33 30 129 22 129 -2 0
-8 -6 -14 -13z"/>
<path d="M4674 5762 c-18 -15 -24 -40 -38 -147 -22 -179 -22 -189 9 -132 15
29 28 77 34 127 6 44 15 89 21 100 12 22 14 70 3 70 -5 -1 -18 -9 -29 -18z"/>
<path d="M7760 5751 c-17 -33 -12 -99 8 -110 10 -5 23 -7 29 -3 17 11 26 101
12 118 -16 20 -36 18 -49 -5z"/>
<path d="M3244 5735 c-8 -20 2 -115 13 -126 5 -4 9 23 11 61 2 66 -11 100 -24
65z"/>
<path d="M4330 5672 c0 -4 5 -13 10 -18 12 -12 33 -171 25 -185 -9 -13 14
-306 26 -349 19 -63 22 -66 29 -25 10 53 3 319 -10 364 -5 20 -10 64 -10 98 0
34 -3 69 -6 78 -7 17 -64 51 -64 37z"/>
<path d="M6070 5670 c19 -13 30 -13 30 0 0 6 -10 10 -22 10 -19 0 -20 -2 -8
-10z"/>
<path d="M8095 5661 c-3 -11 -2 -28 4 -38 8 -16 10 -14 16 10 9 34 -10 60 -20
28z"/>
<path d="M2184 5616 c-4 -10 -2 -22 4 -28 8 -8 13 -7 18 6 4 10 2 22 -4 28 -8
8 -13 7 -18 -6z"/>
<path d="M7392 5618 c-18 -18 -14 -38 8 -38 15 0 20 7 20 25 0 27 -9 32 -28
13z"/>
<path d="M6031 5605 c1 -17 34 -68 44 -67 18 2 17 32 -2 39 -10 4 -23 14 -30
22 -7 9 -12 12 -12 6z"/>
<path d="M7737 5597 c-3 -8 -2 -20 3 -27 11 -18 42 -4 38 17 -4 22 -34 29 -41
10z"/>
<path d="M1680 5585 c0 -8 5 -15 10 -15 6 0 10 7 10 15 0 8 -4 15 -10 15 -5 0
-10 -7 -10 -15z"/>
<path d="M3139 5518 c-4 -25 5 -176 10 -168 8 12 9 190 2 190 -5 0 -10 -10
-12 -22z"/>
<path d="M7390 5515 c-16 -19 -5 -47 17 -43 11 2 18 12 18 27 0 29 -17 37 -35
16z"/>
<path d="M6160 5485 c7 -8 17 -15 22 -15 6 0 5 7 -2 15 -7 8 -17 15 -22 15 -6
0 -5 -7 2 -15z"/>
<path d="M8070 5485 c0 -11 -3 -30 -6 -42 -4 -13 -2 -23 4 -23 16 0 24 34 13
61 -9 21 -10 22 -11 4z"/>
<path d="M2220 5443 c1 -5 12 -21 25 -38 28 -33 34 -18 9 20 -16 24 -34 33
-34 18z"/>
<path d="M7920 5318 c1 -407 -7 -640 -20 -648 -8 -5 -15 -32 -17 -69 -1 -33
-8 -80 -13 -103 -14 -58 -21 -188 -11 -188 11 0 24 48 16 60 -3 5 1 20 10 34
11 17 17 54 20 123 1 54 8 129 14 166 10 68 24 285 23 362 -1 22 -2 118 -2
213 -1 98 -5 172 -11 172 -5 0 -9 -54 -9 -122z"/>
<path d="M3240 5399 c0 -11 5 -17 10 -14 6 3 10 13 10 21 0 8 -4 14 -10 14 -5
0 -10 -9 -10 -21z"/>
<path d="M7374 5357 c-3 -8 -4 -32 -2 -53 2 -31 7 -39 23 -39 17 0 20 7 20 50
0 39 -4 50 -18 53 -9 2 -20 -3 -23 -11z"/>
<path d="M4020 5286 c0 -14 5 -26 10 -26 6 0 10 9 10 19 0 11 -4 23 -10 26 -6
4 -10 -5 -10 -19z"/>
<path d="M8017 5303 c-14 -13 -7 -42 8 -37 8 4 15 15 15 25 0 19 -11 25 -23
12z"/>
<path d="M1890 5291 c0 -5 7 -14 15 -21 18 -15 42 1 31 19 -8 13 -46 15 -46 2z"/>
<path d="M8340 5235 c0 -29 29 -35 50 -10 16 19 4 35 -26 35 -19 0 -24 -5 -24
-25z"/>
<path d="M8007 5223 c-7 -35 2 -60 14 -41 11 17 11 55 0 62 -5 3 -11 -6 -14
-21z"/>
<path d="M3087 5222 c-17 -19 -23 -52 -9 -52 16 0 31 17 37 43 8 31 -4 35 -28
9z"/>
<path d="M1786 5157 c-4 -25 -4 -56 -1 -70 4 -14 2 -35 -5 -47 -7 -13 -8 -26
-2 -33 18 -22 32 -83 38 -157 6 -77 25 -140 43 -140 14 0 14 71 1 102 -5 13
-14 64 -19 113 -13 121 -36 263 -43 270 -3 3 -9 -14 -12 -38z"/>
<path d="M8286 5155 c-20 -31 -20 -35 2 -35 21 0 52 29 52 48 0 21 -37 13 -54
-13z"/>
<path d="M2285 5149 c-4 -6 -5 -13 -2 -16 7 -7 27 6 27 18 0 12 -17 12 -25 -2z"/>
<path d="M3061 5134 c-6 -13 -8 -37 -5 -54 4 -17 1 -36 -6 -44 -8 -10 -8 -21
-2 -32 5 -9 7 -26 4 -36 -3 -11 1 -24 9 -29 20 -12 18 -88 -4 -100 -21 -12
-23 -49 -3 -49 8 0 16 10 18 23 2 15 10 22 25 21 26 -1 34 32 28 126 -4 58 -6
65 -24 62 -15 -2 -22 4 -27 23 -7 29 12 59 32 51 18 -7 27 10 20 38 -8 32 -50
32 -65 0z"/>
<path d="M2310 4991 c0 -15 16 -22 35 -15 13 5 14 8 3 15 -18 12 -38 11 -38 0z"/>
<path d="M8580 4954 c-13 -33 -13 -94 0 -94 6 0 10 8 10 18 0 10 8 34 19 54
10 21 16 40 13 43 -13 13 -33 3 -42 -21z"/>
<path d="M2372 4908 c-21 -42 -19 -118 3 -118 22 0 30 27 16 57 -10 22 -10 28
3 35 19 11 21 48 3 48 -8 0 -19 -10 -25 -22z"/>
<path d="M4415 4807 c-8 -20 -15 -41 -15 -47 0 -15 -55 -148 -101 -245 -21
-44 -40 -92 -43 -106 -3 -15 -14 -29 -26 -32 -25 -7 -25 -22 0 -47 24 -24 40
-26 40 -4 0 9 11 25 25 36 14 11 25 25 25 32 0 7 9 21 20 31 19 17 20 16 49
-11 28 -26 29 -30 14 -46 -14 -16 -14 -20 2 -45 20 -30 32 -172 25 -285 -1 -9
-7 -22 -15 -28 -11 -9 -10 -15 6 -31 25 -25 25 -88 0 -120 -35 -46 -42 -67
-30 -87 10 -16 8 -25 -10 -51 -12 -17 -28 -31 -35 -31 -22 0 -36 -48 -36 -120
0 -54 -3 -70 -14 -70 -8 0 -18 5 -22 11 -14 23 -22 -16 -23 -110 0 -53 4 -107
9 -121 5 -14 14 -79 20 -145 23 -237 27 -272 35 -286 5 -7 10 -53 11 -102 1
-48 7 -101 14 -117 10 -24 10 -36 0 -60 -10 -25 -9 -38 6 -79 15 -42 16 -56 6
-89 -17 -55 -15 -75 8 -90 19 -11 20 -19 14 -91 -6 -73 -5 -80 14 -90 40 -21
35 -75 -11 -128 -26 -29 -16 -53 23 -53 39 0 58 -40 35 -73 -19 -27 -19 -46
-1 -66 17 -21 26 -93 14 -115 -7 -13 -5 -23 7 -36 17 -19 14 -73 -6 -85 -5 -4
-9 -18 -9 -32 0 -21 2 -23 15 -13 28 23 45 4 45 -50 0 -28 4 -60 10 -70 5 -10
10 -48 11 -85 1 -54 -3 -72 -20 -95 -33 -46 -5 -83 32 -42 9 9 20 28 25 41 8
24 9 24 30 -11 12 -20 22 -40 22 -47 0 -6 16 -11 35 -11 37 0 47 18 20 40 -8
6 -21 37 -30 67 -9 31 -25 67 -35 82 -10 14 -24 59 -30 99 -6 41 -18 88 -27
105 -8 17 -19 72 -23 122 -10 116 -28 250 -40 295 -5 19 -12 78 -15 130 -4 52
-13 129 -21 170 -7 41 -18 131 -24 200 -23 286 -29 346 -39 375 -5 17 -12 76
-16 133 -3 57 -10 114 -15 126 -4 13 -12 91 -15 175 -7 136 -5 154 11 179 10
15 29 47 42 72 45 85 85 140 102 140 13 0 20 14 28 48 5 26 16 61 23 79 11 26
11 54 0 155 -7 68 -16 179 -21 248 -8 120 -19 192 -42 290 -6 25 -13 109 -17
187 -7 158 -19 193 -46 130z"/>
<path d="M8070 4796 c0 -8 -12 -29 -27 -47 -16 -18 -29 -42 -30 -53 -1 -12
-11 -52 -21 -89 -10 -38 -17 -80 -14 -93 4 -21 14 -9 67 80 35 57 66 113 70
125 3 12 10 21 15 21 18 0 32 40 19 56 -15 19 -79 19 -79 0z"/>
<path d="M6176 4758 c-2 -24 -5 -52 -5 -63 1 -65 -4 -112 -13 -122 -5 -7 -11
-63 -13 -125 -2 -62 -11 -138 -19 -168 -9 -30 -16 -73 -16 -95 0 -22 -5 -57
-11 -78 -6 -21 -12 -64 -13 -95 -6 -92 -18 -166 -30 -182 -18 -22 -39 -116
-31 -138 3 -11 -4 -53 -16 -93 -11 -41 -24 -88 -29 -105 -4 -18 -20 -48 -35
-68 -15 -20 -25 -36 -21 -36 9 0 47 22 68 39 16 13 19 11 24 -17 12 -61 22
-31 21 66 0 56 5 110 12 127 17 41 40 170 51 295 6 58 17 128 25 155 9 30 13
78 11 120 -2 52 1 78 14 100 12 22 17 58 19 135 1 58 6 119 11 135 12 41 21
255 10 255 -5 0 -11 -19 -14 -42z"/>
<path d="M8420 4747 c-30 -18 -57 -42 -59 -53 -1 -10 -10 -27 -19 -37 -14 -15
-14 -21 -3 -39 8 -13 9 -24 3 -30 -13 -13 -78 -27 -125 -28 -50 0 -82 -18
-142 -79 -46 -48 -48 -51 -24 -51 13 0 33 6 44 13 42 29 162 57 244 57 64 0
81 3 81 14 0 9 -12 16 -32 18 l-31 3 27 32 c23 28 25 34 12 39 -20 8 -21 38
-1 54 11 9 22 9 50 -1 48 -18 68 2 72 71 3 46 1 50 -20 50 -12 0 -47 -15 -77
-33z"/>
<path d="M3078 4733 c-3 -34 -6 -38 -27 -35 -20 3 -22 1 -16 -15 9 -20 10 -83
1 -178 -5 -59 11 -155 26 -155 4 0 13 10 19 22 16 30 26 383 11 392 -7 4 -12
-7 -14 -31z"/>
<path d="M6358 4728 c-1 -24 -1 -52 0 -63 0 -11 -4 -42 -9 -70 -6 -27 -14
-105 -18 -172 -5 -68 -13 -128 -18 -135 -6 -7 -14 -69 -17 -138 -4 -69 -11
-129 -15 -135 -5 -5 -11 -44 -15 -85 -10 -113 -13 -139 -26 -215 -6 -38 -11
-81 -11 -94 1 -13 -5 -29 -13 -35 -10 -7 -16 -40 -19 -101 -3 -49 -9 -121 -15
-160 -12 -83 -29 -390 -37 -675 -4 -113 -10 -254 -15 -315 -6 -60 -10 -158
-10 -216 0 -59 -6 -144 -14 -190 -8 -46 -17 -140 -21 -209 -3 -69 -13 -174
-22 -235 -8 -60 -16 -124 -18 -141 -1 -16 -5 -36 -10 -44 -4 -7 -8 -59 -7
-114 1 -56 -3 -130 -9 -166 -11 -72 -12 -80 -11 -160 2 -121 3 -145 12 -155 4
-5 10 -26 12 -45 2 -19 8 -33 13 -30 6 3 9 14 7 25 -1 11 -2 31 -2 45 0 145
-3 185 -17 207 -14 21 -14 25 3 50 11 17 20 59 26 113 4 47 12 114 18 150 6
36 12 76 13 90 4 35 18 83 29 96 4 6 6 18 3 26 -3 8 -1 52 5 98 6 47 12 112
15 145 2 33 9 94 15 135 6 41 11 84 11 95 1 11 6 52 11 90 5 39 11 138 13 222
1 83 7 157 11 165 5 7 10 49 10 93 1 44 4 107 7 140 3 33 2 64 -4 71 -12 15
-6 111 9 126 6 6 8 24 5 40 -3 16 0 40 7 53 9 18 10 31 1 58 -25 75 -7 456 25
521 8 16 14 42 14 57 0 30 16 80 29 89 4 3 20 31 35 63 21 44 24 61 16 76 -5
11 -10 31 -10 46 0 14 -12 48 -27 77 l-27 51 28 24 c26 22 27 25 13 41 -15 16
-13 19 16 39 42 29 265 63 372 58 33 -2 74 -1 91 2 27 4 30 9 30 40 l0 35 -80
-4 c-48 -3 -82 -10 -84 -16 -2 -7 -27 -12 -62 -12 -31 0 -73 -6 -91 -14 -42
-17 -142 -30 -169 -21 -15 5 -20 15 -20 41 0 19 5 34 11 34 8 0 9 13 5 41 -5
29 -2 48 8 64 12 18 15 57 15 172 0 81 1 180 1 219 1 79 -19 117 -22 42z"/>
<path d="M2370 4713 c-5 -15 -14 -35 -19 -43 -5 -10 -3 -26 7 -45 11 -21 16
-58 17 -125 0 -86 2 -95 19 -95 10 0 22 -7 26 -15 4 -8 12 -24 17 -35 6 -12
14 -40 18 -63 4 -23 11 -42 16 -42 14 0 10 73 -5 96 -8 11 -19 36 -24 55 -6
24 -14 33 -25 31 -26 -4 -22 56 5 85 20 22 21 26 9 60 -8 20 -15 64 -16 97 -2
47 -6 62 -19 64 -10 2 -20 -7 -26 -25z"/>
<path d="M3417 4723 c-13 -12 -7 -53 7 -53 14 0 29 37 20 52 -6 10 -18 10 -27
1z"/>
<path d="M1857 4646 c-4 -10 -7 -25 -7 -34 1 -22 36 -69 46 -60 9 10 -3 71
-20 93 -12 17 -13 17 -19 1z"/>
<path d="M3940 4465 c-9 -11 -10 -19 -2 -27 14 -14 32 -1 32 23 0 23 -13 25
-30 4z"/>
<path d="M3810 4435 c0 -8 5 -15 10 -15 6 0 10 7 10 15 0 8 -4 15 -10 15 -5 0
-10 -7 -10 -15z"/>
<path d="M3644 4432 c-17 -11 -28 -52 -14 -52 23 0 50 21 50 40 0 20 -16 26
-36 12z"/>
<path d="M6002 4404 c-15 -7 -56 -84 -44 -84 5 0 32 11 61 25 37 18 51 31 49
43 -3 17 -41 26 -66 16z"/>
<path d="M8268 4404 c-3 -3 -34 -9 -69 -14 -38 -6 -66 -15 -71 -24 -10 -18
-68 -36 -115 -36 -51 0 -63 -9 -63 -46 0 -31 3 -34 29 -34 16 0 44 12 66 30
21 17 44 30 52 30 7 0 16 7 19 15 4 8 16 15 28 15 11 1 34 7 51 14 39 16 75 4
136 -45 35 -28 51 -36 72 -32 15 3 27 7 27 10 0 12 -41 80 -56 94 -19 17 -96
33 -106 23z"/>
<path d="M1810 4360 c0 -5 5 -10 10 -10 6 0 20 -12 33 -26 28 -33 74 -57 82
-44 9 15 -4 50 -19 50 -7 0 -25 9 -39 20 -26 21 -67 27 -67 10z"/>
<path d="M5800 4330 c-8 -5 -29 -10 -47 -10 -38 0 -47 -11 -29 -35 12 -16 17
-17 45 -6 17 8 31 17 31 22 0 5 6 9 14 9 8 0 16 7 20 15 6 17 -11 20 -34 5z"/>
<path d="M3561 4300 c-23 -26 -31 -29 -52 -21 -14 5 -46 7 -71 4 -28 -3 -48
-1 -52 6 -11 17 -41 13 -60 -8 -13 -15 -14 -20 -4 -24 23 -8 262 5 276 16 15
12 16 57 1 57 -5 0 -23 -14 -38 -30z"/>
<path d="M5877 4270 c-39 -52 -43 -65 -27 -75 18 -11 47 14 64 55 33 83 17 92
-37 20z"/>
<path d="M6656 4313 c-4 -4 -19 -7 -34 -8 -17 0 -28 -6 -30 -17 -3 -15 4 -18
35 -18 43 0 80 21 69 38 -8 13 -29 16 -40 5z"/>
<path d="M3835 4301 c-3 -5 -1 -12 5 -16 12 -7 30 2 30 16 0 12 -27 12 -35 0z"/>
<path d="M3165 4271 c-3 -5 0 -13 5 -16 15 -9 60 3 60 15 0 13 -57 13 -65 1z"/>
<path d="M4162 4241 c2 -7 7 -12 11 -12 12 1 9 15 -3 20 -7 2 -11 -2 -8 -8z"/>
<path d="M3904 4210 c-63 -23 -321 -33 -346 -13 -11 10 -17 10 -26 1 -8 -8
-61 -12 -157 -12 -96 -1 -148 -5 -153 -12 -4 -6 -16 -11 -27 -10 -11 0 -21 -3
-23 -9 -2 -12 138 -16 153 -4 6 4 30 4 55 -1 25 -4 49 -6 53 -3 5 3 95 7 201
9 179 3 293 14 360 35 16 5 47 10 70 10 l41 2 -50 7 c-27 4 -61 9 -75 13 -14
3 -47 -2 -76 -13z"/>
<path d="M3000 4184 c-26 -9 -29 -13 -14 -13 30 -1 69 -34 62 -53 -4 -10 -26
-17 -68 -21 -89 -8 -102 -27 -19 -27 79 0 91 -7 87 -51 -3 -33 -5 -34 -55 -43
-67 -11 -68 -26 -3 -26 37 0 52 -4 59 -18 6 -12 7 -73 2 -163 -8 -148 -6 -398
4 -407 3 -3 7 -3 9 -1 3 2 6 146 7 319 2 173 5 350 9 392 3 43 1 89 -3 103
-10 28 -24 29 -77 9z"/>
<path d="M4110 4190 c0 -5 11 -17 26 -26 19 -13 28 -14 37 -5 14 14 2 26 -35
35 -16 4 -28 2 -28 -4z"/>
<path d="M2365 4181 c-3 -5 -1 -12 4 -15 13 -8 42 4 35 15 -7 12 -31 12 -39 0z"/>
<path d="M2531 4181 c-20 -13 3 -23 36 -15 25 7 25 8 8 15 -26 10 -28 10 -44
0z"/>
<path d="M5947 4152 c-10 -10 -17 -31 -17 -46 0 -14 -7 -29 -15 -32 -35 -14
-24 -84 14 -84 15 0 21 10 26 49 5 38 13 53 36 70 35 26 37 46 7 55 -32 8 -33
8 -51 -12z"/>
<path d="M1782 4149 c2 -7 10 -15 17 -17 8 -3 12 1 9 9 -2 7 -10 15 -17 17 -8
3 -12 -1 -9 -9z"/>
<path d="M1967 4126 c-21 -54 -19 -120 8 -229 15 -61 33 -132 41 -157 8 -25
14 -56 14 -69 0 -25 25 -133 39 -166 12 -28 62 -223 68 -265 3 -19 16 -46 29
-60 15 -17 21 -33 18 -46 -3 -12 4 -50 16 -85 11 -35 19 -81 18 -102 -1 -27 3
-42 14 -48 9 -5 19 -29 22 -53 4 -24 14 -50 21 -56 8 -7 15 -22 15 -34 0 -11
7 -39 15 -61 8 -22 14 -59 15 -82 0 -24 6 -45 14 -50 7 -4 19 -19 26 -33 l13
-25 10 23 c7 15 5 34 -6 64 -8 24 -18 64 -22 89 -3 26 -12 55 -20 65 -8 11
-15 28 -15 38 0 11 -4 33 -9 50 -25 86 -51 176 -62 216 -7 25 -19 58 -27 74
-8 16 -16 48 -17 70 -1 23 -10 66 -19 96 -10 30 -21 71 -26 90 -5 19 -16 58
-24 87 -9 28 -16 66 -16 83 0 17 -7 47 -15 67 -8 19 -15 53 -15 74 0 21 -6 58
-14 81 -28 89 -37 124 -46 173 -5 28 -15 81 -22 119 -13 68 -30 92 -41 62z"/>
<path d="M7190 4130 c-8 -5 -16 -20 -18 -32 -1 -13 -5 -45 -8 -72 -5 -41 -3
-52 11 -63 15 -10 20 -10 30 4 14 19 131 27 252 17 60 -5 73 -9 78 -25 6 -17
14 -20 58 -17 36 2 52 7 52 17 0 13 -22 21 -131 50 -16 4 -83 4 -149 -1 -82
-7 -125 -7 -141 1 -30 13 -30 22 1 55 31 33 72 35 77 4 3 -22 8 -23 88 -24 64
0 91 4 110 17 14 9 52 20 84 23 68 7 69 8 61 27 -4 11 -45 14 -203 16 -108 1
-206 5 -217 7 -11 3 -27 1 -35 -4z"/>
<path d="M3882 4088 c5 -15 60 -22 96 -13 39 10 8 25 -51 25 -35 0 -47 -4 -45
-12z"/>
<path d="M2790 4079 c-19 -4 -183 -8 -364 -8 -308 0 -370 -5 -335 -27 15 -9
728 -7 772 2 15 3 27 9 27 13 0 14 -65 27 -100 20z"/>
<path d="M3517 4073 c-28 -7 -13 -28 18 -26 15 1 30 5 33 8 6 6 -18 26 -28 24
-3 -1 -13 -3 -23 -6z"/>
<path d="M3147 4064 c-13 -14 6 -24 44 -24 28 0 39 4 39 15 0 11 -11 15 -38
15 -21 0 -42 -3 -45 -6z"/>
<path d="M3382 4061 c2 -7 7 -12 11 -12 12 1 9 15 -3 20 -7 2 -11 -2 -8 -8z"/>
<path d="M4130 4055 c0 -9 5 -15 11 -13 6 2 11 8 11 13 0 5 -5 11 -11 13 -6 2
-11 -4 -11 -13z"/>
<path d="M6665 4063 c-31 -7 -42 -23 -17 -23 11 0 25 -8 31 -17 8 -16 11 -15
29 7 27 33 11 46 -43 33z"/>
<path d="M6773 4054 c-11 -28 22 -41 109 -43 86 -1 92 -3 102 -37 9 -29 -17
-59 -53 -60 -80 -3 -79 -3 -51 -18 14 -8 38 -12 56 -9 42 7 51 -12 47 -97 -2
-36 -5 -171 -7 -300 -3 -169 -9 -256 -21 -310 -21 -95 -21 -401 1 -795 14
-256 2 -818 -22 -1066 -4 -38 -1 -109 6 -165 7 -55 14 -117 15 -139 3 -62 59
-270 75 -280 10 -6 165 143 175 170 5 11 9 43 10 70 2 48 29 168 43 190 6 8
26 92 48 195 3 14 9 34 14 45 12 26 76 283 100 400 11 50 26 117 35 150 16 63
38 172 59 292 7 39 17 77 23 85 6 7 13 36 16 63 9 76 24 166 36 204 15 49 26
188 14 176 -18 -18 -44 -109 -50 -175 -3 -36 -10 -73 -15 -83 -9 -18 -16 -48
-42 -197 -8 -41 -19 -91 -25 -110 -6 -19 -11 -50 -11 -68 0 -18 -6 -45 -14
-60 -7 -15 -17 -53 -20 -84 -4 -32 -12 -60 -17 -63 -5 -4 -9 -17 -9 -30 0 -13
-4 -26 -9 -29 -4 -3 -11 -29 -15 -58 -10 -78 -35 -196 -46 -216 -9 -17 -28
-112 -37 -187 -3 -22 -9 -45 -14 -51 -5 -7 -16 -40 -24 -75 -26 -118 -34 -144
-60 -202 -14 -32 -25 -63 -25 -70 0 -21 -66 -150 -89 -174 -28 -30 -58 -18
-52 20 1 4 -4 60 -10 125 -7 72 -12 445 -14 972 -2 470 -4 860 -5 865 -2 9 3
160 15 450 2 55 9 150 14 212 6 62 7 143 4 181 -4 46 -2 71 6 76 8 5 7 15 -4
37 -14 27 -14 32 2 60 18 31 18 31 -4 46 -49 33 -19 96 37 78 18 -6 60 20 49
29 -20 17 -110 46 -144 46 -23 0 -59 7 -78 15 -50 21 -116 20 -124 -1z"/>
<path d="M7793 4048 c2 -7 10 -13 17 -13 7 0 15 6 18 13 2 7 -5 12 -18 12 -13
0 -20 -5 -17 -12z"/>
<path d="M6468 4016 c-27 -20 -22 -26 26 -26 41 0 74 19 59 33 -11 12 -67 7
-85 -7z"/>
<path d="M4110 3966 c0 -9 7 -16 16 -16 17 0 14 22 -4 28 -7 2 -12 -3 -12 -12z"/>
<path d="M2265 3940 c-3 -5 3 -10 15 -10 12 0 18 5 15 10 -3 6 -10 10 -15 10
-5 0 -12 -4 -15 -10z"/>
<path d="M2507 3943 c-11 -10 13 -32 28 -27 8 3 11 12 8 20 -5 15 -25 19 -36
7z"/>
<path d="M2675 3941 c-8 -13 31 -24 56 -16 17 6 19 9 8 16 -18 12 -56 11 -64
0z"/>
<path d="M4126 3893 c-9 -60 -7 -98 8 -119 14 -18 15 -18 21 6 3 14 4 52 1 85
-5 71 -4 65 -15 65 -4 0 -11 -17 -15 -37z"/>
<path d="M4290 3904 c0 -21 4 -25 19 -21 10 2 26 0 35 -5 26 -15 19 8 -10 31
-35 28 -44 26 -44 -5z"/>
<path d="M7644 3873 c-4 -15 -14 -36 -22 -45 -16 -19 -18 -18 30 -22 18 -1 28
71 12 85 -10 8 -15 4 -20 -18z"/>
<path d="M6665 3880 c-11 -4 -41 -5 -66 -3 -28 3 -49 1 -53 -5 -10 -17 33 -34
69 -28 27 5 33 3 38 -14 7 -27 25 -25 36 4 5 13 17 26 26 30 9 3 13 10 10 16
-7 12 -32 12 -60 0z"/>
<path d="M7480 3883 c-71 -7 -73 -23 -3 -23 34 0 68 3 77 6 20 8 11 25 -12 22
-9 -1 -37 -3 -62 -5z"/>
<path d="M7724 3866 c-11 -28 1 -51 28 -54 31 -4 48 29 28 53 -16 19 -49 19
-56 1z"/>
<path d="M2472 3858 c-17 -17 -15 -83 3 -98 9 -7 17 -11 18 -9 35 49 50 109
28 109 -5 0 -15 2 -23 5 -7 3 -19 0 -26 -7z"/>
<path d="M7100 3849 c-37 -6 -33 -9 35 -27 62 -17 355 -28 355 -13 0 17 -50
33 -85 27 -17 -3 -46 -1 -65 6 -38 12 -184 17 -240 7z"/>
<path d="M5922 3812 c-16 -43 -34 -143 -28 -150 10 -9 22 10 40 62 18 55 21
102 7 110 -5 3 -13 -7 -19 -22z"/>
<path d="M4136 3721 c-5 -7 -7 -78 -5 -159 1 -81 1 -169 0 -197 -2 -72 8 -120
21 -107 8 8 11 80 10 220 -1 199 -9 271 -26 243z"/>
<path d="M7617 3693 c-4 -3 -7 -20 -7 -37 0 -17 -7 -44 -15 -60 -18 -35 -19
-56 -2 -56 16 0 44 64 51 118 5 31 3 42 -7 42 -8 0 -17 -3 -20 -7z"/>
<path d="M2577 3663 c-13 -12 -7 -43 8 -43 9 0 15 9 15 25 0 24 -10 32 -23 18z"/>
<path d="M4485 3572 c-30 -93 -35 -131 -40 -267 -3 -82 1 -172 10 -243 8 -62
15 -135 15 -161 0 -31 5 -53 15 -61 8 -7 15 -20 15 -29 0 -9 9 -27 19 -41 l19
-25 7 28 c4 14 2 41 -4 59 -7 18 -14 85 -16 148 -2 63 -7 149 -10 190 -5 58
-3 85 10 117 16 40 16 43 -4 70 -19 25 -20 34 -11 88 12 73 13 172 2 179 -5 3
-17 -21 -27 -52z"/>
<path d="M4891 3479 c0 -57 5 -113 10 -124 5 -13 7 24 3 100 -4 66 -8 122 -10
124 -2 2 -4 -43 -3 -100z"/>
<path d="M2512 3558 c-16 -16 -15 -48 2 -48 14 0 26 21 26 46 0 17 -12 18 -28
2z"/>
<path d="M2600 3521 c0 -40 11 -57 30 -46 8 5 8 11 0 20 -6 7 -8 25 -4 39 5
20 2 26 -10 26 -12 0 -16 -10 -16 -39z"/>
<path d="M4598 3537 c-5 -10 -8 -35 -8 -55 1 -30 2 -34 11 -19 6 9 9 34 7 55
-2 28 -5 32 -10 19z"/>
<path d="M5772 3431 c-19 -24 -32 -51 -32 -68 0 -16 -9 -36 -20 -46 -11 -9
-20 -24 -20 -33 0 -22 44 -14 48 9 2 10 23 48 48 85 24 37 44 73 44 80 0 25
-38 11 -68 -27z"/>
<path d="M2566 3377 c-14 -10 -15 -17 -7 -40 6 -16 11 -39 11 -53 0 -28 24
-33 35 -6 35 85 15 138 -39 99z"/>
<path d="M4820 3252 c0 -67 12 -82 64 -82 38 0 32 18 -6 22 -32 3 -33 5 -36
53 -5 75 -22 81 -22 7z"/>
<path d="M4920 3255 c0 -28 4 -44 10 -40 6 3 10 21 10 40 0 19 -4 37 -10 40
-6 4 -10 -12 -10 -40z"/>
<path d="M5851 3269 c-1 -9 -8 -22 -16 -29 -8 -7 -15 -22 -15 -33 0 -11 -7
-43 -15 -71 -34 -121 -60 -236 -70 -316 l-6 -45 18 24 c22 31 62 152 69 211 3
25 9 54 13 65 41 105 45 131 33 175 -6 19 -11 28 -11 19z"/>
<path d="M1380 3245 c0 -8 5 -15 10 -15 6 0 10 7 10 15 0 8 -4 15 -10 15 -5 0
-10 -7 -10 -15z"/>
<path d="M7700 3225 c0 -19 5 -35 10 -35 6 0 10 16 10 35 0 19 -4 35 -10 35
-5 0 -10 -16 -10 -35z"/>
<path d="M1461 3241 c-64 -11 -44 -26 51 -39 51 -7 118 -15 148 -17 54 -5 120
9 120 24 0 7 -95 20 -188 26 -18 1 -35 5 -39 9 -7 7 -43 6 -92 -3z"/>
<path d="M3036 3235 c-9 -25 -7 -113 3 -119 12 -8 24 100 13 120 -8 15 -10 15
-16 -1z"/>
<path d="M2582 3168 c0 -29 8 -65 16 -80 12 -21 13 -30 4 -41 -13 -15 -6 -45
14 -62 6 -5 15 -41 18 -80 4 -38 13 -79 20 -90 7 -11 11 -36 9 -55 -5 -46 9
-69 32 -50 12 10 19 10 27 2 7 -7 15 -12 18 -12 11 0 1 131 -11 146 -9 11 -9
17 1 29 11 13 8 21 -15 45 -25 26 -28 37 -28 91 0 53 -3 63 -24 76 -29 19 -31
53 -3 53 14 0 20 7 20 21 0 16 -4 19 -20 14 -14 -5 -20 -2 -20 10 0 12 -35 35
-55 35 -2 0 -3 -24 -3 -52z"/>
<path d="M5996 3198 c-20 -63 -27 -238 -11 -269 12 -22 13 -20 19 31 11 105
14 240 5 246 -5 3 -11 -1 -13 -8z"/>
<path d="M4145 3171 c-4 -20 -3 -37 4 -44 7 -7 11 -53 11 -117 0 -74 6 -131
20 -185 24 -93 24 -107 5 -163 -19 -54 -11 -71 21 -41 19 18 27 20 36 11 18
-18 12 -81 -11 -113 -25 -33 -27 -62 -6 -79 21 -18 19 -35 -10 -64 -14 -14
-25 -32 -25 -41 0 -9 -15 -40 -33 -68 -19 -29 -42 -81 -52 -116 -18 -62 -18
-64 0 -77 17 -13 17 -15 3 -31 -20 -22 -37 -99 -19 -89 6 4 11 13 11 19 0 7 9
18 20 25 16 10 20 23 20 65 0 31 6 61 15 73 8 10 15 27 15 37 0 10 11 33 23
50 13 18 28 48 33 67 7 23 19 40 38 48 20 10 26 18 20 30 -4 10 -8 81 -10 160
-2 78 -8 151 -14 161 -5 11 -9 37 -8 58 1 26 -7 52 -25 80 -28 45 -31 70 -25
223 4 91 3 95 -23 124 l-27 30 -7 -33z"/>
<path d="M7678 3134 c-2 -19 0 -37 4 -40 4 -3 8 6 8 20 0 13 3 31 6 40 3 9 2
16 -4 16 -5 0 -12 -16 -14 -36z"/>
<path d="M7646 3009 c-3 -17 -6 -46 -5 -63 l1 -31 13 30 c16 34 20 95 6 95 -5
0 -11 -14 -15 -31z"/>
<path d="M7762 3028 c-7 -7 -12 -30 -12 -51 0 -22 -7 -66 -16 -99 -16 -65 -11
-81 23 -72 18 5 21 13 21 62 0 32 3 79 7 105 8 52 -3 75 -23 55z"/>
<path d="M3030 2844 c0 -92 3 -164 6 -161 11 10 13 316 3 323 -5 3 -9 -65 -9
-162z"/>
<path d="M1440 2927 c0 -13 6 -29 13 -35 21 -18 108 -44 124 -38 14 6 14 9 -1
25 -10 11 -28 22 -42 25 -13 4 -24 13 -24 21 0 8 -6 15 -12 15 -7 0 -23 3 -35
6 -19 5 -23 2 -23 -19z"/>
<path d="M8946 2929 c-10 -6 -46 -17 -80 -24 -166 -35 -192 -55 -68 -55 49 0
87 6 106 15 15 8 44 15 62 15 31 0 34 3 34 30 0 32 -19 39 -54 19z"/>
<path d="M7620 2881 c0 -10 -3 -34 -6 -52 -5 -23 -3 -31 3 -24 14 13 24 95 12
95 -5 0 -9 -8 -9 -19z"/>
<path d="M5969 2873 c-1 -26 -17 -171 -25 -222 -8 -53 8 -49 23 6 22 74 31
138 23 153 -5 9 -5 22 -1 29 10 16 3 51 -10 51 -5 0 -9 -8 -10 -17z"/>
<path d="M8480 2840 c-9 -17 -21 -20 -83 -20 -70 0 -120 -14 -87 -23 50 -15
256 -49 525 -88 44 -7 94 -18 112 -26 49 -20 53 -17 53 40 l0 52 -198 1 c-218
2 -264 11 -282 59 -11 30 -26 32 -40 5z"/>
<path d="M5714 2739 c-10 -17 13 -36 27 -22 12 12 4 33 -11 33 -5 0 -12 -5
-16 -11z"/>
<path d="M7706 2734 c-8 -20 -8 -99 0 -107 12 -12 34 6 34 28 0 13 5 36 10 51
8 21 8 29 -2 36 -20 12 -35 10 -42 -8z"/>
<path d="M1650 2700 c0 -5 -12 -17 -26 -27 -23 -15 -56 -17 -228 -19 -183 -2
-276 -11 -293 -28 -3 -3 -1 -18 6 -32 13 -29 30 -29 109 0 57 22 162 35 292
39 97 3 107 5 133 29 27 26 35 48 17 48 -5 0 -10 -4 -10 -10z"/>
<path d="M4510 2670 c0 -28 22 -71 34 -67 10 4 11 46 1 75 -7 20 -35 14 -35
-8z"/>
<path d="M5660 2680 c-12 -7 -12 -12 -2 -22 9 -9 15 -9 24 0 16 16 -2 34 -22
22z"/>
<path d="M8310 2678 c0 -11 75 -53 225 -126 68 -34 83 -66 39 -83 -15 -5 -40
-21 -56 -34 -16 -13 -45 -27 -66 -30 -59 -10 -122 -29 -122 -37 0 -29 213 -28
268 1 32 17 55 56 47 81 -4 12 -2 27 4 34 8 10 7 17 -5 27 -22 18 -53 36 -86
50 -16 6 -28 15 -28 19 0 5 -21 19 -47 31 -27 13 -68 36 -92 51 -48 30 -81 36
-81 16z"/>
<path d="M2747 2653 c-13 -13 -19 -14 -29 -5 -7 7 -16 12 -20 12 -12 0 1 -70
18 -97 14 -23 54 -32 54 -13 0 6 -11 10 -25 10 -35 0 -34 35 3 52 15 7 28 23
30 36 4 26 -7 28 -31 5z"/>
<path d="M3764 2648 c-3 -12 -7 -41 -8 -64 0 -22 -6 -47 -12 -55 -26 -33 -38
-68 -45 -139 -5 -41 -14 -108 -22 -149 -10 -54 -11 -82 -3 -102 8 -22 7 -32
-5 -46 -11 -14 -14 -44 -13 -137 2 -117 3 -119 30 -141 22 -18 26 -27 20 -49
-9 -37 1 -66 24 -66 28 0 31 31 25 308 -3 191 -1 287 11 390 22 192 25 260 15
267 -5 3 -13 -5 -17 -17z"/>
<path d="M8578 2657 c8 -9 24 -19 35 -23 12 -3 31 -14 42 -24 11 -9 29 -20 40
-23 11 -3 58 -19 105 -36 47 -17 111 -34 143 -37 l57 -7 0 40 c0 38 -2 41 -32
45 -18 3 -53 10 -78 16 -38 9 -133 29 -295 59 -27 5 -28 4 -17 -10z"/>
<path d="M6036 2638 c-13 -22 -20 -236 -18 -578 0 -50 -4 -88 -11 -92 -6 -3
-11 -48 -13 -105 -3 -109 -8 -155 -16 -169 -12 -18 -20 -240 -9 -229 6 6 13
50 16 99 3 48 9 95 13 104 5 9 10 66 11 127 2 68 8 123 17 145 8 19 12 45 9
58 -3 13 -1 29 4 36 10 12 25 626 16 626 -3 0 -11 -10 -19 -22z"/>
<path d="M5937 2564 c-4 -4 -4 -18 -1 -31 4 -14 0 -33 -10 -49 -33 -50 9 -88
49 -44 18 20 18 21 -5 45 -20 21 -22 28 -12 50 7 14 12 28 12 30 0 7 -26 6
-33 -1z"/>
<path d="M7673 2533 c-19 -43 -33 -122 -26 -140 3 -7 15 -13 28 -13 29 0 51
25 38 43 -6 7 -7 36 -3 72 4 33 5 63 3 68 -9 16 -25 5 -40 -30z"/>
<path d="M1545 2550 c-3 -5 3 -10 14 -10 12 0 21 5 21 10 0 6 -6 10 -14 10 -8
0 -18 -4 -21 -10z"/>
<path d="M2753 2505 c-7 -20 2 -29 21 -22 9 4 13 13 10 22 -8 19 -23 19 -31 0z"/>
<path d="M2390 2470 c0 -125 66 -369 105 -384 8 -3 11 -21 7 -55 -3 -38 1 -63
17 -100 11 -27 21 -63 21 -78 0 -16 7 -38 15 -49 8 -10 15 -36 15 -56 0 -20 5
-40 10 -43 6 -3 10 -14 10 -23 0 -9 7 -30 15 -46 8 -15 15 -39 15 -52 0 -12 6
-27 14 -31 16 -10 30 -119 16 -128 -6 -4 -8 -11 -4 -16 3 -5 10 -7 15 -4 11 8
16 -7 22 -67 5 -50 -4 -59 -29 -33 -9 9 -13 23 -9 35 13 41 -20 18 -42 -29
-27 -56 -28 -61 -9 -61 23 0 30 -57 11 -87 -11 -17 -15 -36 -11 -56 3 -17 1
-36 -5 -43 -6 -8 -8 -15 -3 -15 5 -1 15 -2 23 -3 23 -2 25 -27 2 -33 -12 -3
-21 -9 -21 -14 0 -9 33 -29 47 -29 24 0 63 128 67 220 2 61 12 73 48 66 26 -5
29 -3 23 12 -4 9 -14 37 -22 62 -8 25 -26 73 -39 108 -13 34 -24 73 -24 86 0
13 -9 43 -20 67 -11 24 -20 55 -20 69 0 15 -4 30 -9 35 -4 6 -14 32 -20 59 -7
28 -20 68 -30 90 -10 23 -22 62 -25 88 -4 26 -16 72 -27 102 -10 31 -19 63
-19 71 0 9 -8 32 -19 53 -10 20 -21 59 -25 86 -3 27 -10 54 -15 60 -9 12 -41
133 -41 157 0 8 -7 24 -15 35 -13 18 -14 16 -15 -26z m260 -1220 c8 -15 8 -20
-3 -20 -14 0 -37 19 -37 32 0 16 30 7 40 -12z"/>
<path d="M8722 2468 c3 -7 15 -14 27 -16 13 -2 48 -19 79 -37 56 -32 119 -55
155 -55 13 0 17 8 17 33 l0 33 -84 13 c-46 7 -101 19 -122 26 -49 18 -77 19
-72 3z"/>
<path d="M1540 2406 c-14 -8 -37 -19 -52 -25 -18 -7 -28 -18 -28 -31 0 -32 47
-46 83 -26 16 9 42 16 58 16 35 0 35 -1 8 44 -23 39 -32 42 -69 22z m38 -28
c-3 -7 -11 -13 -18 -13 -7 0 -15 6 -17 13 -3 7 4 12 17 12 13 0 20 -5 18 -12z"/>
<path d="M8742 2318 c-17 -17 -15 -32 6 -51 17 -16 19 -16 32 7 22 42 -7 75
-38 44z"/>
<path d="M8945 2293 c-39 -8 -94 -33 -115 -50 -22 -19 -45 -77 -36 -92 3 -5 3
-16 0 -25 -5 -13 -17 -14 -67 -9 -34 3 -80 14 -101 24 -22 11 -47 19 -56 19
-9 0 -25 7 -36 15 -10 8 -37 15 -59 15 -22 0 -58 5 -80 11 -106 27 -119 29
-127 21 -15 -15 1 -36 60 -76 33 -22 71 -40 92 -41 35 -3 93 -22 120 -40 17
-11 93 -39 161 -61 25 -7 62 -25 82 -38 19 -13 44 -27 55 -30 51 -17 52 -61 1
-97 -25 -17 -53 -23 -150 -30 -133 -10 -223 2 -297 40 -80 41 -96 16 -34 -50
35 -38 92 -66 185 -91 36 -10 41 -9 63 15 16 18 38 27 71 32 27 3 72 11 100
17 47 10 55 9 73 -7 19 -17 19 -19 3 -38 -30 -33 -76 -47 -134 -40 l-54 6 19
-22 c11 -11 28 -21 39 -21 27 0 107 -67 107 -90 0 -23 -55 -70 -81 -70 -27 0
-24 -15 9 -36 17 -12 46 -19 82 -20 62 -1 74 -15 40 -52 -17 -18 -32 -22 -80
-22 -32 0 -62 4 -65 10 -3 5 -27 19 -52 30 -51 23 -172 96 -188 114 -5 6 -29
24 -53 40 -23 16 -73 62 -111 102 -71 74 -97 94 -126 94 -12 0 -15 -6 -10 -21
15 -47 57 -99 195 -240 140 -145 159 -170 202 -274 41 -100 59 -132 88 -165
17 -19 30 -38 30 -42 0 -5 4 -7 8 -4 29 18 53 -59 42 -131 -11 -63 -25 -87
-40 -63 -24 38 -78 -79 -66 -143 3 -17 10 -61 15 -97 5 -36 14 -78 21 -95 10
-27 9 -32 -9 -44 -24 -16 -28 -49 -6 -57 9 -4 15 -11 14 -18 -4 -31 15 -76 32
-76 24 0 31 -14 20 -43 -7 -19 -5 -27 10 -40 20 -18 27 -81 9 -92 -5 -3 -10
-17 -10 -31 0 -13 -5 -24 -11 -24 -6 0 -9 -10 -7 -22 3 -21 9 -23 67 -26 l63
-3 -5 88 c-8 147 -24 232 -82 438 -48 170 -48 182 9 243 64 69 113 171 121
257 12 132 35 280 50 328 14 47 9 79 -15 97 -3 3 -23 27 -43 54 -42 56 -48 97
-17 124 69 59 81 77 77 112 -3 19 0 65 6 102 l11 67 -48 43 c-49 44 -86 102
-86 136 0 37 59 112 102 132 23 10 46 16 50 14 4 -3 8 11 8 30 0 37 -6 40 -55
29z m-229 -978 c10 -8 28 -15 39 -15 13 0 27 -13 39 -34 18 -33 18 -35 -6
-105 -25 -70 -43 -101 -59 -101 -11 0 -69 121 -69 143 0 9 -7 35 -16 57 -13
32 -14 43 -4 55 16 19 51 19 76 0z"/>
<path d="M1677 2276 c-10 -8 -57 -19 -105 -26 -48 -6 -108 -20 -134 -31 -26
-10 -57 -19 -70 -19 -13 0 -41 -15 -64 -33 -40 -32 -87 -57 -172 -92 -64 -27
-134 -129 -167 -241 -20 -69 -19 -80 9 -140 23 -49 66 -98 164 -187 23 -21 44
-50 47 -65 13 -61 40 -150 63 -202 19 -44 101 -178 144 -235 58 -77 106 -150
128 -195 26 -51 28 -67 34 -235 4 -99 11 -220 16 -270 5 -50 10 -128 10 -175
0 -127 2 -130 65 -130 l53 0 4 83 c3 45 1 87 -4 93 -5 7 -4 23 1 37 8 21 5 38
-16 83 -16 34 -29 87 -34 133 -4 42 -13 91 -20 110 -24 66 8 232 67 345 19 37
10 45 -19 18 l-22 -21 -32 20 c-38 24 -133 163 -133 194 0 11 -6 30 -14 40 -8
11 -12 24 -10 30 2 5 -23 18 -55 28 -77 24 -101 41 -94 67 3 11 9 20 13 20 5
0 12 9 15 20 4 11 19 33 35 48 15 15 45 61 67 102 46 87 98 150 126 150 21 0
21 -1 -9 -126 -21 -89 -14 -129 31 -182 73 -85 225 -191 225 -157 0 3 -25 35
-55 70 -68 80 -93 132 -107 215 -13 77 -13 86 2 214 7 58 8 102 3 107 -18 18
-218 -194 -259 -273 -8 -15 -18 -28 -22 -28 -4 0 -18 -16 -31 -35 -30 -44 -49
-42 -66 10 -14 38 -13 40 19 80 17 22 53 72 78 110 26 39 56 79 67 89 12 11
21 29 21 42 0 19 7 24 38 30 57 11 109 54 64 54 -10 0 -23 5 -28 10 -14 14
-42 3 -49 -20 -7 -23 -71 -80 -90 -80 -25 0 -97 -113 -120 -188 -10 -34 -41
-47 -71 -27 -20 13 -24 23 -24 70 0 33 9 75 24 112 66 162 80 213 58 213 -4 0
-25 -26 -45 -59 -36 -56 -149 -171 -168 -171 -5 0 -9 10 -9 23 0 12 -1 35 -2
52 -2 23 2 30 17 33 25 5 64 36 84 66 46 68 148 184 180 202 116 70 306 157
354 163 42 5 51 10 49 24 -2 11 4 17 17 17 26 0 51 10 51 21 0 14 -103 10
-123 -5z"/>
<path d="M7616 2223 c-4 -38 -11 -83 -17 -100 -17 -54 20 -78 38 -25 6 15 16
43 23 62 20 58 22 74 11 103 -7 16 -18 27 -30 27 -17 0 -20 -9 -25 -67z"/>
<path d="M4287 2203 c-13 -12 -7 -51 8 -57 14 -5 14 -9 0 -35 -8 -17 -15 -41
-15 -54 0 -12 -5 -28 -12 -35 -7 -7 -8 -13 -2 -13 5 -1 16 -2 24 -3 11 -1 14
-11 12 -43 -2 -26 1 -43 7 -43 6 0 14 -1 18 -2 9 -4 22 59 14 68 -3 3 -6 40
-6 82 0 95 -23 160 -48 135z"/>
<path d="M1783 2163 c-15 -6 -17 -59 -3 -68 6 -3 20 -27 31 -53 38 -83 130
-144 193 -128 36 9 33 23 -9 40 -19 8 -35 20 -35 26 0 6 -11 15 -24 21 -28 13
-86 90 -101 134 -10 29 -27 39 -52 28z"/>
<path d="M3298 2105 c-20 -40 -23 -125 -5 -125 35 0 69 87 43 112 -7 7 -15 20
-18 28 -3 11 -9 6 -20 -15z"/>
<path d="M1610 2106 c-38 -12 -80 -66 -80 -102 0 -16 -12 -31 -37 -48 -62 -39
-136 -137 -114 -151 9 -5 81 69 81 84 0 5 12 11 28 14 18 4 37 20 55 47 15 23
27 45 27 49 0 3 9 14 20 24 11 9 20 28 20 43 0 22 4 25 28 22 27 -3 27 -3 30
-88 4 -132 21 -148 36 -33 5 42 2 61 -14 97 -25 52 -34 57 -80 42z"/>
<path d="M7975 2099 c-9 -13 -6 -16 29 -25 21 -5 27 -4 22 4 -12 20 -44 33
-51 21z"/>
<path d="M5911 2070 c-1 -19 -8 -46 -15 -60 -12 -21 -12 -30 0 -59 16 -37 19
-122 5 -136 -5 -6 -12 -31 -15 -56 -5 -34 -3 -49 8 -58 20 -17 25 -4 30 76 3
38 10 81 15 97 15 39 14 98 -3 122 -8 11 -16 40 -19 65 -3 39 -4 40 -6 9z"/>
<path d="M8073 2052 c10 -10 17 -23 17 -29 0 -5 11 -22 25 -37 32 -34 31 -37
-5 -58 -41 -23 -38 -38 9 -38 30 0 49 -8 81 -35 23 -19 46 -35 50 -35 24 0 18
25 -14 60 -35 39 -42 62 -30 94 11 29 66 17 235 -52 85 -35 199 -49 295 -37
52 6 56 9 34 17 -14 5 -75 18 -135 28 -61 11 -138 29 -170 40 -83 29 -219 60
-263 60 -20 0 -57 9 -81 20 -54 25 -69 25 -48 2z"/>
<path d="M5610 2045 c0 -17 2 -18 24 -9 18 7 12 24 -10 24 -8 0 -14 -7 -14
-15z"/>
<path d="M5697 2053 c-9 -9 -8 -25 2 -42 8 -12 12 -12 25 -2 22 19 21 51 -2
51 -10 0 -22 -3 -25 -7z"/>
<path d="M6301 2031 c-1 -27 2 -32 11 -23 8 8 8 17 0 34 -10 22 -11 21 -11
-11z"/>
<path d="M6568 2028 c-3 -8 -3 -37 0 -64 l6 -49 7 50 c6 51 -2 92 -13 63z"/>
<path d="M3302 1930 c-16 -21 -21 -36 -16 -54 3 -15 0 -33 -9 -47 -12 -17 -13
-26 -4 -40 9 -14 7 -26 -7 -56 -10 -21 -20 -57 -22 -80 -2 -36 0 -43 16 -43
21 0 34 -31 25 -59 -3 -10 1 -23 9 -30 12 -10 15 -2 21 49 4 33 11 63 16 66
13 8 11 48 -3 62 -10 10 -10 17 0 32 7 12 8 21 2 25 -13 8 -13 172 0 180 12 7
13 25 3 24 -5 0 -18 -13 -31 -29z"/>
<path d="M7155 1949 c-12 -19 5 -23 22 -6 16 16 16 17 1 17 -9 0 -20 -5 -23
-11z"/>
<path d="M4215 1926 c-14 -14 -25 -34 -25 -46 0 -24 -2 -24 44 -5 31 13 37 20
34 42 -4 36 -23 39 -53 9z"/>
<path d="M7551 1926 c-13 -15 -34 -121 -28 -139 2 -7 -4 -29 -14 -49 -11 -21
-19 -45 -19 -54 0 -9 -11 -48 -25 -86 -29 -79 -46 -216 -26 -204 17 11 31 51
42 116 4 30 18 87 29 125 12 39 29 99 39 133 10 35 22 67 28 70 20 13 25 68 8
86 -20 19 -20 19 -34 2z"/>
<path d="M6277 1914 c-4 -4 -7 -21 -7 -38 l1 -31 15 29 c15 26 8 56 -9 40z"/>
<path d="M4340 1886 c0 -14 5 -26 10 -26 6 0 10 9 10 19 0 11 -4 23 -10 26 -6
4 -10 -5 -10 -19z"/>
<path d="M5700 1853 c0 -22 2 -25 10 -13 13 20 13 40 0 40 -5 0 -10 -12 -10
-27z"/>
<path d="M7166 1825 c-4 -33 -11 -73 -16 -90 -12 -36 -1 -50 35 -41 25 6 27
10 21 44 -3 20 -6 53 -6 73 0 19 -6 44 -14 54 -13 18 -15 14 -20 -40z"/>
<path d="M8026 1861 c-15 -16 -15 -22 -4 -40 13 -21 45 -37 55 -28 10 10 -9
87 -21 87 -7 0 -21 -9 -30 -19z"/>
<path d="M7665 1857 c-19 -15 -13 -37 10 -37 7 0 17 -9 20 -21 9 -28 16 -18
19 30 3 45 -13 54 -49 28z"/>
<path d="M4331 1809 c-17 -14 -25 -32 -28 -66 -4 -55 -37 -96 -90 -114 -18 -6
-33 -14 -33 -18 0 -4 -11 -13 -25 -19 -14 -6 -25 -17 -25 -24 0 -7 -7 -26 -15
-42 -9 -16 -13 -36 -11 -43 9 -23 45 -14 61 15 9 15 26 45 38 66 23 41 27 44
90 72 31 14 41 14 47 4 9 -15 2 -134 -11 -175 -8 -25 -6 -32 12 -46 17 -12 23
-30 27 -72 6 -80 -10 -120 -68 -161 -27 -19 -61 -56 -76 -83 -16 -26 -34 -52
-41 -56 -7 -4 -13 -14 -13 -22 0 -8 -13 -28 -30 -45 -28 -29 -30 -34 -28 -108
2 -85 -14 -143 -49 -178 -27 -27 -30 -56 -8 -74 19 -16 19 -34 1 -49 -8 -7
-18 -27 -21 -44 -4 -18 -16 -48 -27 -68 -25 -45 -21 -84 9 -85 30 -2 67 39 59
64 -7 22 16 86 41 114 11 12 14 27 9 53 -5 26 -3 44 8 60 31 47 47 113 38 149
-6 19 -6 39 -1 47 5 8 9 23 9 34 0 11 7 33 15 49 8 15 15 32 15 36 0 4 18 34
39 66 48 72 125 149 140 140 18 -11 25 -77 12 -112 -10 -26 -9 -38 1 -56 12
-23 23 -88 34 -203 l6 -60 -49 -40 c-26 -21 -54 -47 -61 -57 -7 -9 -18 -23
-26 -30 -7 -7 -18 -23 -24 -35 -36 -67 22 -48 100 33 34 35 66 64 73 64 7 0
17 -40 26 -102 8 -57 19 -103 24 -103 14 0 19 102 7 134 -6 14 -13 35 -18 46
-4 11 -6 51 -5 88 2 41 -2 73 -9 82 -16 19 -32 209 -20 239 7 19 4 28 -10 41
-17 15 -25 49 -35 150 -2 22 -8 76 -13 120 -6 44 -8 83 -6 87 3 4 -2 47 -11
95 -8 48 -15 111 -16 138 0 28 -3 67 -7 87 l-7 36 -24 -19z"/>
<path d="M4152 1808 c-14 -14 -16 -58 -3 -58 19 0 39 30 34 50 -6 23 -14 25
-31 8z"/>
<path d="M7866 1770 c15 -22 31 -40 36 -40 5 0 8 -9 6 -21 -2 -17 6 -24 43
-39 54 -20 119 -67 119 -85 0 -7 7 -19 16 -26 16 -13 16 -73 -1 -154 l-6 -30
30 35 c20 22 29 41 25 52 -4 15 1 18 29 18 40 0 53 -24 31 -55 -24 -32 -18
-47 15 -40 27 6 29 4 35 -34 4 -25 16 -47 34 -63 15 -12 26 -30 25 -38 -1 -8
19 -32 44 -53 26 -21 69 -69 97 -105 28 -37 54 -69 59 -70 4 -2 21 -24 38 -49
27 -38 30 -48 20 -69 -17 -38 -73 -33 -122 11 -22 19 -43 35 -48 35 -5 0 -12
8 -15 18 -7 21 -62 53 -80 46 -7 -3 -19 2 -26 11 -10 12 -16 13 -27 4 -24 -20
-40 5 -23 36 15 28 4 50 -11 22 -7 -11 -22 -17 -44 -17 -40 0 -55 18 -31 36
16 11 16 14 -8 29 -15 10 -26 27 -26 39 0 12 -6 31 -14 42 -14 18 -15 18 -20
-11 -4 -17 -11 -49 -16 -73 -6 -23 -10 -60 -10 -82 0 -33 4 -41 23 -45 13 -4
27 -5 33 -4 19 4 76 -14 81 -26 5 -15 89 -49 101 -41 5 3 20 -6 33 -20 13 -14
37 -32 52 -40 15 -9 37 -24 48 -35 28 -28 98 -59 135 -59 40 0 77 39 76 79 -3
113 -143 378 -272 516 -31 33 -85 94 -120 135 -93 108 -157 170 -175 170 -8 0
-18 7 -21 15 -4 9 -27 28 -53 42 -25 15 -59 37 -74 50 -16 13 -37 23 -48 23
-18 0 -17 -3 7 -40z"/>
<path d="M5697 1753 c-11 -10 -8 -43 3 -43 6 0 10 11 10 25 0 26 -2 29 -13 18z"/>
<path d="M6590 1716 c0 -14 5 -28 10 -31 6 -4 10 7 10 24 0 17 -4 31 -10 31
-5 0 -10 -11 -10 -24z"/>
<path d="M3660 1670 c0 -36 4 -60 11 -60 7 0 8 -11 4 -29 -4 -20 0 -41 14 -67
21 -39 26 -80 15 -122 -6 -19 -11 -22 -40 -16 -30 5 -34 4 -34 -15 0 -12 6
-21 15 -21 21 0 35 -31 36 -82 2 -131 -7 -296 -18 -310 -11 -13 -8 -58 5 -58
20 0 31 44 32 120 0 47 5 104 10 127 7 28 6 51 -1 70 -8 20 -7 36 4 63 30 75
41 140 41 264 1 133 -5 153 -37 121 -26 -26 -37 -17 -37 30 0 25 -4 45 -10 45
-6 0 -10 -27 -10 -60z"/>
<path d="M5130 1718 c-6 -249 -6 -378 1 -378 12 0 30 74 34 139 2 31 7 68 10
82 5 17 2 29 -9 38 -11 9 -16 30 -16 67 0 29 -4 56 -10 59 -5 3 -10 0 -10 -7z"/>
<path d="M8411 1674 c7 -9 51 -41 98 -73 80 -53 88 -56 143 -54 31 1 65 6 74
11 15 9 15 11 -7 25 -13 8 -42 18 -64 22 -53 9 -112 29 -176 60 -63 30 -88 33
-68 9z"/>
<path d="M2213 1663 c9 -2 25 -2 35 0 9 3 1 5 -18 5 -19 0 -27 -2 -17 -5z"/>
<path d="M5891 1603 c-7 -38 -18 -88 -26 -113 -7 -25 -19 -112 -25 -195 -7
-82 -14 -180 -17 -217 -4 -47 -2 -68 6 -68 7 0 11 20 11 51 0 36 4 49 13 47 6
-3 14 -13 15 -24 2 -10 7 -23 12 -27 8 -9 6 49 -6 166 -4 42 -2 77 5 95 6 15
16 79 21 142 6 63 13 136 16 163 9 74 -12 57 -25 -20z"/>
<path d="M7143 1628 c-16 -60 -26 -177 -29 -355 -3 -147 5 -183 25 -130 10 25
29 189 36 317 3 46 10 89 15 94 11 11 13 59 4 94 -11 38 -38 27 -51 -20z"/>
<path d="M5664 1626 c-3 -13 -3 -109 0 -213 3 -103 5 -212 6 -241 0 -29 4 -51
9 -48 4 3 8 77 9 163 0 87 3 192 7 233 11 124 11 124 -7 128 -12 2 -19 -5 -24
-22z"/>
<path d="M7855 1590 c3 -5 17 -10 31 -10 14 0 22 4 19 10 -3 6 -17 10 -31 10
-14 0 -22 -4 -19 -10z"/>
<path d="M2290 1564 c-19 -7 -48 -13 -63 -13 -31 -1 -67 -17 -67 -30 0 -5 13
-14 29 -21 24 -9 39 -8 92 8 35 11 78 27 94 36 17 9 40 16 52 16 12 0 25 5 28
10 9 15 -123 10 -165 -6z"/>
<path d="M3232 1564 c4 -21 22 -23 26 -1 2 10 -3 17 -13 17 -10 0 -15 -6 -13
-16z"/>
<path d="M6286 1571 c-4 -6 -4 -16 -1 -21 3 -6 -1 -17 -10 -26 -18 -19 -15
-38 7 -42 12 -2 17 8 20 40 5 43 -4 69 -16 49z"/>
<path d="M1734 1535 c-3 -19 -3 -42 0 -51 4 -10 0 -22 -10 -29 -15 -10 -15
-14 -2 -36 9 -13 24 -46 34 -74 25 -68 49 -91 80 -76 33 15 33 58 0 71 -13 5
-27 13 -30 19 -4 6 -13 8 -21 4 -27 -10 -18 43 11 66 28 22 25 37 -12 51 -20
8 -24 16 -24 50 0 49 -17 53 -26 5z"/>
<path d="M1995 1490 c-33 -10 -62 -19 -64 -19 -2 -1 1 -7 7 -13 12 -16 1 -47
-27 -72 -22 -20 -28 -46 -12 -46 5 0 17 7 26 16 16 16 69 48 143 85 23 12 42
28 42 35 0 8 10 19 23 24 43 17 -75 9 -138 -10z"/>
<path d="M3202 1470 c-7 -11 -10 -31 -6 -44 3 -13 1 -27 -5 -30 -6 -4 -11 -19
-11 -33 0 -19 4 -24 16 -19 9 3 18 6 20 6 2 0 4 14 4 32 0 17 6 39 14 47 13
14 13 19 -2 39 -17 22 -17 22 -30 2z"/>
<path d="M1847 1473 c-3 -5 8 -16 24 -26 26 -15 30 -15 36 -1 3 8 4 17 2 19
-10 9 -57 16 -62 8z"/>
<path d="M6612 1445 c0 -19 4 -35 9 -35 5 0 9 16 9 35 0 19 -4 35 -9 35 -5 0
-9 -16 -9 -35z"/>
<path d="M2567 1454 c-9 -10 2 -24 19 -24 8 0 14 7 14 15 0 15 -21 21 -33 9z"/>
<path d="M3290 1411 c0 -22 5 -43 10 -46 6 -4 10 12 10 39 0 25 -4 46 -10 46
-5 0 -10 -18 -10 -39z"/>
<path d="M5936 1434 c-9 -24 -7 -124 3 -124 18 0 29 124 12 134 -5 3 -12 -1
-15 -10z"/>
<path d="M4167 1424 c-4 -4 -7 -17 -7 -28 1 -19 1 -20 11 -3 11 19 8 43 -4 31z"/>
<path d="M7403 1343 c-13 -23 -23 -55 -23 -70 -1 -15 -7 -46 -15 -67 -12 -35
-6 -83 8 -60 19 32 57 174 55 203 l-3 36 -22 -42z"/>
<path d="M6291 1345 c0 -12 -6 -26 -13 -33 -9 -9 -9 -18 0 -37 9 -20 9 -30 -2
-48 -10 -17 -12 -45 -5 -132 15 -185 17 -309 6 -323 -6 -8 -7 -56 -3 -133 5
-88 4 -124 -5 -135 -9 -11 -8 -18 4 -32 9 -10 16 -26 16 -37 0 -32 10 -185 15
-243 6 -54 20 -92 35 -92 18 0 20 51 6 145 -8 54 -12 102 -9 106 3 5 -2 22
-11 39 -12 24 -13 35 -5 45 7 9 9 37 5 82 -4 37 -8 147 -11 243 -5 195 -7 226
-19 254 -5 11 -3 38 3 63 13 47 14 210 2 258 -5 21 -8 24 -9 10z"/>
<path d="M6629 1308 c-4 -44 5 -145 13 -155 25 -31 46 7 23 40 -9 13 -15 44
-15 74 0 29 -4 53 -10 53 -5 0 -11 -6 -11 -12z"/>
<path d="M7957 1260 c-9 -36 -19 -98 -21 -138 -3 -48 -13 -88 -27 -117 l-23
-45 19 -77 c19 -79 22 -191 6 -220 -6 -11 5 -33 40 -80 27 -35 49 -69 49 -75
0 -5 13 -27 29 -47 15 -20 31 -52 35 -72 3 -20 20 -51 36 -69 30 -33 34 -48
30 -103 -2 -26 1 -28 22 -22 32 10 34 13 20 35 -7 11 -12 28 -12 38 0 11 -9
27 -21 38 -11 10 -18 26 -16 36 3 9 -1 22 -9 29 -8 6 -19 29 -24 50 -6 21 -21
51 -34 66 -31 37 -46 102 -56 243 -5 63 -14 138 -19 165 -33 152 -32 271 0
323 9 14 10 32 3 63 l-9 44 -18 -65z"/>
<path d="M3600 1231 c0 -16 5 -33 10 -36 6 -4 10 6 10 24 0 16 -4 33 -10 36
-6 4 -10 -6 -10 -24z"/>
<path d="M3150 1235 c0 -9 -7 -18 -15 -21 -16 -7 -21 -54 -6 -54 5 0 12 14 16
31 4 17 13 33 21 36 8 3 11 9 8 14 -9 14 -24 10 -24 -6z"/>
<path d="M2790 1232 c0 -5 16 -22 36 -38 21 -16 54 -44 74 -61 21 -18 43 -33
49 -33 18 0 12 37 -12 73 -18 26 -26 31 -38 24 -11 -7 -27 -2 -57 17 -45 28
-52 31 -52 18z"/>
<path d="M2304 1219 c-6 -11 31 -48 48 -49 4 0 11 -18 14 -40 5 -33 11 -40 29
-40 23 0 35 -17 35 -51 0 -29 24 -33 67 -10 80 43 96 76 37 76 -27 0 -29 2
-28 38 1 20 -3 37 -7 37 -5 0 -9 -6 -9 -14 0 -14 -58 -62 -64 -55 -2 2 -11 20
-21 39 -34 67 -82 99 -101 69z"/>
<path d="M2071 1176 c-8 -10 -9 -16 -1 -21 13 -8 30 3 30 21 0 18 -14 18 -29
0z"/>
<path d="M3911 1162 c-7 -13 -11 -33 -8 -45 3 -20 4 -20 16 7 16 39 10 70 -8
38z"/>
<path d="M2217 1100 c-46 -47 -53 -70 -22 -70 8 0 19 9 25 20 6 11 17 20 25
20 8 0 18 12 21 28 4 15 11 33 17 40 6 8 5 12 -4 12 -8 0 -36 -23 -62 -50z"/>
<path d="M3582 1130 c-13 -21 -17 -82 -5 -93 10 -11 44 74 38 95 -8 23 -17 23
-33 -2z"/>
<path d="M4560 1083 c-11 -37 -28 -76 -38 -87 -17 -18 -16 -19 15 -13 18 4 34
3 37 -2 9 -14 30 -145 31 -196 1 -31 10 -63 23 -85 19 -30 22 -50 22 -133 0
-75 3 -98 13 -94 8 3 11 24 9 71 -2 39 1 66 7 66 17 0 26 -23 28 -70 4 -87 18
-177 32 -193 7 -9 17 -60 21 -114 5 -54 17 -128 27 -165 18 -66 19 -68 51 -68
39 0 39 1 6 110 -14 47 -29 110 -34 142 -4 31 -11 61 -14 67 -4 5 -9 61 -13
123 -3 62 -10 124 -16 138 -5 14 -13 41 -17 60 -14 58 -36 129 -79 250 -46
131 -48 138 -23 156 16 12 16 14 -2 46 -46 77 -60 76 -86 -9z"/>
<path d="M1582 1128 c2 -7 17 -19 34 -27 16 -7 43 -32 59 -55 33 -44 64 -56
85 -32 10 13 10 20 -4 40 -8 14 -26 27 -38 31 -21 6 -68 26 -110 46 -24 12
-30 11 -26 -3z"/>
<path d="M7338 1112 c-9 -10 -22 -40 -28 -67 -11 -47 -10 -50 14 -68 15 -11
26 -28 26 -42 0 -29 14 -39 29 -21 8 9 9 22 2 37 -23 61 -33 111 -28 143 3 20
5 36 4 35 -1 0 -10 -8 -19 -17z"/>
<path d="M2820 1110 c0 -10 8 -17 53 -51 36 -27 38 -69 2 -69 -14 0 -25 -5
-25 -11 0 -17 52 -79 61 -73 5 3 9 25 9 50 0 30 5 46 15 50 24 9 19 53 -7 64
-13 6 -30 14 -38 18 -59 33 -70 37 -70 22z"/>
<path d="M5939 1033 c-5 -115 -3 -226 3 -236 4 -7 8 52 8 131 0 78 -2 142 -5
142 -3 0 -6 -17 -6 -37z"/>
<path d="M1930 996 c0 -32 -4 -46 -13 -46 -35 0 -87 -92 -87 -154 0 -35 -5
-45 -34 -68 -19 -16 -39 -28 -43 -28 -8 0 -63 -114 -63 -130 0 -5 -9 -12 -20
-15 -33 -10 -23 -20 25 -23 40 -2 46 1 55 23 5 14 20 30 33 36 14 6 29 28 40
58 10 28 28 56 42 65 14 9 25 22 25 29 0 6 8 21 16 32 15 20 15 20 30 0 13
-17 16 -18 24 -5 13 20 12 30 0 30 -6 0 -15 11 -20 25 -12 32 -21 31 -54 -1
-14 -15 -26 -21 -26 -14 0 7 8 20 18 29 11 9 24 26 30 37 6 12 27 29 46 38 54
26 82 4 56 -45 -14 -26 -4 -24 28 6 23 21 25 28 14 43 -6 9 -16 27 -21 39 -6
11 -25 32 -43 46 -58 42 -58 42 -58 -7z"/>
<path d="M3090 1020 c0 -19 3 -21 12 -12 9 9 9 15 0 24 -9 9 -12 7 -12 -12z"/>
<path d="M2169 1012 c-15 -3 -51 -67 -42 -76 7 -7 65 62 61 72 -1 4 -10 6 -19
4z"/>
<path d="M2702 918 c-7 -7 -12 -20 -12 -29 0 -9 -7 -20 -16 -23 -17 -6 -16
-47 1 -53 6 -2 22 19 37 46 23 39 25 51 15 60 -10 8 -17 7 -25 -1z"/>
<path d="M2598 869 c-10 -17 -18 -36 -18 -42 0 -6 -7 -18 -15 -26 -8 -9 -16
-32 -18 -51 -3 -19 -16 -60 -31 -90 -14 -30 -26 -63 -26 -73 0 -11 -9 -30 -20
-44 -11 -14 -20 -36 -20 -49 0 -12 -4 -26 -10 -29 -5 -3 -10 -18 -10 -33 0
-15 -6 -36 -14 -47 -7 -11 -16 -40 -20 -65 -4 -24 -11 -49 -15 -55 -5 -5 -14
-36 -21 -68 -6 -33 -20 -78 -31 -100 -10 -23 -19 -54 -19 -69 0 -25 4 -28 34
-28 37 0 46 12 46 60 0 16 4 31 9 35 5 3 17 31 26 62 9 32 23 66 31 77 8 11
14 29 14 39 0 10 7 31 15 45 16 30 45 131 45 157 0 10 9 36 19 59 33 70 96
327 87 351 -8 23 -19 18 -38 -16z"/>
<path d="M3676 861 c-9 -14 2 -51 15 -51 11 0 12 30 0 49 -6 9 -11 10 -15 2z"/>
<path d="M5827 863 c-17 -17 4 -123 24 -123 13 0 11 57 -1 65 -8 5 -7 11 1 21
19 23 -4 58 -24 37z"/>
<path d="M7247 832 c-13 -14 -15 -22 -7 -27 16 -10 33 9 28 30 -3 16 -5 15
-21 -3z"/>
<path d="M8182 793 c2 -22 8 -28 25 -26 17 2 29 -8 48 -42 15 -24 35 -47 46
-50 11 -4 32 -18 47 -31 15 -14 35 -32 44 -41 10 -9 27 -14 43 -11 18 4 29 0
36 -13 6 -13 21 -19 44 -19 42 0 55 17 22 29 -13 5 -29 23 -36 39 -14 32 -81
82 -112 82 -11 0 -25 4 -32 10 -54 44 -78 60 -116 79 -58 27 -63 27 -59 -6z"/>
<path d="M2332 767 c-11 -39 0 -97 19 -97 10 0 10 60 0 105 l-7 30 -12 -38z"/>
<path d="M2825 789 c-10 -28 -10 -168 0 -171 6 -2 11 11 13 27 2 17 8 34 13
39 15 16 11 92 -6 106 -12 10 -16 10 -20 -1z"/>
<path d="M7170 770 c-12 -23 -3 -25 23 -6 21 16 22 26 2 26 -8 0 -19 -9 -25
-20z"/>
<path d="M7340 773 c0 -17 31 -73 40 -73 23 0 19 25 -9 52 -17 17 -31 26 -31
21z"/>
<path d="M2110 725 c0 -30 4 -44 11 -40 6 4 8 14 5 22 -4 9 1 17 14 20 27 7
22 37 -8 41 -20 3 -22 -1 -22 -43z"/>
<path d="M5941 701 c-1 -40 3 -61 8 -55 6 5 6 32 2 64 l-9 55 -1 -64z"/>
<path d="M4550 721 c-13 -26 -13 -31 4 -31 13 0 26 20 26 41 0 16 -19 10 -30
-10z"/>
<path d="M7130 732 c-8 -3 -18 -9 -21 -14 -4 -6 -22 -13 -40 -17 -29 -6 -34
-11 -32 -33 1 -14 14 -52 28 -84 15 -32 33 -88 40 -124 7 -36 22 -90 33 -120
11 -30 23 -75 26 -100 4 -25 19 -89 33 -143 22 -78 31 -97 46 -97 10 0 16 4
13 8 -4 7 -12 95 -19 227 -2 22 -6 29 -19 27 -13 -2 -18 8 -23 45 -3 26 -13
61 -22 77 -9 17 -17 55 -18 86 -1 33 -8 66 -18 81 -10 15 -15 34 -11 43 5 13
1 15 -25 10 -29 -6 -31 -5 -31 22 0 21 11 38 43 65 41 36 48 52 17 41z"/>
<path d="M7600 722 c0 -16 32 -52 46 -52 8 0 14 -4 14 -10 0 -5 18 -21 39 -35
22 -13 63 -47 92 -75 38 -36 59 -50 80 -50 40 0 37 19 -13 67 -88 86 -124 114
-150 120 -15 3 -35 14 -44 24 -17 19 -64 27 -64 11z"/>
<path d="M2150 701 c0 -12 5 -21 10 -21 6 0 10 6 10 14 0 8 -4 18 -10 21 -5 3
-10 -3 -10 -14z"/>
<path d="M5840 706 c-20 -25 -15 -68 8 -84 20 -13 20 -16 7 -42 -11 -21 -12
-41 -6 -81 5 -30 5 -58 1 -64 -4 -5 -8 -106 -8 -222 -1 -179 2 -213 14 -213
11 0 14 29 16 168 0 92 1 174 0 183 -1 9 10 21 23 27 27 12 30 23 16 51 -5 9
-11 44 -12 77 -3 67 -22 174 -36 199 -9 15 -11 15 -23 1z"/>
<path d="M5613 654 c-1 -40 0 -43 17 -34 16 9 38 49 28 53 -1 1 -12 7 -23 13
-19 10 -20 8 -22 -32z"/>
<path d="M2212 659 c1 -13 8 -23 13 -21 15 3 12 35 -3 40 -9 3 -13 -3 -10 -19z"/>
<path d="M8119 571 c20 -37 48 -84 63 -102 l28 -34 0 34 c0 20 -9 45 -25 65
-43 54 -90 105 -96 106 -4 0 10 -31 30 -69z"/>
<path d="M2116 587 c-15 -11 -17 -23 -13 -63 7 -68 20 -117 34 -121 19 -7 22
29 10 115 -12 78 -14 82 -31 69z"/>
<path d="M5518 554 c-36 -19 -40 -59 -5 -49 36 11 69 35 64 48 -6 18 -29 18
-59 1z"/>
<path d="M2727 537 c-13 -35 -18 -107 -9 -124 10 -16 12 -16 21 10 10 25 8
113 -2 124 -3 2 -7 -3 -10 -10z"/>
<path d="M7493 517 c-4 -7 -17 -19 -28 -25 -19 -10 -19 -11 -1 -18 11 -4 21
-2 26 7 7 11 13 10 29 -5 18 -17 21 -17 27 -3 10 27 0 52 -23 55 -12 2 -25 -3
-30 -11z"/>
<path d="M8565 510 c-7 -12 2 -30 16 -30 5 0 9 9 9 20 0 21 -15 27 -25 10z"/>
<path d="M4393 498 c-28 -14 -29 -34 -3 -48 14 -7 26 -7 39 -1 28 15 33 39 11
51 -22 12 -19 12 -47 -2z"/>
<path d="M5725 489 c-4 -6 -5 -13 -2 -16 7 -7 27 6 27 18 0 12 -17 12 -25 -2z"/>
<path d="M6036 492 c-9 -15 -16 -321 -6 -327 18 -11 23 22 22 172 -1 149 -3
175 -16 155z"/>
<path d="M7585 478 c-4 -10 0 -30 8 -45 8 -15 25 -53 37 -83 13 -30 33 -78 46
-107 13 -28 24 -55 24 -60 0 -4 12 -47 27 -95 24 -74 31 -88 49 -88 20 0 21 2
9 48 -7 26 -22 64 -34 85 -11 21 -21 48 -21 60 0 12 -8 38 -19 57 -10 19 -23
51 -30 71 -6 20 -21 45 -31 54 -11 10 -20 28 -20 39 0 12 -9 34 -20 51 -16 24
-20 26 -25 13z"/>
<path d="M4525 460 c-8 -13 4 -32 16 -25 12 8 12 35 0 35 -6 0 -13 -4 -16 -10z"/>
<path d="M7912 434 c-6 -10 -6 -29 -1 -46 4 -16 5 -51 2 -78 -3 -26 -2 -74 2
-107 7 -53 8 -56 16 -28 14 49 16 252 3 265 -9 9 -14 8 -22 -6z"/>
<path d="M5652 398 c-26 -48 -23 -56 12 -33 18 12 26 26 26 46 0 40 -11 36
-38 -13z"/>
<path d="M1980 421 c0 -19 23 -71 31 -71 5 0 14 -11 21 -25 13 -28 28 -24 28
8 0 29 -46 97 -65 97 -8 0 -15 -4 -15 -9z"/>
<path d="M4526 410 c-3 -8 -4 -44 -3 -80 2 -54 5 -65 21 -68 29 -6 38 12 21
44 -8 16 -15 40 -16 54 0 14 -4 34 -9 45 -6 16 -9 17 -14 5z"/>
<path d="M5474 386 c-29 -21 -10 -30 25 -11 17 8 31 18 31 20 0 11 -37 4 -56
-9z"/>
<path d="M5897 344 c-9 -9 4 -35 14 -28 5 3 9 12 9 20 0 14 -12 19 -23 8z"/>
<path d="M7460 323 c0 -43 18 -97 45 -137 14 -20 25 -43 25 -50 0 -8 7 -19 15
-26 8 -7 15 -22 15 -35 0 -21 28 -55 44 -55 14 0 -5 54 -25 73 -10 10 -19 29
-19 42 0 13 -4 26 -9 29 -4 3 -11 18 -14 33 -8 39 -59 153 -69 153 -4 0 -8
-12 -8 -27z"/>
<path d="M7383 288 c-2 -39 4 -66 23 -107 15 -30 32 -73 38 -95 6 -22 17 -41
24 -44 15 -5 16 30 0 46 -6 6 -11 25 -10 42 0 20 -6 33 -19 40 -14 8 -19 21
-19 51 0 39 -20 119 -30 119 -3 0 -6 -23 -7 -52z"/>
<path d="M4607 313 c-12 -11 -8 -23 8 -23 8 0 15 7 15 15 0 16 -12 20 -23 8z"/>
<path d="M1816 302 c-2 -4 -7 -24 -11 -45 -7 -37 -7 -38 18 -26 23 10 37 35
37 67 0 13 -36 17 -44 4z"/>
<path d="M5899 288 c-1 -7 -1 -53 1 -103 3 -130 20 -132 20 -3 0 61 -4 110
-10 113 -5 3 -11 0 -11 -7z"/>
<path d="M4363 264 c-16 -24 -16 -27 -1 -38 25 -18 86 -8 100 17 25 47 -69 67
-99 21z"/>
<path d="M2050 243 c0 -43 11 -73 26 -73 15 0 20 54 8 84 -10 27 -34 19 -34
-11z"/>
<path d="M8280 256 c0 -7 12 -22 28 -32 15 -10 50 -39 77 -64 28 -26 82 -68
122 -93 39 -26 75 -51 78 -57 3 -5 20 -10 38 -10 l32 0 -45 45 c-25 25 -52 52
-60 61 -31 31 -106 87 -135 101 -16 8 -45 25 -64 38 -37 28 -71 33 -71 11z"/>
<path d="M4710 231 c0 -17 5 -31 10 -31 6 0 10 11 10 24 0 14 -4 28 -10 31 -6
4 -10 -7 -10 -24z"/>
<path d="M4567 203 c-20 -19 -5 -33 38 -33 25 0 45 4 45 10 0 21 -67 40 -83
23z"/>
<path d="M2810 155 c0 -8 5 -15 10 -15 6 0 10 7 10 15 0 8 -4 15 -10 15 -5 0
-10 -7 -10 -15z"/>
<path d="M6592 149 c2 -6 8 -10 13 -10 5 0 11 4 13 10 2 6 -4 11 -13 11 -9 0
-15 -5 -13 -11z"/>
<path d="M8066 145 c-9 -25 -7 -118 4 -135 19 -30 33 5 28 69 -4 64 -20 96
-32 66z"/>
<path d="M1965 110 c-7 -11 12 -50 24 -50 15 0 33 29 27 45 -6 17 -41 20 -51
5z"/>
<path d="M6350 61 c0 -16 -3 -36 -6 -45 -5 -12 1 -16 24 -16 29 0 30 1 22 34
-14 61 -40 79 -40 27z"/>
<path d="M6020 66 c0 -8 5 -18 10 -21 6 -3 10 3 10 14 0 12 -4 21 -10 21 -5 0
-10 -6 -10 -14z"/>
<path d="M4422 58 c-7 -7 -12 -22 -12 -35 0 -19 5 -23 29 -23 23 0 30 6 35 25
4 14 4 30 1 35 -9 14 -39 12 -53 -2z"/>
<path d="M5905 40 c-4 -6 -3 -16 3 -22 6 -6 12 -6 17 2 4 6 3 16 -3 22 -6 6
-12 6 -17 -2z"/>
<path d="M7885 39 c-4 -6 -5 -13 -2 -16 7 -7 27 6 27 18 0 12 -17 12 -25 -2z"/>
<path d="M4640 20 c0 -15 7 -20 25 -20 23 0 24 2 15 20 -6 11 -17 20 -25 20
-8 0 -15 -9 -15 -20z"/>
</g>
</svg>
